<?xml version="1.0" encoding="utf-8"?>
<!-- Generator: Adobe Illustrator 20.1.0, SVG Export Plug-In . SVG Version: 6.00 Build 0)  -->
<svg version="1.1" id="Isolation_Mode" xmlns="http://www.w3.org/2000/svg" xmlns:xlink="http://www.w3.org/1999/xlink" x="0px"
	 y="0px" viewBox="0 0 180 180" style="enable-background:new 0 0 180 180;" xml:space="preserve">
<style type="text/css">
	.st0{fill:#864bff;}
</style>
<g>
	<path class="st0" d="M173,164.7c3.6-3.5,5.6-8.4,5.5-13.6c-0.1-5.1-2.1-9.8-5.5-12.9l-27.4-27.4c-2.5-2.5-5.9-3.9-9.5-3.9
		c-1.4,0-2.9,0.2-4.3,0.7l-0.9,0.3l-16.9-16.9l0.5-1c4.7-8.8,7.1-18.3,7.1-28.3c0-33.2-27-60.1-60.1-60.1c-33.1,0-60.1,27-60.1,60.1
		c0,33.2,27,60.1,60.1,60.1c9.9,0,19.7-2.4,28.3-7.1l1-0.5l16.9,16.9l-0.3,0.9c-1.6,4.7-0.4,9.9,3.3,13.8l27.3,27.3
		c3.5,3.5,8.3,5.5,13.3,5.5c5,0,9.7-2,13.3-5.5L173,164.7z M61.6,114.8c-29.3,0-53.2-23.8-53.2-53.2c0-29.3,23.8-53.1,53.2-53.1
		c29.3,0,53.1,23.8,53.1,53.2C114.8,90.9,90.9,114.8,61.6,114.8z M96.9,110.2l1.3-1c4.2-3.2,7.9-6.9,11-11l1-1.4l15.1,15.1
		L112,125.3L96.9,110.2z M151.4,171.5c-3.2,0-6.1-1.2-8.4-3.4l-27.3-27.3c-2.5-2.6-2.5-6.8,0-9.2l15.8-15.9c1.2-1.2,2.8-1.9,4.6-1.9
		c1.7,0,3.3,0.7,4.6,1.9l27.4,27.4c2.1,2.1,3.4,5,3.5,8.1c0,3.2-1.2,6.2-3.4,8.6l-8.3,8.3C157.5,170.3,154.5,171.5,151.4,171.5z"/>
</g>
</svg>
