<?xml version="1.0" encoding="utf-8"?>
<!-- Generator: Adobe Illustrator 16.0.3, SVG Export Plug-In . SVG Version: 6.00 Build 0)  -->
<!DOCTYPE svg PUBLIC "-//W3C//DTD SVG 1.1//EN" "http://www.w3.org/Graphics/SVG/1.1/DTD/svg11.dtd">
<svg version="1.1" id="Layer_1" xmlns="http://www.w3.org/2000/svg" xmlns:xlink="http://www.w3.org/1999/xlink" x="0px" y="0px"
	 width="180px" height="180px" viewBox="0 0 180 180" enable-background="new 0 0 180 180" xml:space="preserve">
<g>
	<defs>
		<rect id="SVGID_1_" width="180" height="180"/>
	</defs>
	<clipPath id="SVGID_2_">
		<use xlink:href="#SVGID_1_"  overflow="visible"/>
	</clipPath>
	<path fill="#864bff" stroke="#864bff" clip-path="url(#SVGID_2_)" d="M90,7.027c45.751,0,82.973,37.222,82.973,82.973S135.751,172.973,90,172.973
		S7.027,135.751,7.027,90S44.249,7.027,90,7.027 M90,0C40.294,0,0,40.294,0,90s40.294,90,90,90s90-40.294,90-90S139.706,0,90,0"/>
	
		<line clip-path="url(#SVGID_2_)" fill="none" stroke="#864bff" stroke-width="7.027" stroke-linecap="round" stroke-miterlimit="10" x1="28.347" y1="75.827" x2="151.653" y2="75.827"/>
	
		<line clip-path="url(#SVGID_2_)" fill="none" stroke="#864bff" stroke-width="7.027" stroke-linecap="round" stroke-miterlimit="10" x1="49.606" y1="47.48" x2="130.394" y2="47.48"/>
	
		<line clip-path="url(#SVGID_2_)" fill="none" stroke="#864bff" stroke-width="7.027" stroke-linecap="round" stroke-miterlimit="10" x1="28.347" y1="104.173" x2="151.653" y2="104.173"/>
	
		<line clip-path="url(#SVGID_2_)" fill="none" stroke="#864bff" stroke-width="7.027" stroke-linecap="round" stroke-miterlimit="10" x1="49.606" y1="132.52" x2="130.394" y2="132.52"/>
</g>
</svg>
