<?xml version="1.0" standalone="no"?>
<!DOCTYPE svg PUBLIC "-//W3C//DTD SVG 1.1//EN" "http://www.w3.org/Graphics/SVG/1.1/DTD/svg11.dtd" >
<svg>
<metadata>
Created by FontForge 20090914 at Tue May  9 17:24:58 2017
 By www-data
Copyright (c) 2017 by Boris Garic. All rights reserved.
</metadata>
<defs>
<font id="GeometricaSans-Black" horiz-adv-x="525" >
  <font-face 
    font-family="Geometrica Sans"
    font-weight="900"
    font-stretch="normal"
    units-per-em="1000"
    panose-1="0 0 0 0 0 0 0 0 0 0"
    ascent="750"
    descent="-250"
    x-height="464"
    cap-height="675"
    bbox="27 -324.997 1402 949"
    underline-thickness="50"
    underline-position="-50"
    unicode-range="U+000D-U+FB02"
  />
<missing-glyph horiz-adv-x="150" 
 />
    <glyph glyph-name=".notdef" horiz-adv-x="150" 
 />
    <glyph glyph-name="NULL" horiz-adv-x="0" 
 />
    <glyph glyph-name="NULL" horiz-adv-x="0" 
 />
    <glyph glyph-name="nonmarkingreturn" unicode="&#xd;" horiz-adv-x="150" 
 />
    <glyph glyph-name="space" unicode=" " horiz-adv-x="150" 
 />
    <glyph glyph-name="exclam" unicode="!" horiz-adv-x="183" 
d="M153 62c0 17.333 -6 31.833 -18 43.5s-26.667 17.5 -44 17.5s-31.833 -5.83301 -43.5 -17.5s-17.5 -26.167 -17.5 -43.5s5.83301 -32 17.5 -44s26.167 -18 43.5 -18s32 6 44 18s18 26.667 18 44zM147 179h-111v496h111v-496z" />
    <glyph glyph-name="quotedbl" unicode="&#x22;" horiz-adv-x="331" 
d="M153 613c0 -6.66699 -1.5 -16.166 -4.5 -28.499s-6.33301 -25.333 -10 -39s-7.5 -26.834 -11.5 -39.501s-7 -22.667 -9 -30h-27v76c-17.333 0 -31.833 5.83301 -43.5 17.5s-17.5 26.167 -17.5 43.5s5.83301 32 17.5 44s26.167 18 43.5 18s32 -6 44 -18s18 -26.667 18 -44
zM301 613.001c0 -8 -1.33203 -18 -3.99902 -30s-5.83398 -24.5 -9.50098 -37.5s-7.5 -25.833 -11.5 -38.5s-7 -23 -9 -31h-27v76c-17.333 0 -32 5.83301 -44 17.5s-18 26.167 -18 43.5s6 32 18 44s26.667 18 44 18s31.833 -6 43.5 -18s17.5 -26.667 17.5 -44z" />
    <glyph glyph-name="numbersign" unicode="#" horiz-adv-x="700" 
d="M538 291l-29 -83h90l-42 -122h-90l-29 -86h-130l29 86h-87l-30 -86h-129l29 86h-90l42 122h91l28 83h-90l42 122h90l30 86h129l-29 -86h88l29 86h130l-30 -86h90l-42 -122h-90zM408 291h-87l-29 -83h88z" />
    <glyph glyph-name="dollar" unicode="$" horiz-adv-x="550" 
d="M336 382c22.667 -5.33301 45.002 -13.8311 67.002 -25.498s41.667 -25.834 59 -42.501s31.333 -35.667 42 -57s16 -44.666 16 -69.999s-5.33301 -48.5 -16 -69.5s-24.5 -39.167 -41.5 -54.5s-36.667 -28.166 -59 -38.499s-44.833 -17.833 -67.5 -22.5v-67h-123v67
c-35.333 6.66699 -69.166 19 -101.499 37s-58.5 42.333 -78.5 73l117 43c17.333 -15.333 38.333 -26.333 63 -33v164c-22.667 6 -45 14.833 -67 26.5s-41.5 25.667 -58.5 42s-30.833 35.166 -41.5 56.499s-16 45 -16 71c0 25.333 5.16699 48.5 15.5 69.5
s24.166 39.167 41.499 54.5s36.833 28.166 58.5 38.499s44.167 17.5 67.5 21.5v67h123v-67c36 -6.66699 70.667 -19.334 104 -38.001s59.666 -44 78.999 -76l-115 -42c-9.33301 9.33301 -19.833 16.833 -31.5 22.5s-23.834 10.167 -36.501 13.5v-164zM147.002 486.002
c0 -19.333 7.00195 -35.168 21.002 -47.501s29 -22.166 45 -29.499v137c-6 -2 -12.833 -4.83301 -20.5 -8.5s-14.834 -8 -21.501 -13s-12.334 -10.833 -17.001 -17.5s-7 -13.667 -7 -21zM403.004 182c0 9.33301 -1.99902 18.002 -5.99902 26.002s-9.33301 15.167 -16 21.5
s-13.834 12 -21.501 17s-15.5 9.16699 -23.5 12.5v-137c6 2 12.833 4.83301 20.5 8.5s15 8.16699 22 13.5s12.833 11.166 17.5 17.499s7 13.166 7 20.499z" />
    <glyph glyph-name="percent" unicode="%" horiz-adv-x="995" 
d="M402 488c0 -26 -4.83301 -50.167 -14.5 -72.5s-23 -42 -40 -59s-36.833 -30.333 -59.5 -40s-46.667 -14.5 -72 -14.5c-26 0 -50.167 4.83301 -72.5 14.5s-42 23 -59 40s-30.333 36.667 -40 59s-14.5 46.5 -14.5 72.5s4.83301 50.167 14.5 72.5s23 42 40 59
s36.667 30.333 59 40s46.5 14.5 72.5 14.5c25.333 0 49.333 -4.83301 72 -14.5s42.5 -23 59.5 -40s30.333 -36.667 40 -59s14.5 -46.5 14.5 -72.5zM153 488c0 -17.333 6.16699 -32.166 18.5 -44.499s27.166 -18.5 44.499 -18.5s32.166 6.16699 44.499 18.5
s18.5 27.166 18.5 44.499s-6.16699 32.166 -18.5 44.499s-27.166 18.5 -44.499 18.5s-32.166 -6.16699 -44.499 -18.5s-18.5 -27.166 -18.5 -44.499zM779 372c26 0 50.167 -4.83301 72.5 -14.5s42 -23 59 -40s30.333 -36.833 40 -59.5s14.5 -46.667 14.5 -72
c0 -26 -4.83301 -50.167 -14.5 -72.5s-23 -42 -40 -59s-36.667 -30.333 -59 -40s-46.5 -14.5 -72.5 -14.5c-25.333 -0 -49.333 4.83301 -72 14.5s-42.5 23 -59.5 40s-30.333 36.667 -40 59s-14.5 46.5 -14.5 72.5c0 25.333 4.83301 49.333 14.5 72s23 42.5 40 59.5
s36.833 30.333 59.5 40s46.667 14.5 72 14.5zM779 123c17.333 0 32.166 6.16699 44.499 18.5s18.5 27.166 18.5 44.499s-6.16699 32.166 -18.5 44.499s-27.166 18.5 -44.499 18.5s-32.166 -6.16699 -44.499 -18.5s-18.5 -27.166 -18.5 -44.499s6.16699 -32.166 18.5 -44.499
s27.166 -18.5 44.499 -18.5zM802 674l-460 -674h-149l460 674h149z" />
    <glyph glyph-name="ampersand" unicode="&#x26;" horiz-adv-x="636" 
d="M606 239l-44 -0.00195312c0 -63.333 -22.333 -116.666 -67 -159.999l52 -79h-147l-11 16c-30 -10 -61 -15 -93 -15c-32.667 0 -64.834 5.5 -96.501 16.5s-60 26.5 -85 46.5s-45.333 44.167 -61 72.5s-23.5 60.166 -23.5 95.499c0 36.667 8.83301 70.5 26.5 101.5
s41.5 56.833 71.5 77.5c-9.33301 14.667 -17.166 29.834 -23.499 45.501s-9.5 32.167 -9.5 49.5c0 26 6 49.5 18 70.5s27.5 38.833 46.5 53.5s40.5 25.834 64.5 33.501s48 11.5 72 11.5s48 -3.83301 72 -11.5s45.5 -18.834 64.5 -33.501s34.5 -32.5 46.5 -53.5
s18 -44.5 18 -70.5c0 -23.333 -5 -44.666 -15 -63.999s-23 -36.166 -39 -50.499s-34.333 -26 -55 -35s-41.667 -14.833 -63 -17.5l100 -153c6.66699 10 11 23.667 13 41s3 35.333 3 54c0 15.333 -0.333008 30.166 -1 44.499s-1 26.5 -1 36.5h167v-123zM246 458.998
c7.33301 1.33301 17.998 2.33203 31.998 2.99902s28 2.33398 42 5.00098s26.333 7 37 13s16 14.667 16 26c0 7.33301 -3 13.666 -9 18.999s-13.167 9.83301 -21.5 13.5s-16.833 6.33398 -25.5 8.00098s-15.667 2.5 -21 2.5c-7.33301 0 -15.166 -1 -23.499 -3
s-16.166 -5.16699 -23.499 -9.5s-13.5 -10 -18.5 -17s-7.5 -15.5 -7.5 -25.5zM152.998 231.997c0 -18 4.5 -33.667 13.5 -47s20.667 -24.5 35 -33.5s30 -15.667 47 -20s33.5 -6.5 49.5 -6.5h9.5c3 0 6.16699 0.333008 9.5 1l-121 182
c-12 -9.33301 -22.167 -20.5 -30.5 -33.5s-12.5 -27.167 -12.5 -42.5z" />
    <glyph glyph-name="quotesingle" unicode="'" horiz-adv-x="183" 
d="M153 613c0 -8 -1.33203 -18 -3.99902 -30s-5.83398 -24.5 -9.50098 -37.5s-7.5 -25.833 -11.5 -38.5s-7 -23 -9 -31h-27v76c-17.333 0 -32 5.83301 -44 17.5s-18 26.167 -18 43.5s6 32 18 44s26.667 18 44 18s31.833 -6 43.5 -18s17.5 -26.667 17.5 -44z" />
    <glyph glyph-name="parenleft" unicode="(" horiz-adv-x="290" 
d="M30 478c0 32 6 61.832 18 89.499s28.5 52 49.5 73s45.333 37.5 73 49.5s57.5 18 89.5 18v-121c-15.333 0 -29.666 -2.83301 -42.999 -8.5s-25 -13.5 -35 -23.5s-17.833 -21.667 -23.5 -35s-8.5 -27.333 -8.5 -42v-338c0 -15.333 2.83301 -29.666 8.5 -42.999
s13.5 -25 23.5 -35s21.667 -17.833 35 -23.5s27.666 -8.5 42.999 -8.5v-120c-32 0 -61.833 6 -89.5 18s-52 28.5 -73 49.5s-37.5 45.333 -49.5 73s-18 57.5 -18 89.5v338v0z" />
    <glyph glyph-name="parenright" unicode=")" horiz-adv-x="289" 
d="M30 708c31.333 0 61 -5.99902 89 -17.999s52.333 -28.5 73 -49.5s37 -45.333 49 -73s18 -57.5 18 -89.5v-338c0 -32 -6 -61.833 -18 -89.5s-28.333 -52 -49 -73s-45 -37.5 -73 -49.5s-57.667 -18 -89 -18v120c14.667 0 28.667 2.83301 42 8.5s25 13.5 35 23.5
s17.833 21.667 23.5 35s8.5 27.666 8.5 42.999v338c0 14.667 -2.83301 28.667 -8.5 42s-13.5 25 -23.5 35s-21.667 17.833 -35 23.5s-27.333 8.5 -42 8.5v121v0z" />
    <glyph glyph-name="asterisk" unicode="*" horiz-adv-x="409" 
d="M379 443h-75l40 -63l-93 -59l-47 75l-47 -75l-92 59l40 63h-75v110h75l-40 63l92 59l47 -75l47 75l93 -59l-40 -63h75v-110z" />
    <glyph glyph-name="plus" unicode="+" horiz-adv-x="409" 
d="M379 284h-120v-120h-110v120h-119v109h119v120h110v-120h120v-109z" />
    <glyph glyph-name="comma" unicode="," horiz-adv-x="183" 
d="M153 62c0 -6.66699 -1.5 -16.167 -4.5 -28.5s-6.33301 -25.333 -10 -39s-7.5 -27 -11.5 -40s-7 -23.167 -9 -30.5h-27v76c-17.333 0 -31.833 6 -43.5 18s-17.5 26.667 -17.5 44s5.83301 31.833 17.5 43.5s26.167 17.5 43.5 17.5s32 -5.83301 44 -17.5
s18 -26.167 18 -43.5z" />
    <glyph glyph-name="hyphen" unicode="-" horiz-adv-x="409" 
d="M30 284v109h349v-109h-349z" />
    <glyph glyph-name="period" unicode="." horiz-adv-x="183" 
d="M153 62c0 -17.333 -6 -32 -18 -44s-26.667 -18 -44 -18s-31.833 6 -43.5 18s-17.5 26.667 -17.5 44c0 16.667 5.83301 31 17.5 43s26.167 18 43.5 18s32 -6 44 -18s18 -26.333 18 -43z" />
    <glyph glyph-name="slash" unicode="/" horiz-adv-x="481" 
d="M451 728l-290 -798h-131l290 798h131z" />
    <glyph glyph-name="zero" unicode="0" horiz-adv-x="592" 
d="M562 231c0 -32 -7 -62 -21 -90s-33 -52.5 -57 -73.5s-52.167 -37.5 -84.5 -49.5s-66.833 -18 -103.5 -18s-71.167 6 -103.5 18s-60.5 28.5 -84.5 49.5s-43 45.5 -57 73.5s-21 58 -21 90v213c0 32 7 62 21 90s33 52.5 57 73.5s52.167 37.5 84.5 49.5s66.833 18 103.5 18
s71.167 -6 103.5 -18s60.5 -28.5 84.5 -49.5s43 -45.5 57 -73.5s21 -58 21 -90v-213zM439 444c0 14.667 -3.83301 28.5 -11.5 41.5s-18 24.5 -31 34.5s-28.167 17.833 -45.5 23.5s-35.666 8.5 -54.999 8.5s-37.666 -2.83301 -54.999 -8.5s-32.5 -13.5 -45.5 -23.5
s-23.333 -21.5 -31 -34.5s-11.5 -26.833 -11.5 -41.5v-213c0 -14.667 3.83301 -28.5 11.5 -41.5s18 -24.5 31 -34.5s28.167 -17.833 45.5 -23.5s35.666 -8.5 54.999 -8.5s37.666 2.83301 54.999 8.5s32.5 13.5 45.5 23.5s23.333 21.5 31 34.5s11.5 26.833 11.5 41.5v213z
" />
    <glyph glyph-name="one" unicode="1" horiz-adv-x="296" 
d="M266 675v-675h-123v552h-113v123h236z" />
    <glyph glyph-name="two" unicode="2" horiz-adv-x="545" 
d="M515 123l0.00292969 -122.996h-485v123c0 35.333 5.83301 64.333 17.5 87s27.167 41.167 46.5 55.5s41.666 26.166 66.999 35.499s51.666 18 78.999 26c5.33301 1.33301 11 2.83301 17 4.5s11.667 3.5 17 5.5c13.333 4 27 10 41 18s26.667 17.167 38 27.5
s20.666 22.166 27.999 35.499s11 27.666 11 42.999c0 16 -3.83301 29.667 -11.5 41s-17.334 20.666 -29.001 27.999s-24.667 12.833 -39 16.5s-28.166 5.5 -41.499 5.5c-25.333 0 -51 -5.16699 -77 -15.5s-47.667 -24.833 -65 -43.5l-98 75c30 34 66.167 60.167 108.5 78.5
s85.833 27.5 130.5 27.5c30.667 0 60.667 -4.83301 90 -14.5s55.5 -23.5 78.5 -41.5s41.5 -40 55.5 -66s21 -55.667 21 -89c0 -30 -5.66699 -57.833 -17 -83.5s-26.5 -49 -45.5 -70s-41 -39.167 -66 -54.5s-50.833 -27 -77.5 -35c-12 -4 -26.167 -8.33301 -42.5 -13
s-32 -10.5 -47 -17.5s-28 -15.833 -39 -26.5s-17.5 -24 -19.5 -40h354z" />
    <glyph glyph-name="three" unicode="3" horiz-adv-x="569" 
d="M371 448c24.667 -8.66699 47.1699 -20.1641 67.5029 -34.4971s38 -30.833 53 -49.5s26.667 -39.167 35 -61.5s12.5 -45.833 12.5 -70.5c0 -32 -7 -62.167 -21 -90.5s-33.167 -53 -57.5 -74s-52.833 -37.5 -85.5 -49.5s-67.334 -18 -104.001 -18
c-26.667 0 -52.167 3.16699 -76.5 9.5s-46.833 15.166 -67.5 26.499s-39.334 25.166 -56.001 41.499s-30.334 34.166 -41.001 53.499l116 49c12.667 -16.667 30 -30.167 52 -40.5s46.333 -15.5 73 -15.5c19.333 0 37.833 2.83301 55.5 8.5s33 13.5 46 23.5
s23.333 21.5 31 34.5s11.5 26.833 11.5 41.5s-3.83301 28.667 -11.5 42s-18 25 -31 35s-28.333 17.833 -46 23.5s-36.167 8.5 -55.5 8.5l-74 74l112 136h-254v124h414v-124l-98 -103v0z" />
    <glyph glyph-name="four" unicode="4" horiz-adv-x="608" 
d="M578 173h-62v-173h-123v173h-363v123l363 379h123v-379h62v-123zM393 296v201l-193 -201h193z" />
    <glyph glyph-name="five" unicode="5" horiz-adv-x="567" 
d="M537 232c-1.33301 -34 -9.66602 -65.1631 -24.999 -93.4961s-35.333 -52.833 -60 -73.5s-52.667 -36.667 -84 -48s-64 -17 -98 -17c-26 0 -51.167 3.16699 -75.5 9.5s-46.833 15.166 -67.5 26.499s-39.334 25.166 -56.001 41.499s-30.334 34.166 -41.001 53.499l115 48
c12.667 -16.667 30.167 -30.167 52.5 -40.5s46.5 -15.5 72.5 -15.5c14 0 29.333 2.16699 46 6.5s32.334 11 47.001 20s26.834 20.333 36.501 34s14.5 29.834 14.5 48.501c0 17.333 -4.5 32.666 -13.5 45.999s-20.5 24.666 -34.5 33.999s-29.5 16.333 -46.5 21
s-33.5 7 -49.5 7c-32.667 0 -61.334 -7.66699 -86.001 -23h-117v358h412v-124h-289v-98c13.333 3.33301 26.5 6 39.5 8s26.5 3 40.5 3c33.333 0 65.333 -5.33301 96 -16s58 -26 82 -46s44 -44.333 60 -73s25.667 -61 29 -97z" />
    <glyph glyph-name="six" unicode="6" horiz-adv-x="560" 
d="M286 3c-32 0 -61.8369 4.66797 -89.5039 14.001s-52.5 22.666 -74.5 39.999s-40.5 38.5 -55.5 63.5s-25.5 53.167 -31.5 84.5c-2.66699 12.667 -4.16699 26 -4.5 40s-0.5 27.333 -0.5 40c0 35.333 3.5 70.5 10.5 105.5s17.833 68.167 32.5 99.5s33.667 60 57 86
s51 48 83 66c19.333 10 39.5 18 60.5 24s42.5 9 64.5 9c27.333 0 53.833 -4 79.5 -12s50.167 -19.333 73.5 -34l-84 -94c-21.333 10 -43.666 15 -66.999 15c-35.333 0 -67.166 -10.333 -95.499 -31s-50.166 -46.334 -65.499 -77.001c16 7.33301 32.833 12.833 50.5 16.5
s35.167 5.5 52.5 5.5c32.667 0 63.834 -5.83301 93.501 -17.5s56 -27.667 79 -48s41.333 -44.666 55 -72.999s20.5 -59.5 20.5 -93.5c0 -35.333 -6.5 -67 -19.5 -95s-30.5 -52 -52.5 -72s-47.833 -35.333 -77.5 -46s-61.167 -16 -94.5 -16zM281.996 340.001
c-15.333 0 -30.833 -2.5 -46.5 -7.5s-30 -12 -43 -21s-23.667 -20.333 -32 -34s-12.5 -28.834 -12.5 -45.501c0 -17.333 4.16699 -32.666 12.5 -45.999s19 -24.666 32 -33.999s27.333 -16.5 43 -21.5s31.167 -7.5 46.5 -7.5s30.833 2.5 46.5 7.5s30 12.167 43 21.5
s23.5 20.666 31.5 33.999s12 28.666 12 45.999c0 16.667 -4.16699 31.834 -12.5 45.501s-18.833 25 -31.5 34s-27 16 -43 21s-31.333 7.5 -46 7.5z" />
    <glyph glyph-name="seven" unicode="7" horiz-adv-x="575" 
d="M545 675v-124l-331 -551h-144l332 551h-372v124h515z" />
    <glyph glyph-name="eight" unicode="8" horiz-adv-x="563" 
d="M438 412c29.333 -21.333 52.5039 -47.5 69.5039 -78.5s25.5 -65.167 25.5 -102.5c0 -32 -6.66699 -62 -20 -90s-31.333 -52.5 -54 -73.5s-49.334 -37.5 -80.001 -49.5s-63.334 -18 -98.001 -18s-67.334 6 -98.001 18s-57.334 28.5 -80.001 49.5s-40.5 45.5 -53.5 73.5
s-19.5 58 -19.5 90c0 37.333 8.5 71.5 25.5 102.5s39.833 57.167 68.5 78.5c-22 28 -33 59.667 -33 95c0 22.667 5 44.167 15 64.5s23.5 38.166 40.5 53.499s37.167 27.333 60.5 36s48 13 74 13s50.667 -4.33301 74 -13s43.5 -20.667 60.5 -36s30.5 -33.166 40.5 -53.499
s15 -41.833 15 -64.5c0 -35.333 -11 -67 -33 -95zM281.004 549c-21.333 0 -38.666 -4.83301 -51.999 -14.5s-20 -18.834 -20 -27.501s6.66699 -18 20 -28s30.666 -15 51.999 -15c22 0 39.667 5 53 15s20 19.333 20 28s-6.66699 17.834 -20 27.501s-31 14.5 -53 14.5z
M281.004 123c18.667 0 36.167 2.83301 52.5 8.5s30.666 13.5 42.999 23.5s22 21.5 29 34.5s10.5 26.833 10.5 41.5s-3.5 28.667 -10.5 42s-16.667 25 -29 35s-26.666 17.833 -42.999 23.5s-33.833 8.5 -52.5 8.5c-18 0 -35.167 -2.83301 -51.5 -8.5
s-30.666 -13.5 -42.999 -23.5s-22.166 -21.667 -29.499 -35s-11 -27.333 -11 -42s3.66699 -28.5 11 -41.5s17.166 -24.5 29.499 -34.5s26.666 -17.833 42.999 -23.5s33.5 -8.5 51.5 -8.5z" />
    <glyph glyph-name="nine" unicode="9" horiz-adv-x="560" 
d="M278 675c44 0 81.833 -7.99902 113.5 -23.999s57.834 -37.167 78.501 -63.5s35.834 -56.833 45.501 -91.5s14.5 -70.334 14.5 -107.001c0 -64 -9.33301 -120.333 -28 -169s-42.834 -89.167 -72.501 -121.5s-62.834 -56.833 -99.501 -73.5s-72.667 -25 -108 -25
c-28 -0 -54.833 3.83301 -80.5 11.5s-49.834 18.834 -72.501 33.501l84 94c22.667 -10.667 45.667 -16 69 -16c34.667 0 66 10 94 30s49.667 46.333 65 79c-15.333 -6.66699 -31.666 -11.834 -48.999 -15.501s-35.333 -5.5 -54 -5.5c-34 0 -66.167 6 -96.5 18
s-56.666 28.5 -78.999 49.5s-40 45.667 -53 74s-19.5 58.5 -19.5 90.5s6.5 62 19.5 90s30.667 52.5 53 73.5s48.666 37.667 78.999 50s62.5 18.5 96.5 18.5zM278 334.001c18 0 35.167 2.83301 51.5 8.5s30.666 13.5 42.999 23.5s22 21.667 29 35s10.5 27.333 10.5 42
s-3.5 28.5 -10.5 41.5s-16.667 24.5 -29 34.5s-26.666 17.833 -42.999 23.5s-33.5 8.5 -51.5 8.5s-35 -2.83301 -51 -8.5s-30.167 -13.5 -42.5 -23.5s-22 -21.5 -29 -34.5s-10.5 -26.833 -10.5 -41.5s3.5 -28.667 10.5 -42s16.667 -25 29 -35s26.5 -17.833 42.5 -23.5
s33 -8.5 51 -8.5z" />
    <glyph glyph-name="colon" unicode=":" horiz-adv-x="183" 
d="M153 215c0 -17.333 -6 -32 -18 -44s-26.667 -18 -44 -18s-31.833 6 -43.5 18s-17.5 26.667 -17.5 44s5.83301 31.833 17.5 43.5s26.167 17.5 43.5 17.5s32 -5.83301 44 -17.5s18 -26.167 18 -43.5zM153 461c0 -17.333 -6 -31.833 -18 -43.5s-26.667 -17.5 -44 -17.5
s-31.833 5.83301 -43.5 17.5s-17.5 26.167 -17.5 43.5s5.83301 31.833 17.5 43.5s26.167 17.5 43.5 17.5s32 -5.83301 44 -17.5s18 -26.167 18 -43.5z" />
    <glyph glyph-name="semicolon" unicode=";" horiz-adv-x="183" 
d="M153 461c0 -17.333 -5.83301 -31.833 -17.5 -43.5s-26.167 -17.5 -43.5 -17.5s-32 5.83301 -44 17.5s-18 26.167 -18 43.5s6 31.833 18 43.5s26.667 17.5 44 17.5s31.833 -5.83301 43.5 -17.5s17.5 -26.167 17.5 -43.5zM153 215c0 -8 -1.33203 -18.167 -3.99902 -30.5
s-5.83398 -25 -9.50098 -38s-7.5 -25.667 -11.5 -38s-7 -22.833 -9 -31.5h-27v76c-17.333 0 -32 6 -44 18s-18 26.667 -18 44s6 31.833 18 43.5s26.667 17.5 44 17.5s31.833 -5.83301 43.5 -17.5s17.5 -26.167 17.5 -43.5z" />
    <glyph glyph-name="less" unicode="&#x3c;" horiz-adv-x="398" 
d="M368 229v-143l-338 201v98l337 202v-144l-179 -107z" />
    <glyph glyph-name="equal" unicode="=" horiz-adv-x="409" 
d="M30 373v110h349v-110h-349zM30 194v110h349v-110h-349z" />
    <glyph glyph-name="greater" unicode="&#x3e;" horiz-adv-x="398" 
d="M30 443v144l338 -202v-98l-338 -201v143l180 107z" />
    <glyph glyph-name="question" unicode="?" horiz-adv-x="423" 
d="M169 123c17.333 0 32 -5.83301 44 -17.5s18 -26.167 18 -43.5s-6 -32 -18 -44s-26.667 -18 -44 -18s-31.833 6 -43.5 18s-17.5 26.667 -17.5 44s5.83301 31.833 17.5 43.5s26.167 17.5 43.5 17.5zM393 473c0 -26.667 -4 -49.001 -12 -67.001s-18.167 -33.833 -30.5 -47.5
s-25.5 -26.167 -39.5 -37.5s-27.167 -23.5 -39.5 -36.5s-22.833 -27.833 -31.5 -44.5s-13.334 -37 -14.001 -61h-113c0 34.667 3.83301 64 11.5 88s17.334 44.333 29.001 61s24.334 30.667 38.001 42l38 32.5c11.667 10.333 21.334 20.833 29.001 31.5s11.5 23.667 11.5 39
c0 27.333 -9.5 48.833 -28.5 64.5s-41.5 23.5 -67.5 23.5c-24 0 -45 -7 -63 -21l-81 84c20 16.667 42.5 29.334 67.5 38.001s50.5 13 76.5 13c28 0 55.167 -5 81.5 -15s49.666 -24 69.999 -42s36.666 -39.333 48.999 -64s18.5 -51.667 18.5 -81z" />
    <glyph glyph-name="at" unicode="@" horiz-adv-x="734" 
d="M704 337c0 -18 -2.99805 -36.1699 -8.99805 -54.5029s-14.667 -34.666 -26 -48.999s-25 -26.166 -41 -35.499s-34 -14 -54 -14c-19.333 0 -37 4.66699 -53 14s-29.667 21.333 -41 36c-14.667 -16 -31.834 -28.333 -51.501 -37s-40.167 -13 -61.5 -13s-41.333 4 -60 12
s-35 18.833 -49 32.5s-25 29.834 -33 48.501s-12 38.667 -12 60s4 41.333 12 60s19 35 33 49s30.333 25 49 33s38.667 12 60 12c28.667 0 55.334 -7.66699 80.001 -23v23h74v-154c0 -8 1 -16.667 3 -26s5.33301 -18 10 -26s10.334 -14.667 17.001 -20s15 -8 25 -8
c9.33301 0 17.5 2.66699 24.5 8s12.667 12 17 20s7.5 16.667 9.5 26s3 18 3 26c0 36 -6.83301 70 -20.5 102s-32.5 60 -56.5 84s-52 43 -84 57s-66 21 -102 21s-70 -7 -102 -21s-60 -33 -84 -57s-42.833 -52 -56.5 -84s-20.5 -66 -20.5 -102s7.16699 -69.833 21.5 -101.5
s33.666 -59.5 57.999 -83.5s52.5 -42.833 84.5 -56.5s66 -20.5 102 -20.5c19.333 0 38.166 2 56.499 6s36.166 10.333 53.499 19l44 -61c-48 -26 -100.333 -39 -157 -39c-46.667 -0 -90.5 8.83301 -131.5 26.5s-76.667 41.667 -107 72s-54.333 66 -72 107
s-26.5 84.833 -26.5 131.5s8.83301 90.5 26.5 131.5s41.667 76.833 72 107.5s66 54.834 107 72.501s84.833 26.5 131.5 26.5s90.5 -8.83301 131.5 -26.5s76.667 -41.834 107 -72.501s54.333 -66.5 72 -107.5s26.5 -84.833 26.5 -131.5zM367.002 257.997
c22 0 40.833 7.66699 56.5 23s23.5 34 23.5 56s-7.83301 40.833 -23.5 56.5s-34.5 23.5 -56.5 23.5s-40.833 -7.83301 -56.5 -23.5s-23.5 -34.5 -23.5 -56.5s7.83301 -40.667 23.5 -56s34.5 -23 56.5 -23z" />
    <glyph glyph-name="A" unicode="A" horiz-adv-x="683" 
d="M482 110h-281l-40 -110h-131l247 675h131l245 -675h-131zM438 233l-96 264l-96 -264h192z" />
    <glyph glyph-name="B" unicode="B" horiz-adv-x="575" 
d="M435 398c33.333 -18 60 -43.5 80 -76.5s30 -69.5 30 -109.5c0 -29.333 -5.5 -56.833 -16.5 -82.5s-26.167 -48.167 -45.5 -67.5s-41.833 -34.5 -67.5 -45.5s-53.167 -16.5 -82.5 -16.5h-303v675h241c26 0 50.333 -4.83301 73 -14.5s42.5 -23 59.5 -40
s30.333 -36.833 40 -59.5s14.5 -47 14.5 -73c0 -32.667 -7.66699 -62.667 -23 -90zM278 424c18.667 2 32.666 9.5 41.999 22.5s14 27.167 14 42.5c0 16 -5.16699 30.667 -15.5 44s-26.166 20 -47.499 20h-118v-129h125zM332.999 123
c14.667 0.666992 27.332 3.66797 37.999 9.00098s19.667 12.166 27 20.499s12.833 17.833 16.5 28.5s5.5 21.667 5.5 33c0 22 -7.16699 42 -21.5 60s-36.166 27 -65.499 27h-180v-178h180z" />
    <glyph glyph-name="C" unicode="C" horiz-adv-x="636" 
d="M606 99c-30.667 -30.667 -66.5 -54.832 -107.5 -72.499s-84.833 -26.5 -131.5 -26.5s-90.5 8.83301 -131.5 26.5s-76.667 41.667 -107 72s-54.333 66 -72 107s-26.5 84.833 -26.5 131.5s8.83301 90.5 26.5 131.5s41.667 76.833 72 107.5s66 54.834 107 72.501
s84.833 26.5 131.5 26.5s90.5 -8.83301 131.5 -26.5s76.833 -41.834 107.5 -72.501l-87 -87c-19.333 19.333 -42 34.666 -68 45.999s-54 17 -84 17c-29.333 0 -57 -5.66699 -83 -17s-48.667 -26.833 -68 -46.5s-34.666 -42.5 -45.999 -68.5s-17 -53.667 -17 -83
s5.66699 -57 17 -83s26.666 -48.667 45.999 -68s42 -34.666 68 -45.999s53.667 -17 83 -17c30 0 58 5.66699 84 17s48.667 26.666 68 45.999z" />
    <glyph glyph-name="D" unicode="D" horiz-adv-x="648" 
d="M281 675c43.333 -1.33301 85.1709 -10.5 125.504 -27.5s76.166 -40.333 107.499 -70s56.5 -65 75.5 -106s28.5 -85.833 28.5 -134.5c0 -46.667 -8.83301 -90.5 -26.5 -131.5s-41.834 -76.667 -72.501 -107s-66.334 -54.333 -107.001 -72s-84.334 -26.5 -131.001 -26.5
h-251v675h251zM281.005 123c29.333 0 57 5.66797 83 17.001s48.833 26.666 68.5 45.999s35.167 42 46.5 68s17 53.667 17 83s-5.66699 57 -17 83s-26.833 48.833 -46.5 68.5s-42.5 35.167 -68.5 46.5s-53.667 17 -83 17h-128v-429h128z" />
    <glyph glyph-name="E" unicode="E" horiz-adv-x="574" 
d="M153 552v-128h287v-123h-287v-178h391v-123h-514v674h514v-123z" />
    <glyph glyph-name="F" unicode="F" horiz-adv-x="575" 
d="M153 553v-129h287v-123h-287v-301h-123v675h515v-123z" />
    <glyph glyph-name="G" unicode="G" horiz-adv-x="672" 
d="M355 399l286.998 -0.00390625v-398h-123v36c-23.333 -11.333 -47.5 -20.166 -72.5 -26.499s-51.5 -9.5 -79.5 -9.5c-46.667 0 -90.5 8.83301 -131.5 26.5s-76.667 41.667 -107 72s-54.333 66 -72 107s-26.5 84.833 -26.5 131.5s8.83301 90.334 26.5 131.001
s41.667 76.334 72 107.001s66 54.834 107 72.501s84.833 26.5 131.5 26.5s90.334 -8.83301 131.001 -26.5s76.334 -41.834 107.001 -72.501l-87 -87c-19.333 19.333 -41.833 34.666 -67.5 45.999s-53.5 17 -83.5 17c-29.333 0 -57 -5.66699 -83 -17
s-48.667 -26.666 -68 -45.999s-34.666 -42 -45.999 -68s-17 -53.667 -17 -83s5.66699 -57 17 -83s26.666 -48.667 45.999 -68s42 -34.666 68 -45.999s53.667 -17 83 -17c30 0 57.833 5.5 83.5 16.5s48.5 25.833 68.5 44.5v92h-164v122z" />
    <glyph glyph-name="H" unicode="H" horiz-adv-x="575" 
d="M545 675v-675h-123v277h-269v-277h-123v675h123v-277h269v277h123z" />
    <glyph glyph-name="I" unicode="I" horiz-adv-x="183" 
d="M153 0h-123v675h123v-675z" />
    <glyph glyph-name="J" unicode="J" horiz-adv-x="575" 
d="M545 258c0 -36 -6.6709 -69.667 -20.0039 -101s-31.666 -58.666 -54.999 -81.999s-50.666 -41.666 -81.999 -54.999s-64.666 -20 -99.999 -20c-36 0 -69.667 6.66699 -101 20s-58.666 31.666 -81.999 54.999s-41.666 50.666 -54.999 81.999s-20 65 -20 101h123
c0 -18.667 3.5 -36.167 10.5 -52.5s16.667 -30.666 29 -42.999s26.666 -22 42.999 -29s33.833 -10.5 52.5 -10.5s36.167 3.5 52.5 10.5s30.5 16.667 42.5 29s21.5 26.666 28.5 42.999s10.5 33.833 10.5 52.5v294h-133v123h255z" />
    <glyph glyph-name="K" unicode="K" horiz-adv-x="611" 
d="M235 300l-82 -103v-197h-123v674h123v-280l222 280h157l-217 -273l266 -401h-147z" />
    <glyph glyph-name="L" unicode="L" horiz-adv-x="575" 
d="M545 122v-121h-515v674h123v-553h392z" />
    <glyph glyph-name="M" unicode="M" horiz-adv-x="738" 
d="M708 675v-675h-123v455l-155 -234h-122l-155 234v-455h-123v675h123l216 -326l216 326h123z" />
    <glyph glyph-name="N" unicode="N" horiz-adv-x="573" 
d="M543 675v-675h-123l-267 438v-438h-123v675h123l267 -438v438h123z" />
    <glyph glyph-name="O" unicode="O" horiz-adv-x="735" 
d="M367 675c46.667 0 90.5 -8.83301 131.5 -26.5s76.833 -41.834 107.5 -72.501s54.834 -66.5 72.501 -107.5s26.5 -84.833 26.5 -131.5s-8.83301 -90.5 -26.5 -131.5s-41.834 -76.667 -72.501 -107s-66.5 -54.333 -107.5 -72s-84.833 -26.5 -131.5 -26.5
s-90.5 8.83301 -131.5 26.5s-76.667 41.667 -107 72s-54.333 66 -72 107s-26.5 84.833 -26.5 131.5s8.83301 90.5 26.5 131.5s41.667 76.833 72 107.5s66 54.834 107 72.501s84.833 26.5 131.5 26.5zM367 123c29.333 0 57 5.66699 83 17s48.833 26.666 68.5 45.999
s35.167 42 46.5 68s17 53.667 17 83s-5.66699 57 -17 83s-26.833 48.833 -46.5 68.5s-42.5 35.167 -68.5 46.5s-53.667 17 -83 17s-57 -5.66699 -83 -17s-48.667 -26.833 -68 -46.5s-34.666 -42.5 -45.999 -68.5s-17 -53.667 -17 -83s5.66699 -57 17 -83
s26.666 -48.667 45.999 -68s42 -34.666 68 -45.999s53.667 -17 83 -17z" />
    <glyph glyph-name="P" unicode="P" horiz-adv-x="606" 
d="M310 675c36.667 0 71.167 -6.66309 103.5 -19.9961s60.5 -31.333 84.5 -54s43 -49.334 57 -80.001s21 -63.334 21 -98.001s-7 -67.334 -21 -98.001s-33 -57.334 -57 -80.001s-52.167 -40.5 -84.5 -53.5s-66.833 -19.5 -103.5 -19.5h-150v-172h-130v675h280zM310 295.004
c18.667 0 36.334 3.33008 53.001 9.99707s31.167 15.834 43.5 27.501s22 25.167 29 40.5s10.5 32 10.5 50s-3.5 34.833 -10.5 50.5s-16.667 29.334 -29 41.001s-26.833 20.834 -43.5 27.501s-34.334 10 -53.001 10h-150v-257h150z" />
    <glyph glyph-name="Q" unicode="Q" horiz-adv-x="762" 
d="M645 -43l-96.0039 96c-26.667 -16.667 -55.167 -29.667 -85.5 -39s-62.5 -14 -96.5 -14c-46.667 -0 -90.5 8.83301 -131.5 26.5s-76.667 41.667 -107 72s-54.333 66 -72 107s-26.5 84.833 -26.5 131.5s8.83301 90.5 26.5 131.5s41.667 76.833 72 107.5
s66 54.834 107 72.501s84.833 26.5 131.5 26.5s90.334 -8.83301 131.001 -26.5s76.334 -41.834 107.001 -72.501s54.834 -66.5 72.501 -107.5s26.5 -84.833 26.5 -131.5c0 -38 -5.66699 -73.833 -17 -107.5s-27.666 -64.5 -48.999 -92.5l94 -93zM366.996 123
c16.667 0 32.499 1.83105 47.499 5.49805s29.5 8.83398 43.5 15.501l-83 83l87 87l88 -88c20.667 33.333 31 70.333 31 111c0 29.333 -5.66699 57 -17 83s-26.666 48.833 -45.999 68.5s-42 35.167 -68 46.5s-53.667 17 -83 17s-57 -5.66699 -83 -17
s-48.667 -26.833 -68 -46.5s-34.666 -42.5 -45.999 -68.5s-17 -53.667 -17 -83s5.66699 -57 17 -83s26.666 -48.667 45.999 -68s42 -34.666 68 -45.999s53.667 -17 83 -17z" />
    <glyph glyph-name="R" unicode="R" horiz-adv-x="575" 
d="M545 423c0 -48.667 -12.667 -92.8301 -38 -132.497s-58.333 -69.834 -99 -90.501l137 -200h-149l-118 172h-125v-172h-123v675h264c34.667 0 67.167 -6.66699 97.5 -20s56.833 -31.333 79.5 -54s40.667 -49.334 54 -80.001s20 -63.334 20 -98.001zM422 423.004
c0 18 -3.33301 34.8301 -10 50.4971s-15.834 29.334 -27.501 41.001s-25.167 20.834 -40.5 27.501s-32 10 -50 10h-141v-257h141c18 0 34.667 3.33301 50 10s28.833 15.834 40.5 27.501s20.834 25.167 27.501 40.5s10 32 10 50z" />
    <glyph glyph-name="S" unicode="S" horiz-adv-x="550" 
d="M147 485c0 -14 4.83105 -26.3271 14.498 -36.9941s21.5 -19.834 35.5 -27.501s28.5 -13.5 43.5 -17.5s28.167 -6.66699 39.5 -8c26.667 -3.33301 54.334 -10 83.001 -20s54.5 -23.5 77.5 -40.5s42 -37.5 57 -61.5s22.5 -51.333 22.5 -82c0 -32 -7.5 -60 -22.5 -84
s-34.167 -43.833 -57.5 -59.5s-49.5 -27.5 -78.5 -35.5s-57.5 -12 -85.5 -12c-22.667 0 -45.667 2.33301 -69 7s-45.666 11.667 -66.999 21s-41.333 21.333 -60 36s-34.334 31.667 -47.001 51l117 43c13.333 -15.333 31.5 -25.833 54.5 -31.5s44.167 -8.5 63.5 -8.5
c8.66699 0 20.667 1.16699 36 3.5s30.333 6 45 11s27.334 11.833 38.001 20.5s16 19.334 16 32.001c0 15.333 -4.66699 28.666 -14 39.999s-20.833 20.666 -34.5 27.999s-28.334 13.166 -44.001 17.499s-29.5 7.16602 -41.5 8.49902c-27.333 3.33301 -55 10 -83 20
s-53.667 23.5 -77 40.5s-42.333 37.5 -57 61.5s-22 51.667 -22 83c0 32 7.5 59.833 22.5 83.5s34.167 43.5 57.5 59.5s49.5 27.833 78.5 35.5s57.5 11.5 85.5 11.5c22.667 0 46 -2.33301 70 -7s46.833 -11.834 68.5 -21.501s41.834 -22 60.501 -37s34 -32.833 46 -53.5
l-115 -42c-6.66699 8.66699 -14.834 15.667 -24.501 21s-20 9.66602 -31 12.999s-22.333 5.66602 -34 6.99902s-22.5 2 -32.5 2c-10.667 0 -23.667 -1 -39 -3s-30.166 -5.66699 -44.499 -11s-26.5 -12.666 -36.5 -21.999s-15 -21 -15 -35z" />
    <glyph glyph-name="T" unicode="T" horiz-adv-x="573" 
d="M543 552h-195v-552h-123v552h-195v123h513v-123z" />
    <glyph glyph-name="U" unicode="U" horiz-adv-x="575" 
d="M545 675l-0.00390625 -417c0 -35.333 -6.66699 -68.666 -20 -99.999s-31.666 -58.666 -54.999 -81.999s-50.666 -41.833 -81.999 -55.5s-65 -20.5 -101 -20.5c-35.333 0 -68.666 6.83301 -99.999 20.5s-58.666 32.167 -81.999 55.5s-41.666 50.666 -54.999 81.999
s-20 64.666 -20 99.999v417h123v-417c0 -18.667 3.5 -36.167 10.5 -52.5s16.5 -30.666 28.5 -42.999s26.167 -22 42.5 -29s33.833 -10.5 52.5 -10.5s36.167 3.5 52.5 10.5s30.666 16.667 42.999 29s22 26.666 29 42.999s10.5 33.833 10.5 52.5v417h123z" />
    <glyph glyph-name="V" unicode="V" horiz-adv-x="683" 
d="M30 675h131l181 -497l180 497h131l-247 -675h-129z" />
    <glyph glyph-name="W" unicode="W" horiz-adv-x="995" 
d="M30 675h131l181 -497l90 248h131l90 -248l181 497h131l-247 -675h-131l-90 246l-91 -246h-129z" />
    <glyph glyph-name="X" unicode="X" horiz-adv-x="630" 
d="M387 337l213 -337h-145l-140 222l-140 -222h-145l212 337l-212 338h145l140 -223l140 223h145z" />
    <glyph glyph-name="Y" unicode="Y" horiz-adv-x="645" 
d="M466 675h149l-231 -358v-316h-123v316l-231 358h149l144 -223z" />
    <glyph glyph-name="Z" unicode="Z" horiz-adv-x="574" 
d="M544 552l-357 -428h357v-123h-514v123l355 428h-355v123h514v-123z" />
    <glyph glyph-name="bracketleft" unicode="[" horiz-adv-x="290" 
d="M151 587v-556h109v-121h-230v798h230v-121h-109z" />
    <glyph glyph-name="backslash" unicode="\" horiz-adv-x="481" 
d="M161 728l290 -798h-131l-290 798h131z" />
    <glyph glyph-name="bracketright" unicode="]" horiz-adv-x="290" 
d="M260 708v-798h-230v121h109v556h-109v121h230z" />
    <glyph glyph-name="asciicircum" unicode="^" horiz-adv-x="441" 
d="M30 436l141 239h98l142 -239h-143l-48 80l-47 -80h-143z" />
    <glyph glyph-name="underscore" unicode="_" horiz-adv-x="497" 
d="M30 0v110h437v-110h-437z" />
    <glyph glyph-name="grave" unicode="`" horiz-adv-x="253" 
d="M223 701h-102l-91 147h102z" />
    <glyph glyph-name="a" unicode="a" 
d="M495 465v-464.999h-123v27c-16.667 -8.66699 -34.167 -15.334 -52.5 -20.001s-37.5 -7 -57.5 -7c-32 0 -62.167 6 -90.5 18s-53 28.5 -74 49.5s-37.5 45.667 -49.5 74s-18 58.5 -18 90.5s6 62.167 18 90.5s28.5 53 49.5 74s45.667 37.667 74 50s58.5 18.5 90.5 18.5
c39.333 0 76 -9.33301 110 -28v28h123zM262 123.001c15.333 0 29.666 2.83301 42.999 8.5s25 13.5 35 23.5s17.833 21.5 23.5 34.5s8.5 27.167 8.5 42.5s-2.83301 29.666 -8.5 42.999s-13.5 25 -23.5 35s-21.667 17.833 -35 23.5s-27.666 8.5 -42.999 8.5
s-29.5 -2.83301 -42.5 -8.5s-24.5 -13.5 -34.5 -23.5s-17.833 -21.667 -23.5 -35s-8.5 -27.666 -8.5 -42.999s2.83301 -29.5 8.5 -42.5s13.5 -24.5 23.5 -34.5s21.5 -17.833 34.5 -23.5s27.167 -8.5 42.5 -8.5z" />
    <glyph glyph-name="b" unicode="b" 
d="M262 465c32 0 62.166 -6.16797 90.499 -18.501s53 -29 74 -50s37.667 -45.667 50 -74s18.5 -58.5 18.5 -90.5s-6.16699 -62.167 -18.5 -90.5s-29 -53 -50 -74s-45.667 -37.5 -74 -49.5s-58.5 -18 -90.5 -18c-19.333 0 -38.166 2.33301 -56.499 7
s-35.833 11.334 -52.5 20.001v-27h-123v675h123v-238c34 18.667 70.333 28 109 28zM261.999 122.999c15.333 0 29.666 2.83301 42.999 8.5s25 13.5 35 23.5s17.833 21.5 23.5 34.5s8.5 27.167 8.5 42.5s-2.83301 29.666 -8.5 42.999s-13.5 25 -23.5 35
s-21.667 17.833 -35 23.5s-27.666 8.5 -42.999 8.5s-29.5 -2.83301 -42.5 -8.5s-24.5 -13.5 -34.5 -23.5s-17.833 -21.667 -23.5 -35s-8.5 -27.666 -8.5 -42.999s2.83301 -29.5 8.5 -42.5s13.5 -24.5 23.5 -34.5s21.5 -17.833 34.5 -23.5s27.167 -8.5 42.5 -8.5z" />
    <glyph glyph-name="c" unicode="c" horiz-adv-x="457" 
d="M262 465c30.667 0 60.5 -6 89.5 -18s54.167 -28.667 75.5 -50l-87 -87c-10.667 10 -22.667 17.833 -36 23.5s-27.333 8.5 -42 8.5c-15.333 0 -29.666 -3 -42.999 -9s-24.833 -14 -34.5 -24s-17.334 -21.667 -23.001 -35s-8.5 -27.333 -8.5 -42
c0 -15.333 2.83301 -29.5 8.5 -42.5s13.5 -24.5 23.5 -34.5s21.5 -17.833 34.5 -23.5s27.167 -8.5 42.5 -8.5c30.667 0 56.667 10.667 78 32l87 -87c-21.333 -21.333 -46.5 -38 -75.5 -50s-58.833 -18 -89.5 -18c-32 0 -62.167 6 -90.5 18s-53 28.5 -74 49.5
s-37.5 45.667 -49.5 74s-18 58.5 -18 90.5s6 62.167 18 90.5s28.5 53 49.5 74s45.667 37.667 74 50s58.5 18.5 90.5 18.5z" />
    <glyph glyph-name="d" unicode="d" 
d="M495 675v-674.999h-123v27c-16.667 -8.66699 -34.167 -15.334 -52.5 -20.001s-37.5 -7 -57.5 -7c-32 0 -62.167 6 -90.5 18s-53 28.5 -74 49.5s-37.5 45.667 -49.5 74s-18 58.5 -18 90.5s6 62.167 18 90.5s28.5 53 49.5 74s45.667 37.667 74 50s58.5 18.5 90.5 18.5
c39.333 0 76 -9.33301 110 -28v238h123zM262 123.001c15.333 0 29.666 2.83301 42.999 8.5s25 13.5 35 23.5s17.833 21.5 23.5 34.5s8.5 27.167 8.5 42.5s-2.83301 29.666 -8.5 42.999s-13.5 25 -23.5 35s-21.667 17.833 -35 23.5s-27.666 8.5 -42.999 8.5
s-29.5 -2.83301 -42.5 -8.5s-24.5 -13.5 -34.5 -23.5s-17.833 -21.667 -23.5 -35s-8.5 -27.666 -8.5 -42.999s2.83301 -29.5 8.5 -42.5s13.5 -24.5 23.5 -34.5s21.5 -17.833 34.5 -23.5s27.167 -8.5 42.5 -8.5z" />
    <glyph glyph-name="e" unicode="e" horiz-adv-x="524" 
d="M262 465c32 0 62 -6.33203 90 -18.999s52.5 -29.5 73.5 -50.5s37.667 -45.667 50 -74s18.5 -57.833 18.5 -88.5c0 -20.667 -3 -41 -9 -61h-313c9.33301 -14.667 21.833 -26.334 37.5 -35.001s33.167 -13 52.5 -13c15.333 0 29.5 2.83301 42.5 8.5s24.5 13.5 34.5 23.5
l87 -87c-21.333 -21.333 -46 -38 -74 -50s-58 -18 -90 -18s-62.167 6 -90.5 18s-53 28.5 -74 49.5s-37.5 45.667 -49.5 74s-18 58.5 -18 90.5s6 62 18 90s28.5 52.5 49.5 73.5s45.667 37.667 74 50s58.5 18.5 90.5 18.5zM262 342.001c-19.333 0 -36.833 -4.33301 -52.5 -13
s-28.167 -20.334 -37.5 -35.001h180c-9.33301 14.667 -22 26.334 -38 35.001s-33.333 13 -52 13z" />
    <glyph glyph-name="f" unicode="f" horiz-adv-x="401" 
d="M371 552c-30 0 -55.667 -11.6699 -77 -35.0029s-32 -56.666 -32 -99.999h109v-123h-109v-294h-123v294h-109v123h109c0 38.667 6 73.834 18 105.501s28.5 58.834 49.5 81.501s45.667 40.167 74 52.5s58.5 18.5 90.5 18.5v-123v0z" />
    <glyph glyph-name="g" unicode="g" horiz-adv-x="524" 
d="M494 465v-550.998c0 -32 -6.16699 -62.167 -18.5 -90.5s-29 -53 -50 -74s-45.5 -37.5 -73.5 -49.5s-58 -18 -90 -18s-62.167 6 -90.5 18s-53 28.5 -74 49.5s-37.5 45.667 -49.5 74s-18 58.5 -18 90.5h123c0 -15.333 2.83301 -29.5 8.5 -42.5s13.5 -24.5 23.5 -34.5
s21.5 -17.833 34.5 -23.5s27.167 -8.5 42.5 -8.5c14.667 0 28.667 2.83301 42 8.5s25 13.5 35 23.5s17.833 21.5 23.5 34.5s8.5 27.167 8.5 42.5v114c-16 -8.66699 -33.167 -15.334 -51.5 -20.001s-37.5 -7 -57.5 -7c-32 0 -62.167 6 -90.5 18s-53 28.5 -74 49.5
s-37.5 45.667 -49.5 74s-18 58.5 -18 90.5s6 62 18 90s28.5 52.5 49.5 73.5s45.667 37.667 74 50s58.5 18.5 90.5 18.5c20 0 39.167 -2.33301 57.5 -7s35.5 -11.334 51.5 -20.001v27h123zM262 124.002c14.667 0 28.667 2.83301 42 8.5s25 13.5 35 23.5
s17.833 21.5 23.5 34.5s8.5 27.167 8.5 42.5c0 14.667 -2.83301 28.667 -8.5 42s-13.5 25 -23.5 35s-21.667 17.833 -35 23.5s-27.333 8.5 -42 8.5c-15.333 0 -29.5 -2.83301 -42.5 -8.5s-24.5 -13.5 -34.5 -23.5s-17.833 -21.667 -23.5 -35s-8.5 -27.333 -8.5 -42
c0 -15.333 2.83301 -29.5 8.5 -42.5s13.5 -24.5 23.5 -34.5s21.5 -17.833 34.5 -23.5s27.167 -8.5 42.5 -8.5z" />
    <glyph glyph-name="h" unicode="h" 
d="M262 465c32 0 62.166 -6.16699 90.499 -18.5s53 -29 74 -50s37.667 -45.667 50 -74s18.5 -58.5 18.5 -90.5v-232h-123v232c0 15.333 -2.83301 29.666 -8.5 42.999s-13.5 25 -23.5 35s-21.667 17.833 -35 23.5s-27.666 8.5 -42.999 8.5s-29.5 -2.83301 -42.5 -8.5
s-24.5 -13.5 -34.5 -23.5s-17.833 -21.667 -23.5 -35s-8.5 -27.666 -8.5 -42.999v-232h-123v675h123v-238c34 18.667 70.333 28 109 28z" />
    <glyph glyph-name="i" unicode="i" horiz-adv-x="183" 
d="M153 0h-123v465h123v-465zM153 559c0 -17.333 -6 -32 -18 -44s-26.667 -18 -44 -18s-31.833 6 -43.5 18s-17.5 26.667 -17.5 44s5.83301 31.833 17.5 43.5s26.167 17.5 43.5 17.5s32 -5.83301 44 -17.5s18 -26.167 18 -43.5z" />
    <glyph glyph-name="j" unicode="j" horiz-adv-x="524" 
d="M372 466h122.001v-552c0 -32 -6.16699 -62.167 -18.5 -90.5s-29 -53 -50 -74s-45.5 -37.5 -73.5 -49.5s-58 -18 -90 -18s-62.167 6 -90.5 18s-53 28.5 -74 49.5s-37.5 45.667 -49.5 74s-18 58.5 -18 90.5h123c0 -15.333 2.83301 -29.5 8.5 -42.5s13.5 -24.5 23.5 -34.5
s21.5 -17.833 34.5 -23.5s27.167 -8.5 42.5 -8.5s29.666 2.83301 42.999 8.5s25 13.5 35 23.5s17.833 21.5 23.5 34.5s8.5 27.167 8.5 42.5v552zM433.001 497c-17.333 0 -31.833 5.83301 -43.5 17.5s-17.5 26.167 -17.5 43.5s5.83301 32 17.5 44s26.167 18 43.5 18
s31.833 -6 43.5 -18s17.5 -26.667 17.5 -44s-5.83301 -31.833 -17.5 -43.5s-26.167 -17.5 -43.5 -17.5z" />
    <glyph glyph-name="k" unicode="k" horiz-adv-x="516" 
d="M189 198l-36 -36v-162h-123v675h123v-339l130 130h174l-180 -180l209 -286h-152z" />
    <glyph glyph-name="l" unicode="l" horiz-adv-x="183" 
d="M153 0h-123v675h123v-675z" />
    <glyph glyph-name="m" unicode="m" horiz-adv-x="766" 
d="M530 465c28.667 0 55.665 -5.49902 80.998 -16.499s47.333 -26 66 -45s33.5 -41 44.5 -66s16.5 -51.833 16.5 -80.5v-257h-123v257c0 11.333 -2.16699 22.166 -6.5 32.499s-10.333 19.333 -18 27s-16.667 13.667 -27 18s-21.5 6.5 -33.5 6.5s-23 -2.16699 -33 -6.5
s-18.833 -10.333 -26.5 -18s-13.667 -16.667 -18 -27s-6.5 -21.166 -6.5 -32.499v-257h-124v257c0 23.333 -8.16699 43.166 -24.5 59.499s-36.166 24.5 -59.499 24.5c-12 0 -23.167 -2.16699 -33.5 -6.5s-19.333 -10.333 -27 -18s-13.667 -16.667 -18 -27
s-6.5 -21.166 -6.5 -32.499v-257h-123v465h123v-18c13.333 5.33301 27 9.66602 41 12.999s28.667 5 44 5c28.667 0 55.334 -5.33301 80.001 -16s46.667 -25.667 66 -45c18.667 19.333 40.5 34.333 65.5 45s51.833 16 80.5 16z" />
    <glyph glyph-name="n" unicode="n" horiz-adv-x="524" 
d="M262 464c32 0 62 -6.16797 90 -18.501s52.5 -29 73.5 -50s37.667 -45.5 50 -73.5s18.5 -58 18.5 -90v-232h-123v232c0 14.667 -2.83301 28.667 -8.5 42s-13.5 25 -23.5 35s-21.667 17.833 -35 23.5s-27.333 8.5 -42 8.5c-15.333 0 -29.5 -2.83301 -42.5 -8.5
s-24.5 -13.5 -34.5 -23.5s-17.833 -21.667 -23.5 -35s-8.5 -27.333 -8.5 -42v-232h-123v463h123v-26c16 8.66699 33.333 15.334 52 20.001s37.667 7 57 7z" />
    <glyph glyph-name="o" unicode="o" 
d="M262 465c32 0 62.167 -6.16699 90.5 -18.5s53 -29 74 -50s37.667 -45.667 50 -74s18.5 -58.5 18.5 -90.5s-6.16699 -62.167 -18.5 -90.5s-29 -53 -50 -74s-45.667 -37.5 -74 -49.5s-58.5 -18 -90.5 -18s-62.167 6 -90.5 18s-53 28.5 -74 49.5s-37.5 45.667 -49.5 74
s-18 58.5 -18 90.5s6 62.167 18 90.5s28.5 53 49.5 74s45.667 37.667 74 50s58.5 18.5 90.5 18.5zM262 123c15.333 0 29.666 2.83301 42.999 8.5s25 13.5 35 23.5s17.833 21.5 23.5 34.5s8.5 27.167 8.5 42.5s-2.83301 29.666 -8.5 42.999s-13.5 25 -23.5 35
s-21.667 17.833 -35 23.5s-27.666 8.5 -42.999 8.5s-29.5 -2.83301 -42.5 -8.5s-24.5 -13.5 -34.5 -23.5s-17.833 -21.667 -23.5 -35s-8.5 -27.666 -8.5 -42.999s2.83301 -29.5 8.5 -42.5s13.5 -24.5 23.5 -34.5s21.5 -17.833 34.5 -23.5s27.167 -8.5 42.5 -8.5z" />
    <glyph glyph-name="p" unicode="p" horiz-adv-x="552" 
d="M276 465c34 0 65.998 -6.16797 95.998 -18.501s56 -29 78 -50s39.5 -45.667 52.5 -74s19.5 -58.5 19.5 -90.5s-6.5 -62.167 -19.5 -90.5s-30.5 -53 -52.5 -74s-48 -37.5 -78 -49.5s-62 -18 -96 -18c-21.333 0 -41.666 2.33301 -60.999 7s-37.666 11.334 -54.999 20.001
v-237h-130v675h130v-28c36 18.667 74.667 28 116 28zM275.998 122.999c16 0 31 2.83301 45 8.5s26.333 13.5 37 23.5s19 21.5 25 34.5s9 27.167 9 42.5s-3 29.666 -9 42.999s-14.333 25 -25 35s-23 17.833 -37 23.5s-29 8.5 -45 8.5s-31 -2.83301 -45 -8.5
s-26.333 -13.5 -37 -23.5s-19 -21.667 -25 -35s-9 -27.666 -9 -42.999s3 -29.5 9 -42.5s14.333 -24.5 25 -34.5s23 -17.833 37 -23.5s29 -8.5 45 -8.5z" />
    <glyph glyph-name="q" unicode="q" 
d="M495 465v-674.999h-123v237c-16.667 -8.66699 -34.167 -15.334 -52.5 -20.001s-37.5 -7 -57.5 -7c-32 0 -62.167 6 -90.5 18s-53 28.5 -74 49.5s-37.5 45.667 -49.5 74s-18 58.5 -18 90.5s6 62.167 18 90.5s28.5 53 49.5 74s45.667 37.667 74 50s58.5 18.5 90.5 18.5
c39.333 0 76 -9.33301 110 -28v28h123zM262 123.001c15.333 0 29.666 2.83301 42.999 8.5s25 13.5 35 23.5s17.833 21.5 23.5 34.5s8.5 27.167 8.5 42.5s-2.83301 29.666 -8.5 42.999s-13.5 25 -23.5 35s-21.667 17.833 -35 23.5s-27.666 8.5 -42.999 8.5
s-29.5 -2.83301 -42.5 -8.5s-24.5 -13.5 -34.5 -23.5s-17.833 -21.667 -23.5 -35s-8.5 -27.666 -8.5 -42.999s2.83301 -29.5 8.5 -42.5s13.5 -24.5 23.5 -34.5s21.5 -17.833 34.5 -23.5s27.167 -8.5 42.5 -8.5z" />
    <glyph glyph-name="r" unicode="r" horiz-adv-x="458" 
d="M263 465c32 0 62.167 -6.16797 90.5 -18.501s53.166 -29.166 74.499 -50.499l-88 -87c-20 21.333 -45.667 32 -77 32c-15.333 0 -29.666 -2.83301 -42.999 -8.5s-25 -13.5 -35 -23.5s-17.833 -21.667 -23.5 -35s-8.5 -27.333 -8.5 -42v-232h-123v465h123v-28
c34 18.667 70.667 28 110 28z" />
    <glyph glyph-name="s" unicode="s" horiz-adv-x="430" 
d="M154 327c0 -5.33301 3.00293 -9.99805 9.00293 -13.998s13 -7.33301 21 -10s15.833 -4.66699 23.5 -6s13.167 -2.33301 16.5 -3c19.333 -3.33301 39.333 -9.16602 60 -17.499s39.5 -19.166 56.5 -32.499s31 -29 42 -47s16.5 -38.333 16.5 -61
c0 -23.333 -5.66699 -43.5 -17 -60.5s-25.666 -31 -42.999 -42s-36.5 -19.333 -57.5 -25s-41.5 -8.5 -61.5 -8.5c-34.667 0 -69.167 7 -103.5 21s-62.166 35.333 -83.499 64l98 73c4.66699 -7.33301 11.167 -13.333 19.5 -18s17.166 -8.33398 26.499 -11.001
s18.833 -4.66699 28.5 -6s18.5 -2 26.5 -2c2.66699 0 6.33398 0.166992 11.001 0.5s9.5 1.16602 14.5 2.49902s9.33301 3.16602 13 5.49902s5.5 5.5 5.5 9.5c0 5.33301 -3 10 -9 14s-13 7.33301 -21 10s-15.833 4.66699 -23.5 6s-13.167 2.33301 -16.5 3
c-19.333 3.33301 -39.333 9.16602 -60 17.499s-39.5 19.166 -56.5 32.499s-31 29 -42 47s-16.5 38.333 -16.5 61s5.66699 42.667 17 60s25.666 31.5 42.999 42.5s36.5 19.333 57.5 25s41.5 8.5 61.5 8.5c34.667 0 69.167 -7 103.5 -21s62.166 -35.333 83.499 -64l-98 -74
c-10.667 14.667 -26.167 24.5 -46.5 29.5s-38.833 7.5 -55.5 7.5c-2.66699 0 -6.33398 -0.166992 -11.001 -0.5s-9.33398 -1.16602 -14.001 -2.49902s-8.83398 -3 -12.501 -5s-5.5 -5 -5.5 -9z" />
    <glyph glyph-name="t" unicode="t" horiz-adv-x="401" 
d="M262 232c0 -15.333 2.83301 -29.5 8.5 -42.5s13.5 -24.5 23.5 -34.5s21.5 -17.833 34.5 -23.5s27.167 -8.5 42.5 -8.5v-123c-32 0 -62.167 6 -90.5 18s-53 28.5 -74 49.5s-37.5 45.667 -49.5 74s-18 58.5 -18 90.5v161h-109v122h109v160h123v-160h109v-122h-109v-161v0z
" />
    <glyph glyph-name="u" unicode="u" 
d="M495 465l0.000976562 -465h-123v28c-34 -18.667 -70.667 -28 -110 -28c-32 0 -62.167 6.16699 -90.5 18.5s-53 29 -74 50s-37.5 45.667 -49.5 74s-18 58.5 -18 90.5v232h123v-232c0 -15.333 2.83301 -29.666 8.5 -42.999s13.5 -25 23.5 -35s21.5 -17.833 34.5 -23.5
s27.167 -8.5 42.5 -8.5s29.666 2.83301 42.999 8.5s25 13.5 35 23.5s17.833 21.667 23.5 35s8.5 27.666 8.5 42.999v232h123z" />
    <glyph glyph-name="v" unicode="v" 
d="M495 465l-171 -465h-123l-171 465h123l109 -298l110 298h123z" />
    <glyph glyph-name="w" unicode="w" horiz-adv-x="866" 
d="M836 465l-170 -465h-123l-110 297l-109 -297h-123l-171 465h123l109 -298l110 298h123l109 -298l109 298h123z" />
    <glyph glyph-name="x" unicode="x" horiz-adv-x="515" 
d="M331 232l154 -232h-148l-80 120l-79 -120h-148l153 232l-153 233h148l79 -121l80 121h148z" />
    <glyph glyph-name="y" unicode="y" horiz-adv-x="523" 
d="M493 464l-0.000976562 -549c0 -32 -6.16699 -62.167 -18.5 -90.5s-29 -53 -50 -74s-45.5 -37.5 -73.5 -49.5s-58 -18 -90 -18s-62 6 -90 18s-52.5 28.5 -73.5 49.5s-37.5 45.667 -49.5 74s-18 58.5 -18 90.5h122c0 -15.333 2.83301 -29.5 8.5 -42.5
s13.5 -24.5 23.5 -34.5s21.5 -17.833 34.5 -23.5s27.167 -8.5 42.5 -8.5c14.667 0 28.667 2.83301 42 8.5s25 13.5 35 23.5s17.833 21.5 23.5 34.5s8.5 27.167 8.5 42.5v114c-33.333 -18.667 -69.666 -28 -108.999 -28c-32 0 -62 6 -90 18s-52.5 28.5 -73.5 49.5
s-37.5 45.667 -49.5 74s-18 58.5 -18 90.5v231h122v-231c0 -15.333 2.83301 -29.5 8.5 -42.5s13.5 -24.5 23.5 -34.5s21.5 -17.833 34.5 -23.5s27.167 -8.5 42.5 -8.5c14.667 0 28.667 2.83301 42 8.5s25 13.5 35 23.5s17.833 21.5 23.5 34.5s8.5 27.167 8.5 42.5v231h123z
" />
    <glyph glyph-name="z" unicode="z" horiz-adv-x="485" 
d="M455 343l-245 -220h242v-122h-422v122l245 220h-241v122h421v-122z" />
    <glyph glyph-name="braceleft" unicode="{" horiz-adv-x="399" 
d="M260 478c0 -34 -6.83301 -65.334 -20.5 -94.001s-32.167 -53.667 -55.5 -75c23.333 -21.333 41.833 -46.333 55.5 -75s20.5 -60 20.5 -94c0 -15.333 2.83301 -29.666 8.5 -42.999s13.334 -25 23.001 -35s21.167 -17.833 34.5 -23.5s27.666 -8.5 42.999 -8.5v-120
c-32 0 -61.833 6 -89.5 18s-52 28.5 -73 49.5s-37.5 45.333 -49.5 73s-18 57.5 -18 89.5c0 30 -10.167 55.167 -30.5 75.5s-46.5 31.5 -78.5 33.5v120c14.667 0 28.667 2.83301 42 8.5s25 13.5 35 23.5s17.833 21.5 23.5 34.5s8.5 27.167 8.5 42.5c0 32 6 61.833 18 89.5
s28.5 52 49.5 73s45.333 37.5 73 49.5s57.5 18 89.5 18v-121c-15.333 0 -29.666 -2.83301 -42.999 -8.5s-24.833 -13.5 -34.5 -23.5s-17.334 -21.667 -23.001 -35s-8.5 -27.333 -8.5 -42z" />
    <glyph glyph-name="bar" unicode="|" horiz-adv-x="183" 
d="M153 728v-798h-123v798h123z" />
    <glyph glyph-name="braceright" unicode="}" horiz-adv-x="399" 
d="M369 249c-15.333 0 -29.666 -2.83203 -42.999 -8.49902s-24.833 -13.5 -34.5 -23.5s-17.334 -21.667 -23.001 -35s-8.5 -27.333 -8.5 -42c0 -32 -6 -61.833 -18 -89.5s-28.5 -52 -49.5 -73s-45.333 -37.5 -73 -49.5s-57.5 -18 -89.5 -18v120
c14.667 0 28.667 2.83301 42 8.5s25 13.5 35 23.5s17.833 21.667 23.5 35s8.5 27.666 8.5 42.999c0 34 6.66699 65.333 20 94s31.666 53.667 54.999 75c-23.333 21.333 -41.666 46.333 -54.999 75s-20 60 -20 94c0 14.667 -2.83301 28.667 -8.5 42s-13.5 25 -23.5 35
s-21.667 17.833 -35 23.5s-27.333 8.5 -42 8.5v121c32 0 61.833 -6 89.5 -18s52 -28.5 73 -49.5s37.5 -45.333 49.5 -73s18 -57.5 18 -89.5c0 -15.333 2.83301 -29.5 8.5 -42.5s13.334 -24.5 23.001 -34.5s21.167 -17.833 34.5 -23.5s27.666 -8.5 42.999 -8.5v-120z" />
    <glyph glyph-name="asciitilde" unicode="~" horiz-adv-x="608" 
d="M225 296c-18 0 -34.833 -4.66699 -50.5 -14s-27.834 -22 -36.501 -38l-108 60c19.333 36 46.666 64.167 81.999 84.5s73.333 30.5 114 30.5c18 0 34.167 -2.16699 48.5 -6.5s27.5 -9 39.5 -14l34.5 -14c11 -4.33301 22.167 -6.5 33.5 -6.5c18 0 34.833 4.83301 50.5 14.5
s28.167 22.167 37.5 37.5l108 -60c-19.333 -36 -46.666 -64.167 -81.999 -84.5s-73.333 -30.5 -114 -30.5c-18 0 -34.167 2.16699 -48.5 6.5s-27.666 9 -39.999 14l-35 14c-11 4.33301 -22.167 6.5 -33.5 6.5z" />
    <glyph glyph-name="exclamdown" unicode="&#xa1;" horiz-adv-x="183" 
d="M30 612c0 17.333 6 32 18 44s26.667 18 44 18s31.833 -6 43.5 -18s17.5 -26.667 17.5 -44s-5.83301 -31.833 -17.5 -43.5s-26.167 -17.5 -43.5 -17.5s-32 5.83301 -44 17.5s-18 26.167 -18 43.5zM36 495h111v-496h-111v496z" />
    <glyph glyph-name="cent" unicode="&#xa2;" horiz-adv-x="451" 
d="M421 73c-15.333 -15.333 -33 -28.501 -53 -39.501s-41.667 -18.833 -65 -23.5v-42h-98v45c-25.333 6 -48.666 15.833 -69.999 29.5s-39.833 30.334 -55.5 50.001s-27.834 41.5 -36.501 65.5s-13 49.667 -13 77c0 26.667 4.33301 52.334 13 77.001
s20.834 46.667 36.501 66s34.167 36 55.5 50s44.666 24 69.999 30v44h98v-42c23.333 -4 45 -11.5 65 -22.5s37.667 -24.5 53 -40.5l-69 -69c-14 13.333 -30.333 23.666 -49 30.999v-247c9.33301 3.33301 18 7.5 26 12.5s15.667 11.167 23 18.5zM128 234.999
c0 -26.667 7.16699 -50.5 21.5 -71.5s32.833 -36.833 55.5 -47.5v239c-22.667 -10.667 -41.167 -26.667 -55.5 -48s-21.5 -45.333 -21.5 -72z" />
    <glyph glyph-name="sterling" unicode="&#xa3;" horiz-adv-x="607" 
d="M235 131c16 -1.33301 30.667 -4.16699 44 -8.5s26 -8.83301 38 -13.5l34 -13c10.667 -4 21 -6 31 -6c18 0 34.833 4.66699 50.5 14s27.834 22 36.501 38l108 -60c-20 -36 -47.333 -64.167 -82 -84.5s-72.667 -30.5 -114 -30.5c-18.667 0 -35.167 2.16699 -49.5 6.5
s-27.5 9 -39.5 14l-34 14c-10.667 4.33301 -22 6.5 -34 6.5c-18 0 -34.833 -4.66699 -50.5 -14s-27.834 -22 -36.501 -38l-107 60c19.333 35.333 46.333 63.333 81 84v341c0 32 6.16699 62.167 18.5 90.5s29 53 50 74s45.667 37.667 74 50s58.5 18.5 90.5 18.5
s62.167 -6.16699 90.5 -18.5s53 -29 74 -50s37.667 -45.667 50 -74s18.5 -58.5 18.5 -90.5h-123c0 15.333 -3 29.666 -9 42.999s-14 24.833 -24 34.5s-21.667 17.334 -35 23.001s-27.333 8.5 -42 8.5c-15.333 0 -29.5 -2.83301 -42.5 -8.5s-24.5 -13.5 -34.5 -23.5
s-17.833 -21.667 -23.5 -35s-8.5 -27.333 -8.5 -42v-87h147v-124h-147v-99v0z" />
    <glyph glyph-name="currency" unicode="&#xa4;" horiz-adv-x="387" 
d="M294 225l16 -14.5c5.33301 -5 10.333 -10.5 15 -16.5l-55 -41c-8.66699 11.333 -19.667 20.5 -33 27.5s-27.666 10.5 -42.999 10.5s-29.666 -3.5 -42.999 -10.5s-24.333 -16.167 -33 -27.5l-55 41c4.66699 6 9.66699 11.5 15 16.5l16 14.5
c-19.333 15.333 -34.833 34.166 -46.5 56.499s-17.5 46.833 -17.5 73.5c0 26 5.83301 50.167 17.5 72.5s27.167 41.166 46.5 56.499c-12 10 -22.333 20.667 -31 32l55 41c8.66699 -12 19.667 -21.5 33 -28.5s27.666 -10.5 42.999 -10.5s29.666 3.5 42.999 10.5
s24.333 16.5 33 28.5l55 -41c-8.66699 -11.333 -19 -22 -31 -32c19.333 -15.333 34.666 -34.166 45.999 -56.499s17 -46.5 17 -72.5c0 -26.667 -5.66699 -51.167 -17 -73.5s-26.666 -41.166 -45.999 -56.499zM194 259c26.667 0 49.167 9.33301 67.5 28
s27.5 41.334 27.5 68.001c0 12.667 -2.5 24.834 -7.5 36.501s-11.667 21.834 -20 30.501s-18.333 15.5 -30 20.5s-24.167 7.5 -37.5 7.5s-25.833 -2.5 -37.5 -7.5s-21.667 -11.833 -30 -20.5s-15 -18.834 -20 -30.501s-7.5 -23.834 -7.5 -36.501
c0 -26.667 9.16699 -49.334 27.5 -68.001s40.833 -28 67.5 -28z" />
    <glyph glyph-name="yen" unicode="&#xa5;" horiz-adv-x="645" 
d="M433 393h64v-110h-113v-69h113v-110h-113v-103h-123v103h-113v110h113v69h-113v110h64l-182 282h149l144 -223l143 223h149z" />
    <glyph glyph-name="brokenbar" unicode="&#xa6;" horiz-adv-x="169" 
d="M139 389h-109v238h109v-238zM139 56h-109v237h109v-237z" />
    <glyph glyph-name="section" unicode="&#xa7;" horiz-adv-x="480" 
d="M130 527c0 -12 4.33984 -22.5 13.0068 -31.5s19 -16.5 31 -22.5s24.5 -10.667 37.5 -14s24.167 -5.33301 33.5 -6c28 -2.66699 55.167 -8.66699 81.5 -18s50.166 -23.333 71.499 -42c15.333 -13.333 27.833 -28.5 37.5 -45.5s14.5 -35.833 14.5 -56.5
c0 -25.333 -7.33301 -49 -22 -71c14.667 -20.667 22 -43.667 22 -69c0 -26.667 -6.83301 -49.5 -20.5 -68.5s-30.834 -34.667 -51.501 -47s-43.334 -21.333 -68.001 -27s-48 -8.5 -70 -8.5c-18.667 -0 -38 1.83301 -58 5.5s-39.167 9.16699 -57.5 16.5
s-35.5 16.666 -51.5 27.999s-29.667 25 -41 41l101 34c14.667 -11.333 31.834 -19.666 51.501 -24.999s38.5 -8 56.5 -8c6.66699 0 16.167 1 28.5 3s24.5 5.16699 36.5 9.5s22.333 10 31 17s13 15.5 13 25.5c0 12 -4.16699 22.5 -12.5 31.5s-18.5 16.5 -30.5 22.5
s-24.667 10.667 -38 14s-24.666 5.66602 -33.999 6.99902c-28.667 3.33301 -55.834 9.33301 -81.501 18s-49.5 22.334 -71.5 41.001c-15.333 12.667 -27.833 28 -37.5 46s-14.5 37 -14.5 57c0 26 7.33301 49.333 22 70c-6.66699 10.667 -12 21.834 -16 33.501
s-6 23.834 -6 36.501c0 26 6.66699 48.5 20 67.5s30.166 34.667 50.499 47s42.666 21.333 66.999 27s47.5 8.5 69.5 8.5c19.333 0 39.166 -1.83301 59.499 -5.5s40 -9.33398 59 -17.001s36.667 -17.5 53 -29.5s30.166 -26.333 41.499 -43l-99 -33
c-15.333 13.333 -33 22.666 -53 27.999s-40 8 -60 8c-7.33301 0 -17 -1 -29 -3s-23.833 -5.16699 -35.5 -9.5s-21.834 -10 -30.501 -17s-13 -15.5 -13 -25.5zM130.007 383c0 -11.333 4.49902 -20.999 13.499 -28.999s19.667 -14.833 32 -20.5s25 -10.167 38 -13.5
s23.5 -5.33301 31.5 -6c18 -2 35.833 -5.33301 53.5 -10s34.834 -10.667 51.501 -18v5c0 11.333 -4.5 21.166 -13.5 29.499s-19.667 15.333 -32 21s-25 10.167 -38 13.5s-23.5 5.33301 -31.5 6c-18.667 2 -36.5 5.16699 -53.5 9.5s-34.167 10.5 -51.5 18.5v-6z" />
    <glyph glyph-name="dieresis" unicode="&#xa8;" horiz-adv-x="331" 
d="M153 762c0 -17.333 -6 -31.833 -18 -43.5s-26.667 -17.5 -44 -17.5s-31.833 5.83301 -43.5 17.5s-17.5 26.167 -17.5 43.5s5.83301 32 17.5 44s26.167 18 43.5 18s32 -6 44 -18s18 -26.667 18 -44zM301 762c0 -17.333 -5.83301 -31.833 -17.5 -43.5
s-26.167 -17.5 -43.5 -17.5s-32 5.83301 -44 17.5s-18 26.167 -18 43.5s6 32 18 44s26.667 18 44 18s31.833 -6 43.5 -18s17.5 -26.667 17.5 -44z" />
    <glyph glyph-name="copyright" unicode="&#xa9;" horiz-adv-x="735" 
d="M368 251c12 0 23.332 2.33691 33.999 7.00391s19.667 10.667 27 18l68 -68c-16.667 -16.667 -36 -29.667 -58 -39s-45.667 -14 -71 -14s-49 4.66699 -71 14s-41.167 22.333 -57.5 39s-29.333 36 -39 58s-14.5 45.667 -14.5 71s4.83301 49.166 14.5 71.499
s22.667 41.666 39 57.999s35.5 29.333 57.5 39s45.667 14.5 71 14.5s49 -4.83301 71 -14.5s41.333 -22.834 58 -39.501l-68 -68c-15.333 16.667 -35.666 25 -60.999 25c-12 0 -23.167 -2.16699 -33.5 -6.5s-19.333 -10.5 -27 -18.5s-13.834 -17.167 -18.501 -27.5
s-7 -21.5 -7 -33.5s2.33301 -23.167 7 -33.5s10.834 -19.333 18.501 -27s16.667 -13.834 27 -18.501s21.5 -7 33.5 -7zM367.999 675.004c46.667 0 90.334 -8.83301 131.001 -26.5s76.334 -41.834 107.001 -72.501s54.834 -66.5 72.501 -107.5s26.5 -84.833 26.5 -131.5
s-8.83301 -90.5 -26.5 -131.5s-41.834 -76.667 -72.501 -107s-66.334 -54.333 -107.001 -72s-84.334 -26.5 -131.001 -26.5s-90.5 8.83301 -131.5 26.5s-76.833 41.667 -107.5 72s-54.834 66 -72.501 107s-26.5 84.833 -26.5 131.5s8.83301 90.5 26.5 131.5
s41.834 76.833 72.501 107.5s66.5 54.834 107.5 72.501s84.833 26.5 131.5 26.5zM367.999 86.0039c34.667 0 67.167 6.66699 97.5 20s56.833 31.333 79.5 54s40.667 49.167 54 79.5s20 62.833 20 97.5s-6.66699 67.334 -20 98.001s-31.333 57.334 -54 80.001
s-49.167 40.667 -79.5 54s-62.833 20 -97.5 20s-67.334 -6.66699 -98.001 -20s-57.334 -31.333 -80.001 -54s-40.667 -49.334 -54 -80.001s-20 -63.334 -20 -98.001s6.66699 -67.167 20 -97.5s31.333 -56.833 54 -79.5s49.334 -40.667 80.001 -54s63.334 -20 98.001 -20z
" />
    <glyph glyph-name="guillemotleft" unicode="&#xab;" horiz-adv-x="736" 
d="M368 229v-143l-338 201v98l337 202v-144l-179 -107zM706 229v-143l-338 201v98l338 202v-144l-180 -107z" />
    <glyph glyph-name="logicalnot" unicode="&#xac;" horiz-adv-x="524" 
d="M494 184h-123v157h-341v123h464v-280z" />
    <glyph glyph-name="uni00AD" unicode="&#xad;" horiz-adv-x="409" 
d="M30 284v109h349v-109h-349z" />
    <glyph glyph-name="registered" unicode="&#xae;" horiz-adv-x="270" 
d="M174 583c0 -7.33301 -1.83203 -14 -5.49902 -20s-8.83398 -10.667 -15.501 -14l21 -30h-23l-17 26h-19v-26h-19v101h40c10 0 18.833 -3.66699 26.5 -11s11.5 -16 11.5 -26zM155.001 583c0 5.33301 -1.83301 9.83301 -5.5 13.5s-8.16699 5.5 -13.5 5.5h-21v-39h21
c5.33301 0 9.83301 2 13.5 6s5.5 8.66699 5.5 14zM135.001 675c14.667 0 28.334 -2.83301 41.001 -8.5s23.667 -13.167 33 -22.5s16.833 -20.333 22.5 -33s8.5 -26.334 8.5 -41.001s-2.83301 -28.334 -8.5 -41.001s-13.167 -23.834 -22.5 -33.501s-20.333 -17.167 -33 -22.5
s-26.334 -8 -41.001 -8s-28.334 2.66699 -41.001 8s-23.834 12.833 -33.501 22.5s-17.167 20.834 -22.5 33.501s-8 26.334 -8 41.001s2.66699 28.334 8 41.001s12.833 23.667 22.5 33s20.834 16.833 33.501 22.5s26.334 8.5 41.001 8.5zM135.001 484
c12 0 23.167 2.33301 33.5 7s19.333 10.834 27 18.501s13.834 16.667 18.501 27s7 21.5 7 33.5s-2.33301 23.167 -7 33.5s-10.834 19.333 -18.501 27s-16.667 13.667 -27 18s-21.5 6.5 -33.5 6.5s-23.167 -2.16699 -33.5 -6.5s-19.333 -10.333 -27 -18
s-13.834 -16.667 -18.501 -27s-7 -21.5 -7 -33.5s2.33301 -23.167 7 -33.5s10.834 -19.333 18.501 -27s16.667 -13.834 27 -18.501s21.5 -7 33.5 -7z" />
    <glyph glyph-name="macron" unicode="&#xaf;" horiz-adv-x="335" 
d="M305 703h-275v84h275v-84z" />
    <glyph glyph-name="degree" unicode="&#xb0;" horiz-adv-x="211" 
d="M106 675c20.667 0 38.334 -7.33301 53.001 -22s22 -32.667 22 -54c0 -20.667 -7.33301 -38.334 -22 -53.001s-32.334 -22 -53.001 -22c-21.333 0 -39.333 7.33301 -54 22s-22 32.334 -22 53.001c0 21.333 7.33301 39.333 22 54s32.667 22 54 22zM106 559
c11.333 0 20.833 3.83301 28.5 11.5s11.5 17.167 11.5 28.5s-3.83301 21 -11.5 29s-17.167 12 -28.5 12s-21 -4 -29 -12s-12 -17.667 -12 -29s4 -20.833 12 -28.5s17.667 -11.5 29 -11.5z" />
    <glyph glyph-name="plusminus" unicode="&#xb1;" horiz-adv-x="409" 
d="M30 0v110h349v-110h-349zM379 284h-120v-120h-110v120h-119v109h119v120h110v-120h120v-109z" />
    <glyph glyph-name="acute" unicode="&#xb4;" horiz-adv-x="253" 
d="M121 848h102l-91 -147h-102zM121 848h102l-91 -147h-102zM121 848h102l-91 -147h-102zM121 848h102l-91 -147h-102z" />
    <glyph glyph-name="mu" unicode="&#xb5;" 
d="M495 465v-465h-123v28c-34 -18.667 -70.667 -28 -110 -28s-75.666 9.33301 -108.999 28v-255h-123v692h123v-232c0 -15.333 2.83301 -29.666 8.5 -42.999s13.5 -25 23.5 -35s21.5 -17.833 34.5 -23.5s27.167 -8.5 42.5 -8.5s29.666 2.83301 42.999 8.5s25 13.5 35 23.5
s17.833 21.667 23.5 35s8.5 27.666 8.5 42.999v232h123z" />
    <glyph glyph-name="paragraph" unicode="&#xb6;" horiz-adv-x="729" 
d="M699 551l-92 0.000976562v-551h-124v551h-91v-551h-124v198c-32.667 0 -63.5 6.33301 -92.5 19s-54.167 29.667 -75.5 51s-38.333 46.5 -51 75.5s-19 59.833 -19 92.5s6.33301 63.667 19 93s29.667 54.666 51 75.999s46.5 38.333 75.5 51s59.833 19 92.5 19h431v-124z
" />
    <glyph glyph-name="periodcentered" unicode="&#xb7;" horiz-adv-x="183" 
d="M153 322c0 -17.333 -6 -32 -18 -44s-26.667 -18 -44 -18s-31.833 6 -43.5 18s-17.5 26.667 -17.5 44c0 16.667 5.83301 31 17.5 43s26.167 18 43.5 18s32 -6 44 -18s18 -26.333 18 -43z" />
    <glyph glyph-name="cedilla" unicode="&#xb8;" horiz-adv-x="355" 
d="M202 -24c14.667 -6.66699 29.167 -15 43.5 -25s27.333 -21.167 39 -33.5s21.167 -26.166 28.5 -41.499s11 -31.666 11 -48.999c0 -28.667 -7.83301 -52.667 -23.5 -72s-35.167 -34.666 -58.5 -45.999s-48.5 -19.5 -75.5 -24.5s-51.833 -7.5 -74.5 -7.5
c-10.667 0 -21.167 0.333008 -31.5 1s-20.5 2 -30.5 4l19 84c14.667 -2 30 -3 46 -3c8 0 20 1 36 3s31.833 5.33301 47.5 10s29.5 11 41.5 19s18 18 18 30c0 14 -6.33301 26.667 -19 38s-27.5 21.166 -44.5 29.499s-34.333 15.166 -52 20.499s-31.5 8.66602 -41.5 9.99902
l8 77h124z" />
    <glyph glyph-name="guillemotright" unicode="&#xbb;" horiz-adv-x="736" 
d="M368 443v144l338 -202v-98l-337 -201v143l179 107zM30 443v144l338 -202v-98l-338 -201v143l180 107z" />
    <glyph glyph-name="questiondown" unicode="&#xbf;" horiz-adv-x="423" 
d="M254.011 552.008c-17.333 0 -31.999 5.83301 -43.998 17.499s-17.999 26.165 -17.999 43.4971s6 31.998 17.999 43.9971s26.665 17.999 43.998 17.999c17.332 0 31.8311 -6 43.4971 -17.999s17.499 -26.665 17.499 -43.9971s-5.83301 -31.8311 -17.499 -43.4971
s-26.165 -17.499 -43.4971 -17.499zM30.0244 202.029c0 26.665 3.99805 48.999 11.9971 66.998s18.165 33.8311 30.498 47.4961c12.333 13.666 25.499 26.165 39.498 37.498s27.165 23.499 39.498 36.498s22.832 27.8311 31.498 44.4961s13.332 36.9971 13.999 60.9961
h112.993c0 -34.665 -3.83301 -63.9961 -11.499 -87.9941c-7.66699 -23.999 -17.333 -44.3311 -28.998 -60.9971c-11.666 -16.665 -24.332 -30.6641 -37.998 -41.9971l-37.998 -32.498c-11.666 -10.333 -21.332 -20.832 -28.998 -31.498s-11.499 -23.665 -11.499 -38.9971
c0 -27.332 9.49902 -48.8311 28.498 -64.4961c18.999 -15.666 41.498 -23.499 67.4971 -23.499c23.999 0 44.998 7 62.9971 20.999l80.9951 -83.9951c-19.999 -16.665 -42.498 -29.3311 -67.4971 -37.998c-24.999 -8.66602 -50.4971 -12.999 -76.4951 -12.999
c-27.998 0 -55.1631 5 -81.4951 14.999s-49.6641 23.998 -69.9961 41.9971s-36.6641 39.3311 -48.9971 63.9961c-12.332 24.665 -18.498 51.6631 -18.498 80.9951z" />
    <glyph glyph-name="Agrave" unicode="&#xc0;" horiz-adv-x="683" 
d="M482 110h-281l-40 -110h-131l247 675h131l245 -675h-131zM438 233l-96 264l-96 -264h192zM388 716h-102l-91 147h102z" />
    <glyph glyph-name="Aacute" unicode="&#xc1;" horiz-adv-x="683" 
d="M482 110h-281l-40 -110h-131l247 675h131l245 -675h-131zM438 233l-96 264l-96 -264h192zM386 863h102l-91 -147h-102zM386 863h102l-91 -147h-102zM386 863h102l-91 -147h-102zM386 863h102l-91 -147h-102z" />
    <glyph glyph-name="Acircumflex" unicode="&#xc2;" horiz-adv-x="683" 
d="M482 110h-281l-40 -110h-131l247 675h131l245 -675h-131zM438 233l-96 264l-96 -264h192zM199 716l91 147h102l91 -147h-102l-40 65l-40 -65h-102zM199 716l91 147h102l91 -147h-102l-40 65l-40 -65h-102zM199 716l91 147h102l91 -147h-102l-40 65l-40 -65h-102zM199 716
l91 147h102l91 -147h-102l-40 65l-40 -65h-102z" />
    <glyph glyph-name="Atilde" unicode="&#xc3;" horiz-adv-x="683" 
d="M482 110h-281l-40 -110h-131l247 675h131l245 -675h-131zM438 233l-96 264l-96 -264h192zM480 744c-28 -18.667 -58.999 -28 -92.999 -28c-16.667 0 -32.334 3 -47.001 9s-29.667 9 -45 9c-16 0 -31.333 -4.66699 -46 -14l-47 70c28 18.667 59 28 93 28
c17.333 0 33.333 -3 48 -9s29.667 -9 45 -9c16.667 0 31.667 4.66699 45 14z" />
    <glyph glyph-name="Adieresis" unicode="&#xc4;" horiz-adv-x="683" 
d="M482 110h-281l-40 -110h-131l247 675h131l245 -675h-131zM438 233l-96 264l-96 -264h192zM329 777c0 -17.333 -6 -31.833 -18 -43.5s-26.667 -17.5 -44 -17.5s-31.833 5.83301 -43.5 17.5s-17.5 26.167 -17.5 43.5s5.83301 32 17.5 44s26.167 18 43.5 18s32 -6 44 -18
s18 -26.667 18 -44zM477 777c0 -17.333 -5.83301 -31.833 -17.5 -43.5s-26.167 -17.5 -43.5 -17.5s-32 5.83301 -44 17.5s-18 26.167 -18 43.5s6 32 18 44s26.667 18 44 18s31.833 -6 43.5 -18s17.5 -26.667 17.5 -44z" />
    <glyph glyph-name="Aring" unicode="&#xc5;" horiz-adv-x="683" 
d="M482 110h-281l-40 -110h-131l247 675h131l245 -675h-131zM438 233l-96 264l-96 -264h192zM341 716c-16 0 -31.167 3 -45.5 9s-26.666 14.333 -36.999 25s-18.666 23.167 -24.999 37.5s-9.5 29.5 -9.5 45.5s3.16699 31 9.5 45s14.666 26.333 24.999 37
s22.666 19 36.999 25s29.5 9 45.5 9s31.167 -3 45.5 -9s26.666 -14.333 36.999 -25s18.666 -23 24.999 -37s9.5 -29 9.5 -45s-3.16699 -31.167 -9.5 -45.5s-14.666 -26.833 -24.999 -37.5s-22.666 -19 -36.999 -25s-29.5 -9 -45.5 -9zM341 883c-13.333 0 -25 -5 -35 -15
s-15 -21.667 -15 -35c0 -14 5 -26 15 -36s21.667 -15 35 -15c14 0 25.833 5 35.5 15s14.5 22 14.5 36c0 13.333 -4.83301 25 -14.5 35s-21.5 15 -35.5 15z" />
    <glyph glyph-name="AE" unicode="&#xc6;" horiz-adv-x="886" 
d="M451 110h-250l-40 -110h-131l247 675h131zM438 233l-96 264l-96 -264h192zM465 552v-128h287v-123h-287v-178h391v-123h-514v674h514v-123z" />
    <glyph glyph-name="Ccedilla" unicode="&#xc7;" horiz-adv-x="636" 
d="M419 -24c14.667 -6.66699 29.167 -15 43.5 -25s27.333 -21.167 39 -33.5s21.167 -26.166 28.5 -41.499s11 -31.666 11 -48.999c0 -28.667 -7.83301 -52.667 -23.5 -72s-35.167 -34.666 -58.5 -45.999s-48.5 -19.5 -75.5 -24.5s-51.833 -7.5 -74.5 -7.5
c-10.667 0 -21.167 0.333008 -31.5 1s-20.5 2 -30.5 4l19 84c14.667 -2 30 -3 46 -3c8 0 20 1 36 3s31.833 5.33301 47.5 10s29.5 11 41.5 19s18 18 18 30c0 14 -6.33301 26.667 -19 38s-27.5 21.166 -44.5 29.499s-34.333 15.166 -52 20.499s-31.5 8.66602 -41.5 9.99902
l9 86h127zM606 99c-30.667 -30.667 -66.5 -54.832 -107.5 -72.499s-84.833 -26.5 -131.5 -26.5s-90.5 8.83301 -131.5 26.5s-76.667 41.667 -107 72s-54.333 66 -72 107s-26.5 84.833 -26.5 131.5s8.83301 90.5 26.5 131.5s41.667 76.833 72 107.5s66 54.834 107 72.501
s84.833 26.5 131.5 26.5s90.5 -8.83301 131.5 -26.5s76.833 -41.834 107.5 -72.501l-87 -87c-19.333 19.333 -42 34.666 -68 45.999s-54 17 -84 17c-29.333 0 -57 -5.66699 -83 -17s-48.667 -26.833 -68 -46.5s-34.666 -42.5 -45.999 -68.5s-17 -53.667 -17 -83
s5.66699 -57 17 -83s26.666 -48.667 45.999 -68s42 -34.666 68 -45.999s53.667 -17 83 -17c30 0 58 5.66699 84 17s48.667 26.666 68 45.999z" />
    <glyph glyph-name="Egrave" unicode="&#xc8;" horiz-adv-x="574" 
d="M153 552v-128h287v-123h-287v-178h391v-123h-514v674h514v-123zM373 716h-102l-91 147h102z" />
    <glyph glyph-name="Eacute" unicode="&#xc9;" horiz-adv-x="574" 
d="M153 552v-128h287v-123h-287v-178h391v-123h-514v674h514v-123zM291 863h102l-91 -147h-102zM291 863h102l-91 -147h-102zM291 863h102l-91 -147h-102zM291 863h102l-91 -147h-102z" />
    <glyph glyph-name="Ecircumflex" unicode="&#xca;" horiz-adv-x="574" 
d="M153 552v-128h287v-123h-287v-178h391v-123h-514v674h514v-123zM145 716l91 147h102l91 -147h-102l-40 65l-40 -65h-102zM145 716l91 147h102l91 -147h-102l-40 65l-40 -65h-102zM145 716l91 147h102l91 -147h-102l-40 65l-40 -65h-102zM145 716l91 147h102l91 -147h-102
l-40 65l-40 -65h-102z" />
    <glyph glyph-name="Edieresis" unicode="&#xcb;" horiz-adv-x="574" 
d="M153 552v-128h287v-123h-287v-178h391v-123h-514v674h514v-123zM274 777c0 -17.333 -6 -31.833 -18 -43.5s-26.667 -17.5 -44 -17.5s-31.833 5.83301 -43.5 17.5s-17.5 26.167 -17.5 43.5s5.83301 32 17.5 44s26.167 18 43.5 18s32 -6 44 -18s18 -26.667 18 -44zM422 777
c0 -17.333 -5.83301 -31.833 -17.5 -43.5s-26.167 -17.5 -43.5 -17.5s-32 5.83301 -44 17.5s-18 26.167 -18 43.5s6 32 18 44s26.667 18 44 18s31.833 -6 43.5 -18s17.5 -26.667 17.5 -44z" />
    <glyph glyph-name="Igrave" unicode="&#xcc;" horiz-adv-x="265" 
d="M235 0h-123v675h123v-675zM223 716h-102l-91 147h102z" />
    <glyph glyph-name="Iacute" unicode="&#xcd;" horiz-adv-x="258" 
d="M153 0h-123v675h123v-675zM126 863h102l-91 -147h-102zM126 863h102l-91 -147h-102zM126 863h102l-91 -147h-102zM126 863h102l-91 -147h-102z" />
    <glyph glyph-name="Icircumflex" unicode="&#xce;" horiz-adv-x="344" 
d="M233 0h-123v675h123v-675zM30 716l91 147h102l91 -147h-102l-40 65l-40 -65h-102zM30 716l91 147h102l91 -147h-102l-40 65l-40 -65h-102zM30 716l91 147h102l91 -147h-102l-40 65l-40 -65h-102zM30 716l91 147h102l91 -147h-102l-40 65l-40 -65h-102z" />
    <glyph glyph-name="Idieresis" unicode="&#xcf;" horiz-adv-x="331" 
d="M227 0h-123v675h123v-675zM153 777c0 -17.333 -6 -31.833 -18 -43.5s-26.667 -17.5 -44 -17.5s-31.833 5.83301 -43.5 17.5s-17.5 26.167 -17.5 43.5s5.83301 32 17.5 44s26.167 18 43.5 18s32 -6 44 -18s18 -26.667 18 -44zM301 777
c0 -17.333 -5.83301 -31.833 -17.5 -43.5s-26.167 -17.5 -43.5 -17.5s-32 5.83301 -44 17.5s-18 26.167 -18 43.5s6 32 18 44s26.667 18 44 18s31.833 -6 43.5 -18s17.5 -26.667 17.5 -44z" />
    <glyph glyph-name="Eth" unicode="&#xd0;" horiz-adv-x="761" 
d="M394 675c43.333 -1.33301 85.1709 -10.5 125.504 -27.5s76.166 -40.333 107.499 -70s56.5 -65 75.5 -106s28.5 -85.833 28.5 -134.5c0 -46.667 -8.83301 -90.5 -26.5 -131.5s-41.834 -76.667 -72.501 -107s-66.334 -54.333 -107.001 -72s-84.334 -26.5 -131.001 -26.5
h-251v283h-113v109h113v283h251zM394.005 123c29.333 0 57 5.66797 83 17.001s48.833 26.666 68.5 45.999s35.167 42 46.5 68s17 53.667 17 83s-5.66699 57 -17 83s-26.833 48.833 -46.5 68.5s-42.5 35.167 -68.5 46.5s-53.667 17 -83 17h-128v-160h113v-109h-113v-160h128z
" />
    <glyph glyph-name="Ntilde" unicode="&#xd1;" horiz-adv-x="573" 
d="M543 675v-675h-123l-267 438v-438h-123v675h123l267 -438v438h123zM425 744c-28 -18.667 -58.999 -28 -92.999 -28c-16.667 0 -32.334 3 -47.001 9s-29.667 9 -45 9c-16 0 -31.333 -4.66699 -46 -14l-47 70c28 18.667 59 28 93 28c17.333 0 33.333 -3 48 -9
s29.667 -9 45 -9c16.667 0 31.667 4.66699 45 14z" />
    <glyph glyph-name="Ograve" unicode="&#xd2;" horiz-adv-x="735" 
d="M367 675c46.667 0 90.5 -8.83301 131.5 -26.5s76.833 -41.834 107.5 -72.501s54.834 -66.5 72.501 -107.5s26.5 -84.833 26.5 -131.5s-8.83301 -90.5 -26.5 -131.5s-41.834 -76.667 -72.501 -107s-66.5 -54.333 -107.5 -72s-84.833 -26.5 -131.5 -26.5
s-90.5 8.83301 -131.5 26.5s-76.667 41.667 -107 72s-54.333 66 -72 107s-26.5 84.833 -26.5 131.5s8.83301 90.5 26.5 131.5s41.667 76.833 72 107.5s66 54.834 107 72.501s84.833 26.5 131.5 26.5zM367 123c29.333 0 57 5.66699 83 17s48.833 26.666 68.5 45.999
s35.167 42 46.5 68s17 53.667 17 83s-5.66699 57 -17 83s-26.833 48.833 -46.5 68.5s-42.5 35.167 -68.5 46.5s-53.667 17 -83 17s-57 -5.66699 -83 -17s-48.667 -26.833 -68 -46.5s-34.666 -42.5 -45.999 -68.5s-17 -53.667 -17 -83s5.66699 -57 17 -83
s26.666 -48.667 45.999 -68s42 -34.666 68 -45.999s53.667 -17 83 -17zM423 716h-102l-91 147h102z" />
    <glyph glyph-name="Oacute" unicode="&#xd3;" horiz-adv-x="735" 
d="M367 675c46.667 0 90.5 -8.83301 131.5 -26.5s76.833 -41.834 107.5 -72.501s54.834 -66.5 72.501 -107.5s26.5 -84.833 26.5 -131.5s-8.83301 -90.5 -26.5 -131.5s-41.834 -76.667 -72.501 -107s-66.5 -54.333 -107.5 -72s-84.833 -26.5 -131.5 -26.5
s-90.5 8.83301 -131.5 26.5s-76.667 41.667 -107 72s-54.333 66 -72 107s-26.5 84.833 -26.5 131.5s8.83301 90.5 26.5 131.5s41.667 76.833 72 107.5s66 54.834 107 72.501s84.833 26.5 131.5 26.5zM367 123c29.333 0 57 5.66699 83 17s48.833 26.666 68.5 45.999
s35.167 42 46.5 68s17 53.667 17 83s-5.66699 57 -17 83s-26.833 48.833 -46.5 68.5s-42.5 35.167 -68.5 46.5s-53.667 17 -83 17s-57 -5.66699 -83 -17s-48.667 -26.833 -68 -46.5s-34.666 -42.5 -45.999 -68.5s-17 -53.667 -17 -83s5.66699 -57 17 -83
s26.666 -48.667 45.999 -68s42 -34.666 68 -45.999s53.667 -17 83 -17zM394 863h102l-91 -147h-102zM394 863h102l-91 -147h-102zM394 863h102l-91 -147h-102zM394 863h102l-91 -147h-102z" />
    <glyph glyph-name="Ocircumflex" unicode="&#xd4;" horiz-adv-x="735" 
d="M367 675c46.667 0 90.5 -8.83301 131.5 -26.5s76.833 -41.834 107.5 -72.501s54.834 -66.5 72.501 -107.5s26.5 -84.833 26.5 -131.5s-8.83301 -90.5 -26.5 -131.5s-41.834 -76.667 -72.501 -107s-66.5 -54.333 -107.5 -72s-84.833 -26.5 -131.5 -26.5
s-90.5 8.83301 -131.5 26.5s-76.667 41.667 -107 72s-54.333 66 -72 107s-26.5 84.833 -26.5 131.5s8.83301 90.5 26.5 131.5s41.667 76.833 72 107.5s66 54.834 107 72.501s84.833 26.5 131.5 26.5zM367 123c29.333 0 57 5.66699 83 17s48.833 26.666 68.5 45.999
s35.167 42 46.5 68s17 53.667 17 83s-5.66699 57 -17 83s-26.833 48.833 -46.5 68.5s-42.5 35.167 -68.5 46.5s-53.667 17 -83 17s-57 -5.66699 -83 -17s-48.667 -26.833 -68 -46.5s-34.666 -42.5 -45.999 -68.5s-17 -53.667 -17 -83s5.66699 -57 17 -83
s26.666 -48.667 45.999 -68s42 -34.666 68 -45.999s53.667 -17 83 -17zM225 716l91 147h102l91 -147h-102l-40 65l-40 -65h-102zM225 716l91 147h102l91 -147h-102l-40 65l-40 -65h-102zM225 716l91 147h102l91 -147h-102l-40 65l-40 -65h-102zM225 716l91 147h102l91 -147
h-102l-40 65l-40 -65h-102z" />
    <glyph glyph-name="Otilde" unicode="&#xd5;" horiz-adv-x="735" 
d="M367 675c46.667 0 90.5 -8.83301 131.5 -26.5s76.833 -41.834 107.5 -72.501s54.834 -66.5 72.501 -107.5s26.5 -84.833 26.5 -131.5s-8.83301 -90.5 -26.5 -131.5s-41.834 -76.667 -72.501 -107s-66.5 -54.333 -107.5 -72s-84.833 -26.5 -131.5 -26.5
s-90.5 8.83301 -131.5 26.5s-76.667 41.667 -107 72s-54.333 66 -72 107s-26.5 84.833 -26.5 131.5s8.83301 90.5 26.5 131.5s41.667 76.833 72 107.5s66 54.834 107 72.501s84.833 26.5 131.5 26.5zM367 123c29.333 0 57 5.66699 83 17s48.833 26.666 68.5 45.999
s35.167 42 46.5 68s17 53.667 17 83s-5.66699 57 -17 83s-26.833 48.833 -46.5 68.5s-42.5 35.167 -68.5 46.5s-53.667 17 -83 17s-57 -5.66699 -83 -17s-48.667 -26.833 -68 -46.5s-34.666 -42.5 -45.999 -68.5s-17 -53.667 -17 -83s5.66699 -57 17 -83
s26.666 -48.667 45.999 -68s42 -34.666 68 -45.999s53.667 -17 83 -17zM506 744c-28 -18.667 -58.999 -28 -92.999 -28c-16.667 0 -32.334 3 -47.001 9s-29.667 9 -45 9c-16 0 -31.333 -4.66699 -46 -14l-47 70c28 18.667 59 28 93 28c17.333 0 33.333 -3 48 -9
s29.667 -9 45 -9c16.667 0 31.667 4.66699 45 14z" />
    <glyph glyph-name="Odieresis" unicode="&#xd6;" horiz-adv-x="735" 
d="M367 675c46.667 0 90.5 -8.83301 131.5 -26.5s76.833 -41.834 107.5 -72.501s54.834 -66.5 72.501 -107.5s26.5 -84.833 26.5 -131.5s-8.83301 -90.5 -26.5 -131.5s-41.834 -76.667 -72.501 -107s-66.5 -54.333 -107.5 -72s-84.833 -26.5 -131.5 -26.5
s-90.5 8.83301 -131.5 26.5s-76.667 41.667 -107 72s-54.333 66 -72 107s-26.5 84.833 -26.5 131.5s8.83301 90.5 26.5 131.5s41.667 76.833 72 107.5s66 54.834 107 72.501s84.833 26.5 131.5 26.5zM367 123c29.333 0 57 5.66699 83 17s48.833 26.666 68.5 45.999
s35.167 42 46.5 68s17 53.667 17 83s-5.66699 57 -17 83s-26.833 48.833 -46.5 68.5s-42.5 35.167 -68.5 46.5s-53.667 17 -83 17s-57 -5.66699 -83 -17s-48.667 -26.833 -68 -46.5s-34.666 -42.5 -45.999 -68.5s-17 -53.667 -17 -83s5.66699 -57 17 -83
s26.666 -48.667 45.999 -68s42 -34.666 68 -45.999s53.667 -17 83 -17zM355 777c0 -17.333 -6 -31.833 -18 -43.5s-26.667 -17.5 -44 -17.5s-31.833 5.83301 -43.5 17.5s-17.5 26.167 -17.5 43.5s5.83301 32 17.5 44s26.167 18 43.5 18s32 -6 44 -18s18 -26.667 18 -44z
M503 777c0 -17.333 -5.83301 -31.833 -17.5 -43.5s-26.167 -17.5 -43.5 -17.5s-32 5.83301 -44 17.5s-18 26.167 -18 43.5s6 32 18 44s26.667 18 44 18s31.833 -6 43.5 -18s17.5 -26.667 17.5 -44z" />
    <glyph glyph-name="multiply" unicode="&#xd7;" horiz-adv-x="384" 
d="M277 176l-85 85l-84 -85l-78 78l85 84l-85 85l78 77l84 -84l85 84l77 -77l-84 -85l84 -84z" />
    <glyph glyph-name="Oslash" unicode="&#xd8;" horiz-adv-x="736" 
d="M706 583l-57.999 -58.001c18 -26.667 32.167 -55.834 42.5 -87.501s15.5 -65.167 15.5 -100.5c0 -46.667 -8.83301 -90.5 -26.5 -131.5s-41.834 -76.667 -72.501 -107s-66.5 -54.333 -107.5 -72s-84.833 -26.5 -131.5 -26.5c-34.667 0 -67.834 5 -99.501 15
s-61.167 24 -88.5 42l-58 -58l-92 92l58 58c-18 27.333 -32 56.833 -42 88.5s-15 64.834 -15 99.501c0 46.667 8.83301 90.5 26.5 131.5s41.667 76.833 72 107.5s66 54.834 107 72.501s84.833 26.5 131.5 26.5c35.333 0 68.833 -5.16699 100.5 -15.5
s60.834 -24.5 87.501 -42.5l58 58zM467.001 527.999c-16.667 8 -33.168 13.834 -49.501 17.501s-32.166 5.5 -47.499 5.5c-28.667 0 -55.667 -5.66699 -81 -17s-47.5 -27 -66.5 -47s-34 -43.333 -45 -70s-16.5 -55.334 -16.5 -86.001c0 -15.333 1.33301 -30.5 4 -45.5
s7 -30.5 13 -46.5zM270 147c16.667 -8.66699 33.167 -14.834 49.5 -18.501s32.5 -5.5 48.5 -5.5c28.667 0 55.667 5.66699 81 17s47.5 27 66.5 47s34 43.333 45 70s16.5 55.334 16.5 86.001c0 30 -6 61 -18 93z" />
    <glyph glyph-name="Ugrave" unicode="&#xd9;" horiz-adv-x="575" 
d="M545 675l-0.00390625 -417c0 -35.333 -6.66699 -68.666 -20 -99.999s-31.666 -58.666 -54.999 -81.999s-50.666 -41.833 -81.999 -55.5s-65 -20.5 -101 -20.5c-35.333 0 -68.666 6.83301 -99.999 20.5s-58.666 32.167 -81.999 55.5s-41.666 50.666 -54.999 81.999
s-20 64.666 -20 99.999v417h123v-417c0 -18.667 3.5 -36.167 10.5 -52.5s16.5 -30.666 28.5 -42.999s26.167 -22 42.5 -29s33.833 -10.5 52.5 -10.5s36.167 3.5 52.5 10.5s30.666 16.667 42.999 29s22 26.666 29 42.999s10.5 33.833 10.5 52.5v417h123zM352.996 716h-102
l-91 147h102z" />
    <glyph glyph-name="Uacute" unicode="&#xda;" horiz-adv-x="575" 
d="M545 675l-0.00390625 -417c0 -35.333 -6.66699 -68.666 -20 -99.999s-31.666 -58.666 -54.999 -81.999s-50.666 -41.833 -81.999 -55.5s-65 -20.5 -101 -20.5c-35.333 0 -68.666 6.83301 -99.999 20.5s-58.666 32.167 -81.999 55.5s-41.666 50.666 -54.999 81.999
s-20 64.666 -20 99.999v417h123v-417c0 -18.667 3.5 -36.167 10.5 -52.5s16.5 -30.666 28.5 -42.999s26.167 -22 42.5 -29s33.833 -10.5 52.5 -10.5s36.167 3.5 52.5 10.5s30.666 16.667 42.999 29s22 26.666 29 42.999s10.5 33.833 10.5 52.5v417h123zM311.996 863h102
l-91 -147h-102zM311.996 863h102l-91 -147h-102zM311.996 863h102l-91 -147h-102zM311.996 863h102l-91 -147h-102z" />
    <glyph glyph-name="Ucircumflex" unicode="&#xdb;" horiz-adv-x="575" 
d="M545 675l-0.00390625 -417c0 -35.333 -6.66699 -68.666 -20 -99.999s-31.666 -58.666 -54.999 -81.999s-50.666 -41.833 -81.999 -55.5s-65 -20.5 -101 -20.5c-35.333 0 -68.666 6.83301 -99.999 20.5s-58.666 32.167 -81.999 55.5s-41.666 50.666 -54.999 81.999
s-20 64.666 -20 99.999v417h123v-417c0 -18.667 3.5 -36.167 10.5 -52.5s16.5 -30.666 28.5 -42.999s26.167 -22 42.5 -29s33.833 -10.5 52.5 -10.5s36.167 3.5 52.5 10.5s30.666 16.667 42.999 29s22 26.666 29 42.999s10.5 33.833 10.5 52.5v417h123zM144.996 716l91 147
h102l91 -147h-102l-40 65l-40 -65h-102zM144.996 716l91 147h102l91 -147h-102l-40 65l-40 -65h-102zM144.996 716l91 147h102l91 -147h-102l-40 65l-40 -65h-102zM144.996 716l91 147h102l91 -147h-102l-40 65l-40 -65h-102z" />
    <glyph glyph-name="Udieresis" unicode="&#xdc;" horiz-adv-x="575" 
d="M545 675l-0.00390625 -417c0 -35.333 -6.66699 -68.666 -20 -99.999s-31.666 -58.666 -54.999 -81.999s-50.666 -41.833 -81.999 -55.5s-65 -20.5 -101 -20.5c-35.333 0 -68.666 6.83301 -99.999 20.5s-58.666 32.167 -81.999 55.5s-41.666 50.666 -54.999 81.999
s-20 64.666 -20 99.999v417h123v-417c0 -18.667 3.5 -36.167 10.5 -52.5s16.5 -30.666 28.5 -42.999s26.167 -22 42.5 -29s33.833 -10.5 52.5 -10.5s36.167 3.5 52.5 10.5s30.666 16.667 42.999 29s22 26.666 29 42.999s10.5 33.833 10.5 52.5v417h123zM274.996 777
c0 -17.333 -6 -31.833 -18 -43.5s-26.667 -17.5 -44 -17.5s-31.833 5.83301 -43.5 17.5s-17.5 26.167 -17.5 43.5s5.83301 32 17.5 44s26.167 18 43.5 18s32 -6 44 -18s18 -26.667 18 -44zM422.996 777c0 -17.333 -5.83301 -31.833 -17.5 -43.5s-26.167 -17.5 -43.5 -17.5
s-32 5.83301 -44 17.5s-18 26.167 -18 43.5s6 32 18 44s26.667 18 44 18s31.833 -6 43.5 -18s17.5 -26.667 17.5 -44z" />
    <glyph glyph-name="Yacute" unicode="&#xdd;" horiz-adv-x="645" 
d="M466 675h149l-231 -358v-316h-123v316l-231 358h149l144 -223zM357 863h102l-91 -147h-102zM357 863h102l-91 -147h-102zM357 863h102l-91 -147h-102zM357 863h102l-91 -147h-102z" />
    <glyph glyph-name="Thorn" unicode="&#xde;" horiz-adv-x="606" 
d="M310 589c36.667 0 71.167 -6.66504 103.5 -19.998s60.5 -31.333 84.5 -54s43 -49.334 57 -80.001s21 -63.334 21 -98.001s-7 -67.167 -21 -97.5s-33 -56.833 -57 -79.5s-52.167 -40.667 -84.5 -54s-66.833 -20 -103.5 -20h-150v-86h-130v675h130v-86h150zM310 209.002
c18.667 0 36.334 3.33008 53.001 9.99707s31.167 15.834 43.5 27.501s22 25.167 29 40.5s10.5 32 10.5 50s-3.5 34.833 -10.5 50.5s-16.667 29.334 -29 41.001s-26.833 20.834 -43.5 27.501s-34.334 10 -53.001 10h-150v-257h150z" />
    <glyph glyph-name="germandbls" unicode="&#xdf;" horiz-adv-x="529" 
d="M399 416c30.667 -21.333 55.001 -47.667 73.001 -79s27 -65.666 27 -102.999c0 -32 -7 -62.333 -21 -91s-33 -53.5 -57 -74.5s-52.333 -37.667 -85 -50s-67.334 -18.5 -104.001 -18.5v124c19.333 0 37.833 2.83301 55.5 8.5s33 13.5 46 23.5s23.333 21.667 31 35
s11.5 27.666 11.5 42.999c0 14.667 -3.83301 28.667 -11.5 42s-18 25 -31 35s-28.333 18 -46 24s-36.167 9 -55.5 9v123c23.333 0 42 5 56 15s21 19 21 27c0 8.66699 -7 18 -21 28s-32.667 15 -56 15s-42 -5 -56 -15s-21 -19.333 -21 -28v-509h-125v509
c0 22.667 5.33301 44.167 16 64.5s25 38 43 53s39.333 26.833 64 35.5s51 13 79 13s54.333 -4.33301 79 -13s46 -20.5 64 -35.5s32.333 -32.667 43 -53s16 -41.833 16 -64.5c0 -17.333 -3 -33.833 -9 -49.5s-14.667 -30.167 -26 -43.5z" />
    <glyph glyph-name="agrave" unicode="&#xe0;" 
d="M495 465v-464.999h-123v27c-16.667 -8.66699 -34.167 -15.334 -52.5 -20.001s-37.5 -7 -57.5 -7c-32 0 -62.167 6 -90.5 18s-53 28.5 -74 49.5s-37.5 45.667 -49.5 74s-18 58.5 -18 90.5s6 62.167 18 90.5s28.5 53 49.5 74s45.667 37.667 74 50s58.5 18.5 90.5 18.5
c39.333 0 76 -9.33301 110 -28v28h123zM262 123.001c15.333 0 29.666 2.83301 42.999 8.5s25 13.5 35 23.5s17.833 21.5 23.5 34.5s8.5 27.167 8.5 42.5s-2.83301 29.666 -8.5 42.999s-13.5 25 -23.5 35s-21.667 17.833 -35 23.5s-27.666 8.5 -42.999 8.5
s-29.5 -2.83301 -42.5 -8.5s-24.5 -13.5 -34.5 -23.5s-17.833 -21.667 -23.5 -35s-8.5 -27.666 -8.5 -42.999s2.83301 -29.5 8.5 -42.5s13.5 -24.5 23.5 -34.5s21.5 -17.833 34.5 -23.5s27.167 -8.5 42.5 -8.5zM319 501.001h-102l-91 147h102z" />
    <glyph glyph-name="aacute" unicode="&#xe1;" 
d="M495 465v-464.999h-123v27c-16.667 -8.66699 -34.167 -15.334 -52.5 -20.001s-37.5 -7 -57.5 -7c-32 0 -62.167 6 -90.5 18s-53 28.5 -74 49.5s-37.5 45.667 -49.5 74s-18 58.5 -18 90.5s6 62.167 18 90.5s28.5 53 49.5 74s45.667 37.667 74 50s58.5 18.5 90.5 18.5
c39.333 0 76 -9.33301 110 -28v28h123zM262 123.001c15.333 0 29.666 2.83301 42.999 8.5s25 13.5 35 23.5s17.833 21.5 23.5 34.5s8.5 27.167 8.5 42.5s-2.83301 29.666 -8.5 42.999s-13.5 25 -23.5 35s-21.667 17.833 -35 23.5s-27.666 8.5 -42.999 8.5
s-29.5 -2.83301 -42.5 -8.5s-24.5 -13.5 -34.5 -23.5s-17.833 -21.667 -23.5 -35s-8.5 -27.666 -8.5 -42.999s2.83301 -29.5 8.5 -42.5s13.5 -24.5 23.5 -34.5s21.5 -17.833 34.5 -23.5s27.167 -8.5 42.5 -8.5zM297 648.001h102l-91 -147h-102zM297 648.001h102l-91 -147
h-102zM297 648.001h102l-91 -147h-102zM297 648.001h102l-91 -147h-102z" />
    <glyph glyph-name="acircumflex" unicode="&#xe2;" 
d="M495 465v-464.999h-123v27c-16.667 -8.66699 -34.167 -15.334 -52.5 -20.001s-37.5 -7 -57.5 -7c-32 0 -62.167 6 -90.5 18s-53 28.5 -74 49.5s-37.5 45.667 -49.5 74s-18 58.5 -18 90.5s6 62.167 18 90.5s28.5 53 49.5 74s45.667 37.667 74 50s58.5 18.5 90.5 18.5
c39.333 0 76 -9.33301 110 -28v28h123zM262 123.001c15.333 0 29.666 2.83301 42.999 8.5s25 13.5 35 23.5s17.833 21.5 23.5 34.5s8.5 27.167 8.5 42.5s-2.83301 29.666 -8.5 42.999s-13.5 25 -23.5 35s-21.667 17.833 -35 23.5s-27.666 8.5 -42.999 8.5
s-29.5 -2.83301 -42.5 -8.5s-24.5 -13.5 -34.5 -23.5s-17.833 -21.667 -23.5 -35s-8.5 -27.666 -8.5 -42.999s2.83301 -29.5 8.5 -42.5s13.5 -24.5 23.5 -34.5s21.5 -17.833 34.5 -23.5s27.167 -8.5 42.5 -8.5zM120 501.001l91 147h102l91 -147h-102l-40 65l-40 -65h-102z
M120 501.001l91 147h102l91 -147h-102l-40 65l-40 -65h-102zM120 501.001l91 147h102l91 -147h-102l-40 65l-40 -65h-102zM120 501.001l91 147h102l91 -147h-102l-40 65l-40 -65h-102z" />
    <glyph glyph-name="atilde" unicode="&#xe3;" 
d="M495 465v-464.999h-123v27c-16.667 -8.66699 -34.167 -15.334 -52.5 -20.001s-37.5 -7 -57.5 -7c-32 0 -62.167 6 -90.5 18s-53 28.5 -74 49.5s-37.5 45.667 -49.5 74s-18 58.5 -18 90.5s6 62.167 18 90.5s28.5 53 49.5 74s45.667 37.667 74 50s58.5 18.5 90.5 18.5
c39.333 0 76 -9.33301 110 -28v28h123zM262 123.001c15.333 0 29.666 2.83301 42.999 8.5s25 13.5 35 23.5s17.833 21.5 23.5 34.5s8.5 27.167 8.5 42.5s-2.83301 29.666 -8.5 42.999s-13.5 25 -23.5 35s-21.667 17.833 -35 23.5s-27.666 8.5 -42.999 8.5
s-29.5 -2.83301 -42.5 -8.5s-24.5 -13.5 -34.5 -23.5s-17.833 -21.667 -23.5 -35s-8.5 -27.666 -8.5 -42.999s2.83301 -29.5 8.5 -42.5s13.5 -24.5 23.5 -34.5s21.5 -17.833 34.5 -23.5s27.167 -8.5 42.5 -8.5zM401 529.001c-28 -18.667 -58.999 -28 -92.999 -28
c-16.667 0 -32.334 3 -47.001 9s-29.667 9 -45 9c-16 0 -31.333 -4.66699 -46 -14l-47 70c28 18.667 59 28 93 28c17.333 0 33.333 -3 48 -9s29.667 -9 45 -9c16.667 0 31.667 4.66699 45 14z" />
    <glyph glyph-name="adieresis" unicode="&#xe4;" 
d="M495 465v-464.999h-123v27c-16.667 -8.66699 -34.167 -15.334 -52.5 -20.001s-37.5 -7 -57.5 -7c-32 0 -62.167 6 -90.5 18s-53 28.5 -74 49.5s-37.5 45.667 -49.5 74s-18 58.5 -18 90.5s6 62.167 18 90.5s28.5 53 49.5 74s45.667 37.667 74 50s58.5 18.5 90.5 18.5
c39.333 0 76 -9.33301 110 -28v28h123zM262 123.001c15.333 0 29.666 2.83301 42.999 8.5s25 13.5 35 23.5s17.833 21.5 23.5 34.5s8.5 27.167 8.5 42.5s-2.83301 29.666 -8.5 42.999s-13.5 25 -23.5 35s-21.667 17.833 -35 23.5s-27.666 8.5 -42.999 8.5
s-29.5 -2.83301 -42.5 -8.5s-24.5 -13.5 -34.5 -23.5s-17.833 -21.667 -23.5 -35s-8.5 -27.666 -8.5 -42.999s2.83301 -29.5 8.5 -42.5s13.5 -24.5 23.5 -34.5s21.5 -17.833 34.5 -23.5s27.167 -8.5 42.5 -8.5zM250 562.001c0 -17.333 -6 -31.833 -18 -43.5
s-26.667 -17.5 -44 -17.5s-31.833 5.83301 -43.5 17.5s-17.5 26.167 -17.5 43.5s5.83301 32 17.5 44s26.167 18 43.5 18s32 -6 44 -18s18 -26.667 18 -44zM398 562.001c0 -17.333 -5.83301 -31.833 -17.5 -43.5s-26.167 -17.5 -43.5 -17.5s-32 5.83301 -44 17.5
s-18 26.167 -18 43.5s6 32 18 44s26.667 18 44 18s31.833 -6 43.5 -18s17.5 -26.667 17.5 -44z" />
    <glyph glyph-name="aring" unicode="&#xe5;" 
d="M495 465v-464.999h-123v27c-16.667 -8.66699 -34.167 -15.334 -52.5 -20.001s-37.5 -7 -57.5 -7c-32 0 -62.167 6 -90.5 18s-53 28.5 -74 49.5s-37.5 45.667 -49.5 74s-18 58.5 -18 90.5s6 62.167 18 90.5s28.5 53 49.5 74s45.667 37.667 74 50s58.5 18.5 90.5 18.5
c39.333 0 76 -9.33301 110 -28v28h123zM262 123.001c15.333 0 29.666 2.83301 42.999 8.5s25 13.5 35 23.5s17.833 21.5 23.5 34.5s8.5 27.167 8.5 42.5s-2.83301 29.666 -8.5 42.999s-13.5 25 -23.5 35s-21.667 17.833 -35 23.5s-27.666 8.5 -42.999 8.5
s-29.5 -2.83301 -42.5 -8.5s-24.5 -13.5 -34.5 -23.5s-17.833 -21.667 -23.5 -35s-8.5 -27.666 -8.5 -42.999s2.83301 -29.5 8.5 -42.5s13.5 -24.5 23.5 -34.5s21.5 -17.833 34.5 -23.5s27.167 -8.5 42.5 -8.5zM262 501.001c-16 0 -31.167 3 -45.5 9
s-26.666 14.333 -36.999 25s-18.666 23.167 -24.999 37.5s-9.5 29.5 -9.5 45.5s3.16699 31 9.5 45s14.666 26.333 24.999 37s22.666 19 36.999 25s29.5 9 45.5 9s31.167 -3 45.5 -9s26.666 -14.333 36.999 -25s18.666 -23 24.999 -37s9.5 -29 9.5 -45
s-3.16699 -31.167 -9.5 -45.5s-14.666 -26.833 -24.999 -37.5s-22.666 -19 -36.999 -25s-29.5 -9 -45.5 -9zM262 668.001c-13.333 0 -25 -5 -35 -15s-15 -21.667 -15 -35c0 -14 5 -26 15 -36s21.667 -15 35 -15c14 0 25.833 5 35.5 15s14.5 22 14.5 36
c0 13.333 -4.83301 25 -14.5 35s-21.5 15 -35.5 15z" />
    <glyph glyph-name="ae" unicode="&#xe6;" horiz-adv-x="867" 
d="M495 465v-464.999h-123v27c-16.667 -8.66699 -34.167 -15.334 -52.5 -20.001s-37.5 -7 -57.5 -7c-32 0 -62.167 6 -90.5 18s-53 28.5 -74 49.5s-37.5 45.667 -49.5 74s-18 58.5 -18 90.5s6 62.167 18 90.5s28.5 53 49.5 74s45.667 37.667 74 50s58.5 18.5 90.5 18.5
c39.333 0 76 -9.33301 110 -28v28h123zM262 123.001c15.333 0 29.666 2.83301 42.999 8.5s25 13.5 35 23.5s17.833 21.5 23.5 34.5s8.5 27.167 8.5 42.5s-2.83301 29.666 -8.5 42.999s-13.5 25 -23.5 35s-21.667 17.833 -35 23.5s-27.666 8.5 -42.999 8.5
s-29.5 -2.83301 -42.5 -8.5s-24.5 -13.5 -34.5 -23.5s-17.833 -21.667 -23.5 -35s-8.5 -27.666 -8.5 -42.999s2.83301 -29.5 8.5 -42.5s13.5 -24.5 23.5 -34.5s21.5 -17.833 34.5 -23.5s27.167 -8.5 42.5 -8.5zM605 465.001c32 0 62 -6.33203 90 -18.999
s52.5 -29.5 73.5 -50.5s37.667 -45.667 50 -74s18.5 -57.833 18.5 -88.5c0 -20.667 -3 -41 -9 -61h-313c9.33301 -14.667 21.833 -26.334 37.5 -35.001s33.167 -13 52.5 -13c15.333 0 29.5 2.83301 42.5 8.5s24.5 13.5 34.5 23.5l87 -87c-21.333 -21.333 -46 -38 -74 -50
s-58 -18 -90 -18s-62.167 6 -90.5 18s-53 28.5 -74 49.5s-37.5 45.667 -49.5 74s-18 58.5 -18 90.5s6 62 18 90s28.5 52.5 49.5 73.5s45.667 37.667 74 50s58.5 18.5 90.5 18.5zM605 342.002c-19.333 0 -36.833 -4.33301 -52.5 -13s-28.167 -20.334 -37.5 -35.001h180
c-9.33301 14.667 -22 26.334 -38 35.001s-33.333 13 -52 13z" />
    <glyph glyph-name="ccedilla" unicode="&#xe7;" horiz-adv-x="466" 
d="M313 -24c14.667 -6.66699 29.167 -15 43.5 -25s27.333 -21.167 39 -33.5s21.167 -26.166 28.5 -41.499s11 -31.666 11 -48.999c0 -28.667 -7.83301 -52.667 -23.5 -72s-35.167 -34.666 -58.5 -45.999s-48.5 -19.5 -75.5 -24.5s-51.833 -7.5 -74.5 -7.5
c-10.667 0 -21.167 0.333008 -31.5 1s-20.5 2 -30.5 4l19 84c14.667 -2 30 -3 46 -3c8 0 20 1 36 3s31.833 5.33301 47.5 10s29.5 11 41.5 19s18 18 18 30c0 14 -6.33301 26.667 -19 38s-27.5 21.166 -44.5 29.499s-34.333 15.166 -52 20.499s-31.5 8.66602 -41.5 9.99902
l9 90l130 5zM262 465c30.667 0 60.5 -6 89.5 -18s54.167 -28.667 75.5 -50l-87 -87c-10.667 10 -22.667 17.833 -36 23.5s-27.333 8.5 -42 8.5c-15.333 0 -29.666 -3 -42.999 -9s-24.833 -14 -34.5 -24s-17.334 -21.667 -23.001 -35s-8.5 -27.333 -8.5 -42
c0 -15.333 2.83301 -29.5 8.5 -42.5s13.5 -24.5 23.5 -34.5s21.5 -17.833 34.5 -23.5s27.167 -8.5 42.5 -8.5c30.667 0 56.667 10.667 78 32l87 -87c-21.333 -21.333 -46.5 -38 -75.5 -50s-58.833 -18 -89.5 -18c-32 0 -62.167 6 -90.5 18s-53 28.5 -74 49.5
s-37.5 45.667 -49.5 74s-18 58.5 -18 90.5s6 62.167 18 90.5s28.5 53 49.5 74s45.667 37.667 74 50s58.5 18.5 90.5 18.5z" />
    <glyph glyph-name="egrave" unicode="&#xe8;" horiz-adv-x="524" 
d="M262 465c32 0 62 -6.33203 90 -18.999s52.5 -29.5 73.5 -50.5s37.667 -45.667 50 -74s18.5 -57.833 18.5 -88.5c0 -20.667 -3 -41 -9 -61h-313c9.33301 -14.667 21.833 -26.334 37.5 -35.001s33.167 -13 52.5 -13c15.333 0 29.5 2.83301 42.5 8.5s24.5 13.5 34.5 23.5
l87 -87c-21.333 -21.333 -46 -38 -74 -50s-58 -18 -90 -18s-62.167 6 -90.5 18s-53 28.5 -74 49.5s-37.5 45.667 -49.5 74s-18 58.5 -18 90.5s6 62 18 90s28.5 52.5 49.5 73.5s45.667 37.667 74 50s58.5 18.5 90.5 18.5zM262 342.001c-19.333 0 -36.833 -4.33301 -52.5 -13
s-28.167 -20.334 -37.5 -35.001h180c-9.33301 14.667 -22 26.334 -38 35.001s-33.333 13 -52 13zM318 501.001h-102l-91 147h102z" />
    <glyph glyph-name="eacute" unicode="&#xe9;" horiz-adv-x="524" 
d="M296 648h102l-91 -147h-102zM262 465c32 0 62 -6.33203 90 -18.999s52.5 -29.5 73.5 -50.5s37.667 -45.667 50 -74s18.5 -57.833 18.5 -88.5c0 -20.667 -3 -41 -9 -61h-313c9.33301 -14.667 21.833 -26.334 37.5 -35.001s33.167 -13 52.5 -13
c15.333 0 29.5 2.83301 42.5 8.5s24.5 13.5 34.5 23.5l87 -87c-21.333 -21.333 -46 -38 -74 -50s-58 -18 -90 -18s-62.167 6 -90.5 18s-53 28.5 -74 49.5s-37.5 45.667 -49.5 74s-18 58.5 -18 90.5s6 62 18 90s28.5 52.5 49.5 73.5s45.667 37.667 74 50s58.5 18.5 90.5 18.5
zM262 342.001c-19.333 0 -36.833 -4.33301 -52.5 -13s-28.167 -20.334 -37.5 -35.001h180c-9.33301 14.667 -22 26.334 -38 35.001s-33.333 13 -52 13z" />
    <glyph glyph-name="ecircumflex" unicode="&#xea;" horiz-adv-x="524" 
d="M262 465c32 0 62 -6.33203 90 -18.999s52.5 -29.5 73.5 -50.5s37.667 -45.667 50 -74s18.5 -57.833 18.5 -88.5c0 -20.667 -3 -41 -9 -61h-313c9.33301 -14.667 21.833 -26.334 37.5 -35.001s33.167 -13 52.5 -13c15.333 0 29.5 2.83301 42.5 8.5s24.5 13.5 34.5 23.5
l87 -87c-21.333 -21.333 -46 -38 -74 -50s-58 -18 -90 -18s-62.167 6 -90.5 18s-53 28.5 -74 49.5s-37.5 45.667 -49.5 74s-18 58.5 -18 90.5s6 62 18 90s28.5 52.5 49.5 73.5s45.667 37.667 74 50s58.5 18.5 90.5 18.5zM262 342.001c-19.333 0 -36.833 -4.33301 -52.5 -13
s-28.167 -20.334 -37.5 -35.001h180c-9.33301 14.667 -22 26.334 -38 35.001s-33.333 13 -52 13zM120 501.001l91 147h102l91 -147h-102l-40 65l-40 -65h-102zM120 501.001l91 147h102l91 -147h-102l-40 65l-40 -65h-102zM120 501.001l91 147h102l91 -147h-102l-40 65
l-40 -65h-102zM120 501.001l91 147h102l91 -147h-102l-40 65l-40 -65h-102z" />
    <glyph glyph-name="edieresis" unicode="&#xeb;" horiz-adv-x="524" 
d="M262 465c32 0 62 -6.33203 90 -18.999s52.5 -29.5 73.5 -50.5s37.667 -45.667 50 -74s18.5 -57.833 18.5 -88.5c0 -20.667 -3 -41 -9 -61h-313c9.33301 -14.667 21.833 -26.334 37.5 -35.001s33.167 -13 52.5 -13c15.333 0 29.5 2.83301 42.5 8.5s24.5 13.5 34.5 23.5
l87 -87c-21.333 -21.333 -46 -38 -74 -50s-58 -18 -90 -18s-62.167 6 -90.5 18s-53 28.5 -74 49.5s-37.5 45.667 -49.5 74s-18 58.5 -18 90.5s6 62 18 90s28.5 52.5 49.5 73.5s45.667 37.667 74 50s58.5 18.5 90.5 18.5zM262 342.001c-19.333 0 -36.833 -4.33301 -52.5 -13
s-28.167 -20.334 -37.5 -35.001h180c-9.33301 14.667 -22 26.334 -38 35.001s-33.333 13 -52 13zM249 562.001c0 -17.333 -6 -31.833 -18 -43.5s-26.667 -17.5 -44 -17.5s-31.833 5.83301 -43.5 17.5s-17.5 26.167 -17.5 43.5s5.83301 32 17.5 44s26.167 18 43.5 18
s32 -6 44 -18s18 -26.667 18 -44zM397 562.001c0 -17.333 -5.83301 -31.833 -17.5 -43.5s-26.167 -17.5 -43.5 -17.5s-32 5.83301 -44 17.5s-18 26.167 -18 43.5s6 32 18 44s26.667 18 44 18s31.833 -6 43.5 -18s17.5 -26.667 17.5 -44z" />
    <glyph glyph-name="igrave" unicode="&#xec;" horiz-adv-x="260" 
d="M230 0h-123v465h123v-465zM220 501h-102l-91 147h102z" />
    <glyph glyph-name="iacute" unicode="&#xed;" horiz-adv-x="265" 
d="M153 0h-123v465h123v-465zM133 648h102l-91 -147h-102z" />
    <glyph glyph-name="icircumflex" unicode="&#xee;" horiz-adv-x="344" 
d="M239 464v-464h-124v464h124zM30 501l91 147h102l91 -147h-102l-40 65l-40 -65h-102zM30 501l91 147h102l91 -147h-102l-40 65l-40 -65h-102zM30 501l91 147h102l91 -147h-102l-40 65l-40 -65h-102zM30 501l91 147h102l91 -147h-102l-40 65l-40 -65h-102z" />
    <glyph glyph-name="idieresis" unicode="&#xef;" horiz-adv-x="331" 
d="M226 464v-464h-124v464h124zM153 562c0 -17.333 -6 -31.833 -18 -43.5s-26.667 -17.5 -44 -17.5s-31.833 5.83301 -43.5 17.5s-17.5 26.167 -17.5 43.5s5.83301 32 17.5 44s26.167 18 43.5 18s32 -6 44 -18s18 -26.667 18 -44zM301 562
c0 -17.333 -5.83301 -31.833 -17.5 -43.5s-26.167 -17.5 -43.5 -17.5s-32 5.83301 -44 17.5s-18 26.167 -18 43.5s6 32 18 44s26.667 18 44 18s31.833 -6 43.5 -18s17.5 -26.667 17.5 -44z" />
    <glyph glyph-name="eth" unicode="&#xf0;" horiz-adv-x="608" 
d="M578 601v-108.999h-83v-492h-123v27c-16.667 -8.66699 -34.167 -15.334 -52.5 -20.001s-37.5 -7 -57.5 -7c-32 0 -62.167 6 -90.5 18s-53 28.5 -74 49.5s-37.5 45.667 -49.5 74s-18 58.5 -18 90.5s6 62 18 90s28.5 52.5 49.5 73.5s45.667 37.667 74 50
s58.5 18.5 90.5 18.5c40 0 76.667 -9 110 -27v55h-84v109h84v73h123v-73h83zM262 123.001c15.333 0 29.666 2.83301 42.999 8.5s25 13.5 35 23.5s17.833 21.5 23.5 34.5s8.5 27.167 8.5 42.5c0 14.667 -2.83301 28.667 -8.5 42s-13.5 25 -23.5 35s-21.667 18 -35 24
s-27.666 9 -42.999 9s-29.5 -3 -42.5 -9s-24.5 -14 -34.5 -24s-17.833 -21.667 -23.5 -35s-8.5 -27.333 -8.5 -42c0 -15.333 2.83301 -29.5 8.5 -42.5s13.5 -24.5 23.5 -34.5s21.5 -17.833 34.5 -23.5s27.167 -8.5 42.5 -8.5z" />
    <glyph glyph-name="ntilde" unicode="&#xf1;" horiz-adv-x="524" 
d="M262 464c32 0 62 -6.16797 90 -18.501s52.5 -29 73.5 -50s37.667 -45.5 50 -73.5s18.5 -58 18.5 -90v-232h-123v232c0 14.667 -2.83301 28.667 -8.5 42s-13.5 25 -23.5 35s-21.667 17.833 -35 23.5s-27.333 8.5 -42 8.5c-15.333 0 -29.5 -2.83301 -42.5 -8.5
s-24.5 -13.5 -34.5 -23.5s-17.833 -21.667 -23.5 -35s-8.5 -27.333 -8.5 -42v-232h-123v463h123v-26c16 8.66699 33.333 15.334 52 20.001s37.667 7 57 7zM401 528.999c-28 -18.667 -58.999 -28 -92.999 -28c-16.667 0 -32.334 3 -47.001 9s-29.667 9 -45 9
c-16 0 -31.333 -4.66699 -46 -14l-47 70c28 18.667 59 28 93 28c17.333 0 33.333 -3 48 -9s29.667 -9 45 -9c16.667 0 31.667 4.66699 45 14z" />
    <glyph glyph-name="ograve" unicode="&#xf2;" 
d="M262 465c32 0 62.167 -6.16699 90.5 -18.5s53 -29 74 -50s37.667 -45.667 50 -74s18.5 -58.5 18.5 -90.5s-6.16699 -62.167 -18.5 -90.5s-29 -53 -50 -74s-45.667 -37.5 -74 -49.5s-58.5 -18 -90.5 -18s-62.167 6 -90.5 18s-53 28.5 -74 49.5s-37.5 45.667 -49.5 74
s-18 58.5 -18 90.5s6 62.167 18 90.5s28.5 53 49.5 74s45.667 37.667 74 50s58.5 18.5 90.5 18.5zM262 123c15.333 0 29.666 2.83301 42.999 8.5s25 13.5 35 23.5s17.833 21.5 23.5 34.5s8.5 27.167 8.5 42.5s-2.83301 29.666 -8.5 42.999s-13.5 25 -23.5 35
s-21.667 17.833 -35 23.5s-27.666 8.5 -42.999 8.5s-29.5 -2.83301 -42.5 -8.5s-24.5 -13.5 -34.5 -23.5s-17.833 -21.667 -23.5 -35s-8.5 -27.666 -8.5 -42.999s2.83301 -29.5 8.5 -42.5s13.5 -24.5 23.5 -34.5s21.5 -17.833 34.5 -23.5s27.167 -8.5 42.5 -8.5zM323 501
h-102l-91 147h102z" />
    <glyph glyph-name="oacute" unicode="&#xf3;" 
d="M262 465c32 0 62.167 -6.16699 90.5 -18.5s53 -29 74 -50s37.667 -45.667 50 -74s18.5 -58.5 18.5 -90.5s-6.16699 -62.167 -18.5 -90.5s-29 -53 -50 -74s-45.667 -37.5 -74 -49.5s-58.5 -18 -90.5 -18s-62.167 6 -90.5 18s-53 28.5 -74 49.5s-37.5 45.667 -49.5 74
s-18 58.5 -18 90.5s6 62.167 18 90.5s28.5 53 49.5 74s45.667 37.667 74 50s58.5 18.5 90.5 18.5zM262 123c15.333 0 29.666 2.83301 42.999 8.5s25 13.5 35 23.5s17.833 21.5 23.5 34.5s8.5 27.167 8.5 42.5s-2.83301 29.666 -8.5 42.999s-13.5 25 -23.5 35
s-21.667 17.833 -35 23.5s-27.666 8.5 -42.999 8.5s-29.5 -2.83301 -42.5 -8.5s-24.5 -13.5 -34.5 -23.5s-17.833 -21.667 -23.5 -35s-8.5 -27.666 -8.5 -42.999s2.83301 -29.5 8.5 -42.5s13.5 -24.5 23.5 -34.5s21.5 -17.833 34.5 -23.5s27.167 -8.5 42.5 -8.5zM297 648
h102l-91 -147h-102zM297 648h102l-91 -147h-102zM297 648h102l-91 -147h-102zM297 648h102l-91 -147h-102z" />
    <glyph glyph-name="ocircumflex" unicode="&#xf4;" 
d="M262 465c32 0 62.167 -6.16699 90.5 -18.5s53 -29 74 -50s37.667 -45.667 50 -74s18.5 -58.5 18.5 -90.5s-6.16699 -62.167 -18.5 -90.5s-29 -53 -50 -74s-45.667 -37.5 -74 -49.5s-58.5 -18 -90.5 -18s-62.167 6 -90.5 18s-53 28.5 -74 49.5s-37.5 45.667 -49.5 74
s-18 58.5 -18 90.5s6 62.167 18 90.5s28.5 53 49.5 74s45.667 37.667 74 50s58.5 18.5 90.5 18.5zM262 123c15.333 0 29.666 2.83301 42.999 8.5s25 13.5 35 23.5s17.833 21.5 23.5 34.5s8.5 27.167 8.5 42.5s-2.83301 29.666 -8.5 42.999s-13.5 25 -23.5 35
s-21.667 17.833 -35 23.5s-27.666 8.5 -42.999 8.5s-29.5 -2.83301 -42.5 -8.5s-24.5 -13.5 -34.5 -23.5s-17.833 -21.667 -23.5 -35s-8.5 -27.666 -8.5 -42.999s2.83301 -29.5 8.5 -42.5s13.5 -24.5 23.5 -34.5s21.5 -17.833 34.5 -23.5s27.167 -8.5 42.5 -8.5zM120 501
l91 147h102l91 -147h-102l-40 65l-40 -65h-102zM120 501l91 147h102l91 -147h-102l-40 65l-40 -65h-102zM120 501l91 147h102l91 -147h-102l-40 65l-40 -65h-102zM120 501l91 147h102l91 -147h-102l-40 65l-40 -65h-102z" />
    <glyph glyph-name="otilde" unicode="&#xf5;" 
d="M262 465c32 0 62.167 -6.16699 90.5 -18.5s53 -29 74 -50s37.667 -45.667 50 -74s18.5 -58.5 18.5 -90.5s-6.16699 -62.167 -18.5 -90.5s-29 -53 -50 -74s-45.667 -37.5 -74 -49.5s-58.5 -18 -90.5 -18s-62.167 6 -90.5 18s-53 28.5 -74 49.5s-37.5 45.667 -49.5 74
s-18 58.5 -18 90.5s6 62.167 18 90.5s28.5 53 49.5 74s45.667 37.667 74 50s58.5 18.5 90.5 18.5zM262 123c15.333 0 29.666 2.83301 42.999 8.5s25 13.5 35 23.5s17.833 21.5 23.5 34.5s8.5 27.167 8.5 42.5s-2.83301 29.666 -8.5 42.999s-13.5 25 -23.5 35
s-21.667 17.833 -35 23.5s-27.666 8.5 -42.999 8.5s-29.5 -2.83301 -42.5 -8.5s-24.5 -13.5 -34.5 -23.5s-17.833 -21.667 -23.5 -35s-8.5 -27.666 -8.5 -42.999s2.83301 -29.5 8.5 -42.5s13.5 -24.5 23.5 -34.5s21.5 -17.833 34.5 -23.5s27.167 -8.5 42.5 -8.5zM401 529
c-28 -18.667 -58.999 -28 -92.999 -28c-16.667 0 -32.334 3 -47.001 9s-29.667 9 -45 9c-16 0 -31.333 -4.66699 -46 -14l-47 70c28 18.667 59 28 93 28c17.333 0 33.333 -3 48 -9s29.667 -9 45 -9c16.667 0 31.667 4.66699 45 14z" />
    <glyph glyph-name="odieresis" unicode="&#xf6;" 
d="M262 465c32 0 62.167 -6.16699 90.5 -18.5s53 -29 74 -50s37.667 -45.667 50 -74s18.5 -58.5 18.5 -90.5s-6.16699 -62.167 -18.5 -90.5s-29 -53 -50 -74s-45.667 -37.5 -74 -49.5s-58.5 -18 -90.5 -18s-62.167 6 -90.5 18s-53 28.5 -74 49.5s-37.5 45.667 -49.5 74
s-18 58.5 -18 90.5s6 62.167 18 90.5s28.5 53 49.5 74s45.667 37.667 74 50s58.5 18.5 90.5 18.5zM262 123c15.333 0 29.666 2.83301 42.999 8.5s25 13.5 35 23.5s17.833 21.5 23.5 34.5s8.5 27.167 8.5 42.5s-2.83301 29.666 -8.5 42.999s-13.5 25 -23.5 35
s-21.667 17.833 -35 23.5s-27.666 8.5 -42.999 8.5s-29.5 -2.83301 -42.5 -8.5s-24.5 -13.5 -34.5 -23.5s-17.833 -21.667 -23.5 -35s-8.5 -27.666 -8.5 -42.999s2.83301 -29.5 8.5 -42.5s13.5 -24.5 23.5 -34.5s21.5 -17.833 34.5 -23.5s27.167 -8.5 42.5 -8.5zM250 562
c0 -17.333 -6 -31.833 -18 -43.5s-26.667 -17.5 -44 -17.5s-31.833 5.83301 -43.5 17.5s-17.5 26.167 -17.5 43.5s5.83301 32 17.5 44s26.167 18 43.5 18s32 -6 44 -18s18 -26.667 18 -44zM398 562c0 -17.333 -5.83301 -31.833 -17.5 -43.5s-26.167 -17.5 -43.5 -17.5
s-32 5.83301 -44 17.5s-18 26.167 -18 43.5s6 32 18 44s26.667 18 44 18s31.833 -6 43.5 -18s17.5 -26.667 17.5 -44z" />
    <glyph glyph-name="divide" unicode="&#xf7;" horiz-adv-x="409" 
d="M266 214c0 -17.333 -6 -31.833 -18 -43.5s-26.667 -17.5 -44 -17.5s-31.833 5.83301 -43.5 17.5s-17.5 26.167 -17.5 43.5s5.83301 32 17.5 44s26.167 18 43.5 18s32 -6 44 -18s18 -26.667 18 -44zM266 461c0 -17.333 -6 -32 -18 -44s-26.667 -18 -44 -18
s-31.833 6 -43.5 18s-17.5 26.667 -17.5 44s5.83301 31.833 17.5 43.5s26.167 17.5 43.5 17.5s32 -5.83301 44 -17.5s18 -26.167 18 -43.5zM30 301v73h349v-73h-349z" />
    <glyph glyph-name="oslash" unicode="&#xf8;" horiz-adv-x="617" 
d="M512 343c17.333 -34.667 26.0029 -71.3359 26.0029 -110.003c0 -31.333 -6 -61.166 -18 -89.499s-28.5 -53.166 -49.5 -74.499s-45.333 -38.166 -73 -50.499s-57.5 -18.5 -89.5 -18.5c-19.333 0 -38.5 2.5 -57.5 7.5s-37.167 11.833 -54.5 20.5l-74 -75l-92 92l75 74
c-18.667 35.333 -28 72 -28 110c0 32 6.33301 62 19 90s29.667 52.5 51 73.5s46.166 37.5 74.499 49.5s58.166 18 89.499 18c37.333 0 73.666 -8.33301 108.999 -25l75 75l92 -92zM325.003 338.998c-2 0.666992 -4.16699 1 -6.5 1h-6.5c-16 0 -30.833 -3 -44.5 -9
s-25.5 -14 -35.5 -24s-18 -21.833 -24 -35.5s-9 -28.167 -9 -43.5c0 -2 0.166992 -4.16699 0.5 -6.5s0.5 -4.5 0.5 -6.5zM292.003 122.998c3.33301 -1.33301 6.66602 -2.00098 9.99902 -2.00098h10c14.667 0 28.334 3.33301 41.001 10s23.667 15.334 33 26.001
s16.833 22.667 22.5 36s8.5 27 8.5 41c0 6 -0.333008 10.667 -1 14z" />
    <glyph glyph-name="ugrave" unicode="&#xf9;" 
d="M495 465l0.000976562 -465h-123v28c-34 -18.667 -70.667 -28 -110 -28c-32 0 -62.167 6.16699 -90.5 18.5s-53 29 -74 50s-37.5 45.667 -49.5 74s-18 58.5 -18 90.5v232h123v-232c0 -15.333 2.83301 -29.666 8.5 -42.999s13.5 -25 23.5 -35s21.5 -17.833 34.5 -23.5
s27.167 -8.5 42.5 -8.5s29.666 2.83301 42.999 8.5s25 13.5 35 23.5s17.833 21.667 23.5 35s8.5 27.666 8.5 42.999v232h123zM319.001 501h-102l-91 147h102z" />
    <glyph glyph-name="uacute" unicode="&#xfa;" 
d="M495 465l0.000976562 -465h-123v28c-34 -18.667 -70.667 -28 -110 -28c-32 0 -62.167 6.16699 -90.5 18.5s-53 29 -74 50s-37.5 45.667 -49.5 74s-18 58.5 -18 90.5v232h123v-232c0 -15.333 2.83301 -29.666 8.5 -42.999s13.5 -25 23.5 -35s21.5 -17.833 34.5 -23.5
s27.167 -8.5 42.5 -8.5s29.666 2.83301 42.999 8.5s25 13.5 35 23.5s17.833 21.667 23.5 35s8.5 27.666 8.5 42.999v232h123zM297.001 648h102l-91 -147h-102zM297.001 648h102l-91 -147h-102zM297.001 648h102l-91 -147h-102zM297.001 648h102l-91 -147h-102z" />
    <glyph glyph-name="ucircumflex" unicode="&#xfb;" 
d="M495 465l0.000976562 -465h-123v28c-34 -18.667 -70.667 -28 -110 -28c-32 0 -62.167 6.16699 -90.5 18.5s-53 29 -74 50s-37.5 45.667 -49.5 74s-18 58.5 -18 90.5v232h123v-232c0 -15.333 2.83301 -29.666 8.5 -42.999s13.5 -25 23.5 -35s21.5 -17.833 34.5 -23.5
s27.167 -8.5 42.5 -8.5s29.666 2.83301 42.999 8.5s25 13.5 35 23.5s17.833 21.667 23.5 35s8.5 27.666 8.5 42.999v232h123zM120.001 501l91 147h102l91 -147h-102l-40 65l-40 -65h-102zM120.001 501l91 147h102l91 -147h-102l-40 65l-40 -65h-102zM120.001 501l91 147h102
l91 -147h-102l-40 65l-40 -65h-102zM120.001 501l91 147h102l91 -147h-102l-40 65l-40 -65h-102z" />
    <glyph glyph-name="udieresis" unicode="&#xfc;" 
d="M495 465l0.000976562 -465h-123v28c-34 -18.667 -70.667 -28 -110 -28c-32 0 -62.167 6.16699 -90.5 18.5s-53 29 -74 50s-37.5 45.667 -49.5 74s-18 58.5 -18 90.5v232h123v-232c0 -15.333 2.83301 -29.666 8.5 -42.999s13.5 -25 23.5 -35s21.5 -17.833 34.5 -23.5
s27.167 -8.5 42.5 -8.5s29.666 2.83301 42.999 8.5s25 13.5 35 23.5s17.833 21.667 23.5 35s8.5 27.666 8.5 42.999v232h123zM250.001 562c0 -17.333 -6 -31.833 -18 -43.5s-26.667 -17.5 -44 -17.5s-31.833 5.83301 -43.5 17.5s-17.5 26.167 -17.5 43.5s5.83301 32 17.5 44
s26.167 18 43.5 18s32 -6 44 -18s18 -26.667 18 -44zM398.001 562c0 -17.333 -5.83301 -31.833 -17.5 -43.5s-26.167 -17.5 -43.5 -17.5s-32 5.83301 -44 17.5s-18 26.167 -18 43.5s6 32 18 44s26.667 18 44 18s31.833 -6 43.5 -18s17.5 -26.667 17.5 -44z" />
    <glyph glyph-name="yacute" unicode="&#xfd;" horiz-adv-x="523" 
d="M493 464l-0.000976562 -549c0 -32 -6.16699 -62.167 -18.5 -90.5s-29 -53 -50 -74s-45.5 -37.5 -73.5 -49.5s-58 -18 -90 -18s-62 6 -90 18s-52.5 28.5 -73.5 49.5s-37.5 45.667 -49.5 74s-18 58.5 -18 90.5h122c0 -15.333 2.83301 -29.5 8.5 -42.5
s13.5 -24.5 23.5 -34.5s21.5 -17.833 34.5 -23.5s27.167 -8.5 42.5 -8.5c14.667 0 28.667 2.83301 42 8.5s25 13.5 35 23.5s17.833 21.5 23.5 34.5s8.5 27.167 8.5 42.5v114c-33.333 -18.667 -69.666 -28 -108.999 -28c-32 0 -62 6 -90 18s-52.5 28.5 -73.5 49.5
s-37.5 45.667 -49.5 74s-18 58.5 -18 90.5v231h122v-231c0 -15.333 2.83301 -29.5 8.5 -42.5s13.5 -24.5 23.5 -34.5s21.5 -17.833 34.5 -23.5s27.167 -8.5 42.5 -8.5c14.667 0 28.667 2.83301 42 8.5s25 13.5 35 23.5s17.833 21.5 23.5 34.5s8.5 27.167 8.5 42.5v231h123z
M295.999 648h102l-91 -147h-102zM295.999 648h102l-91 -147h-102zM295.999 648h102l-91 -147h-102zM295.999 648h102l-91 -147h-102z" />
    <glyph glyph-name="thorn" unicode="&#xfe;" horiz-adv-x="552" 
d="M276 570c34 0 65.998 -6.16797 95.998 -18.501s56 -29 78 -50s39.5 -45.667 52.5 -74s19.5 -58.5 19.5 -90.5s-6.5 -62.167 -19.5 -90.5s-30.5 -53 -52.5 -74s-48 -37.5 -78 -49.5s-62 -18 -96 -18c-21.333 0 -41.666 2.33301 -60.999 7s-37.666 11.334 -54.999 20.001
v-132h-130v675h130v-133c36 18.667 74.667 28 116 28zM275.998 227.999c16 0 31 2.83301 45 8.5s26.333 13.5 37 23.5s19 21.5 25 34.5s9 27.167 9 42.5s-3 29.666 -9 42.999s-14.333 25 -25 35s-23 17.833 -37 23.5s-29 8.5 -45 8.5s-31 -2.83301 -45 -8.5
s-26.333 -13.5 -37 -23.5s-19 -21.667 -25 -35s-9 -27.666 -9 -42.999s3 -29.5 9 -42.5s14.333 -24.5 25 -34.5s23 -17.833 37 -23.5s29 -8.5 45 -8.5z" />
    <glyph glyph-name="ydieresis" unicode="&#xff;" horiz-adv-x="523" 
d="M493 464l-0.000976562 -549c0 -32 -6.16699 -62.167 -18.5 -90.5s-29 -53 -50 -74s-45.5 -37.5 -73.5 -49.5s-58 -18 -90 -18s-62 6 -90 18s-52.5 28.5 -73.5 49.5s-37.5 45.667 -49.5 74s-18 58.5 -18 90.5h122c0 -15.333 2.83301 -29.5 8.5 -42.5
s13.5 -24.5 23.5 -34.5s21.5 -17.833 34.5 -23.5s27.167 -8.5 42.5 -8.5c14.667 0 28.667 2.83301 42 8.5s25 13.5 35 23.5s17.833 21.5 23.5 34.5s8.5 27.167 8.5 42.5v114c-33.333 -18.667 -69.666 -28 -108.999 -28c-32 0 -62 6 -90 18s-52.5 28.5 -73.5 49.5
s-37.5 45.667 -49.5 74s-18 58.5 -18 90.5v231h122v-231c0 -15.333 2.83301 -29.5 8.5 -42.5s13.5 -24.5 23.5 -34.5s21.5 -17.833 34.5 -23.5s27.167 -8.5 42.5 -8.5c14.667 0 28.667 2.83301 42 8.5s25 13.5 35 23.5s17.833 21.5 23.5 34.5s8.5 27.167 8.5 42.5v231h123z
M248.999 562c0 -17.333 -6 -31.833 -18 -43.5s-26.667 -17.5 -44 -17.5s-31.833 5.83301 -43.5 17.5s-17.5 26.167 -17.5 43.5s5.83301 32 17.5 44s26.167 18 43.5 18s32 -6 44 -18s18 -26.667 18 -44zM396.999 562c0 -17.333 -5.83301 -31.833 -17.5 -43.5
s-26.167 -17.5 -43.5 -17.5s-32 5.83301 -44 17.5s-18 26.167 -18 43.5s6 32 18 44s26.667 18 44 18s31.833 -6 43.5 -18s17.5 -26.667 17.5 -44z" />
    <glyph glyph-name="Amacron" unicode="&#x100;" horiz-adv-x="683" 
d="M482 110h-281l-40 -110h-131l247 675h131l245 -675h-131zM438 233l-96 264l-96 -264h192zM479 718h-275v84h275v-84z" />
    <glyph glyph-name="amacron" unicode="&#x101;" 
d="M495 465v-464.999h-123v27c-16.667 -8.66699 -34.167 -15.334 -52.5 -20.001s-37.5 -7 -57.5 -7c-32 0 -62.167 6 -90.5 18s-53 28.5 -74 49.5s-37.5 45.667 -49.5 74s-18 58.5 -18 90.5s6 62.167 18 90.5s28.5 53 49.5 74s45.667 37.667 74 50s58.5 18.5 90.5 18.5
c39.333 0 76 -9.33301 110 -28v28h123zM262 123.001c15.333 0 29.666 2.83301 42.999 8.5s25 13.5 35 23.5s17.833 21.5 23.5 34.5s8.5 27.167 8.5 42.5s-2.83301 29.666 -8.5 42.999s-13.5 25 -23.5 35s-21.667 17.833 -35 23.5s-27.666 8.5 -42.999 8.5
s-29.5 -2.83301 -42.5 -8.5s-24.5 -13.5 -34.5 -23.5s-17.833 -21.667 -23.5 -35s-8.5 -27.666 -8.5 -42.999s2.83301 -29.5 8.5 -42.5s13.5 -24.5 23.5 -34.5s21.5 -17.833 34.5 -23.5s27.167 -8.5 42.5 -8.5zM400 503.001h-275v84h275v-84z" />
    <glyph glyph-name="Abreve" unicode="&#x102;" horiz-adv-x="683" 
d="M482 110h-281l-40 -110h-131l247 675h131l245 -675h-131zM438 233l-96 264l-96 -264h192zM341 790c20 0 37.167 7 51.5 21s21.5 31.333 21.5 52h74c0 -20 -3.83301 -39 -11.5 -57s-18.167 -33.667 -31.5 -47s-29 -23.833 -47 -31.5s-37 -11.5 -57 -11.5
s-39 3.83301 -57 11.5s-33.667 18.167 -47 31.5s-23.833 29 -31.5 47s-11.5 37 -11.5 57h74c0 -20.667 7.16699 -38 21.5 -52s31.5 -21 51.5 -21z" />
    <glyph glyph-name="abreve" unicode="&#x103;" 
d="M495 465v-464.999h-123v27c-16.667 -8.66699 -34.167 -15.334 -52.5 -20.001s-37.5 -7 -57.5 -7c-32 0 -62.167 6 -90.5 18s-53 28.5 -74 49.5s-37.5 45.667 -49.5 74s-18 58.5 -18 90.5s6 62.167 18 90.5s28.5 53 49.5 74s45.667 37.667 74 50s58.5 18.5 90.5 18.5
c39.333 0 76 -9.33301 110 -28v28h123zM262 123.001c15.333 0 29.666 2.83301 42.999 8.5s25 13.5 35 23.5s17.833 21.5 23.5 34.5s8.5 27.167 8.5 42.5s-2.83301 29.666 -8.5 42.999s-13.5 25 -23.5 35s-21.667 17.833 -35 23.5s-27.666 8.5 -42.999 8.5
s-29.5 -2.83301 -42.5 -8.5s-24.5 -13.5 -34.5 -23.5s-17.833 -21.667 -23.5 -35s-8.5 -27.666 -8.5 -42.999s2.83301 -29.5 8.5 -42.5s13.5 -24.5 23.5 -34.5s21.5 -17.833 34.5 -23.5s27.167 -8.5 42.5 -8.5zM262 575.001c20 0 37.167 7 51.5 21s21.5 31.333 21.5 52h74
c0 -20 -3.83301 -39 -11.5 -57s-18.167 -33.667 -31.5 -47s-29 -23.833 -47 -31.5s-37 -11.5 -57 -11.5s-39 3.83301 -57 11.5s-33.667 18.167 -47 31.5s-23.833 29 -31.5 47s-11.5 37 -11.5 57h74c0 -20.667 7.16699 -38 21.5 -52s31.5 -21 51.5 -21z" />
    <glyph glyph-name="Aogonek" unicode="&#x104;" horiz-adv-x="835" 
d="M805 -187c-14 -10 -29.499 -19.834 -46.499 -29.501s-34.667 -18 -53 -25s-36.833 -12.667 -55.5 -17s-36.667 -6.5 -54 -6.5c-18 0 -35 2.83301 -51 8.5s-30.167 13.834 -42.5 24.501s-22 23.5 -29 38.5s-10.5 32.167 -10.5 51.5c0 26 5.83301 51.167 17.5 75.5
s25.5 46.5 41.5 66.5h131c-9.33301 -7.33301 -20 -16.5 -32 -27.5s-23.333 -23 -34 -36s-19.5 -26.5 -26.5 -40.5s-10.5 -27.333 -10.5 -40c0 -7.33301 1.66699 -13.166 5 -17.499s7.66602 -7.83301 12.999 -10.5s11 -4.33398 17 -5.00098s12 -1 18 -1
c25.333 0 50.833 5.5 76.5 16.5s48.5 24.167 68.5 39.5zM482.001 109.999h-281l-40 -110h-131l247 675h131l245 -675h-131zM438.001 232.999l-96 264l-96 -264h192z" />
    <glyph glyph-name="aogonek" unicode="&#x105;" horiz-adv-x="685" 
d="M495 465v-464.999h-123v27c-16.667 -8.66699 -34.167 -15.334 -52.5 -20.001s-37.5 -7 -57.5 -7c-32 0 -62.167 6 -90.5 18s-53 28.5 -74 49.5s-37.5 45.667 -49.5 74s-18 58.5 -18 90.5s6 62.167 18 90.5s28.5 53 49.5 74s45.667 37.667 74 50s58.5 18.5 90.5 18.5
c39.333 0 76 -9.33301 110 -28v28h123zM262 123.001c15.333 0 29.666 2.83301 42.999 8.5s25 13.5 35 23.5s17.833 21.5 23.5 34.5s8.5 27.167 8.5 42.5s-2.83301 29.666 -8.5 42.999s-13.5 25 -23.5 35s-21.667 17.833 -35 23.5s-27.666 8.5 -42.999 8.5
s-29.5 -2.83301 -42.5 -8.5s-24.5 -13.5 -34.5 -23.5s-17.833 -21.667 -23.5 -35s-8.5 -27.666 -8.5 -42.999s2.83301 -29.5 8.5 -42.5s13.5 -24.5 23.5 -34.5s21.5 -17.833 34.5 -23.5s27.167 -8.5 42.5 -8.5zM655 -186.999
c-29.333 -22 -61.1709 -40.3359 -95.5039 -55.0029s-70.166 -22 -107.499 -22c-19.333 0 -37.166 2.33301 -53.499 7s-30.666 11.834 -42.999 21.501s-22 21.834 -29 36.501s-10.5 32.334 -10.5 53.001c0 26.667 5.5 52.5 16.5 77.5s24.167 47.833 39.5 68.5h123
c-10 -7.33301 -20.5 -16.333 -31.5 -27s-21.167 -22.167 -30.5 -34.5s-17.166 -25.333 -23.499 -39s-9.5 -27.167 -9.5 -40.5c0 -16 5.5 -26.167 16.5 -30.5s23.167 -6.5 36.5 -6.5c25.333 0 50.833 5.5 76.5 16.5s48.5 24.167 68.5 39.5z" />
    <glyph glyph-name="Cacute" unicode="&#x106;" horiz-adv-x="636" 
d="M606 99c-30.667 -30.667 -66.5 -54.832 -107.5 -72.499s-84.833 -26.5 -131.5 -26.5s-90.5 8.83301 -131.5 26.5s-76.667 41.667 -107 72s-54.333 66 -72 107s-26.5 84.833 -26.5 131.5s8.83301 90.5 26.5 131.5s41.667 76.833 72 107.5s66 54.834 107 72.501
s84.833 26.5 131.5 26.5s90.5 -8.83301 131.5 -26.5s76.833 -41.834 107.5 -72.501l-87 -87c-19.333 19.333 -42 34.666 -68 45.999s-54 17 -84 17c-29.333 0 -57 -5.66699 -83 -17s-48.667 -26.833 -68 -46.5s-34.666 -42.5 -45.999 -68.5s-17 -53.667 -17 -83
s5.66699 -57 17 -83s26.666 -48.667 45.999 -68s42 -34.666 68 -45.999s53.667 -17 83 -17c30 0 58 5.66699 84 17s48.667 26.666 68 45.999zM402 863.002h102l-91 -147h-102zM402 863.002h102l-91 -147h-102zM402 863.002h102l-91 -147h-102zM402 863.002h102l-91 -147
h-102z" />
    <glyph glyph-name="cacute" unicode="&#x107;" horiz-adv-x="457" 
d="M262 465c30.667 0 60.5 -6 89.5 -18s54.167 -28.667 75.5 -50l-87 -87c-10.667 10 -22.667 17.833 -36 23.5s-27.333 8.5 -42 8.5c-15.333 0 -29.666 -3 -42.999 -9s-24.833 -14 -34.5 -24s-17.334 -21.667 -23.001 -35s-8.5 -27.333 -8.5 -42
c0 -15.333 2.83301 -29.5 8.5 -42.5s13.5 -24.5 23.5 -34.5s21.5 -17.833 34.5 -23.5s27.167 -8.5 42.5 -8.5c30.667 0 56.667 10.667 78 32l87 -87c-21.333 -21.333 -46.5 -38 -75.5 -50s-58.833 -18 -89.5 -18c-32 0 -62.167 6 -90.5 18s-53 28.5 -74 49.5
s-37.5 45.667 -49.5 74s-18 58.5 -18 90.5s6 62.167 18 90.5s28.5 53 49.5 74s45.667 37.667 74 50s58.5 18.5 90.5 18.5zM293 648h102l-91 -147h-102zM293 648h102l-91 -147h-102zM293 648h102l-91 -147h-102zM293 648h102l-91 -147h-102z" />
    <glyph glyph-name="Ccaron" unicode="&#x10c;" horiz-adv-x="636" 
d="M606 99c-30.667 -30.667 -66.5 -54.832 -107.5 -72.499s-84.833 -26.5 -131.5 -26.5s-90.5 8.83301 -131.5 26.5s-76.667 41.667 -107 72s-54.333 66 -72 107s-26.5 84.833 -26.5 131.5s8.83301 90.5 26.5 131.5s41.667 76.833 72 107.5s66 54.834 107 72.501
s84.833 26.5 131.5 26.5s90.5 -8.83301 131.5 -26.5s76.833 -41.834 107.5 -72.501l-87 -87c-19.333 19.333 -42 34.666 -68 45.999s-54 17 -84 17c-29.333 0 -57 -5.66699 -83 -17s-48.667 -26.833 -68 -46.5s-34.666 -42.5 -45.999 -68.5s-17 -53.667 -17 -83
s5.66699 -57 17 -83s26.666 -48.667 45.999 -68s42 -34.666 68 -45.999s53.667 -17 83 -17c30 0 58 5.66699 84 17s48.667 26.666 68 45.999zM510 863.002l-91 -147h-102l-91 147h102l40 -66l40 66h102zM510 863.002l-91 -147h-102l-91 147h102l40 -66l40 66h102z
M510 863.002l-91 -147h-102l-91 147h102l40 -66l40 66h102zM510 863.002l-91 -147h-102l-91 147h102l40 -66l40 66h102z" />
    <glyph glyph-name="ccaron" unicode="&#x10d;" horiz-adv-x="457" 
d="M262 465c30.667 0 60.5 -6 89.5 -18s54.167 -28.667 75.5 -50l-87 -87c-10.667 10 -22.667 17.833 -36 23.5s-27.333 8.5 -42 8.5c-15.333 0 -29.666 -3 -42.999 -9s-24.833 -14 -34.5 -24s-17.334 -21.667 -23.001 -35s-8.5 -27.333 -8.5 -42
c0 -15.333 2.83301 -29.5 8.5 -42.5s13.5 -24.5 23.5 -34.5s21.5 -17.833 34.5 -23.5s27.167 -8.5 42.5 -8.5c30.667 0 56.667 10.667 78 32l87 -87c-21.333 -21.333 -46.5 -38 -75.5 -50s-58.833 -18 -89.5 -18c-32 0 -62.167 6 -90.5 18s-53 28.5 -74 49.5
s-37.5 45.667 -49.5 74s-18 58.5 -18 90.5s6 62.167 18 90.5s28.5 53 49.5 74s45.667 37.667 74 50s58.5 18.5 90.5 18.5zM400 648l-91 -147h-102l-91 147h102l40 -66l40 66h102zM400 648l-91 -147h-102l-91 147h102l40 -66l40 66h102zM400 648l-91 -147h-102l-91 147h102
l40 -66l40 66h102zM400 648l-91 -147h-102l-91 147h102l40 -66l40 66h102z" />
    <glyph glyph-name="Dcaron" unicode="&#x10e;" horiz-adv-x="648" 
d="M281 675c43.333 -1.33301 85.1709 -10.5 125.504 -27.5s76.166 -40.333 107.499 -70s56.5 -65 75.5 -106s28.5 -85.833 28.5 -134.5c0 -46.667 -8.83301 -90.5 -26.5 -131.5s-41.834 -76.667 -72.501 -107s-66.334 -54.333 -107.001 -72s-84.334 -26.5 -131.001 -26.5
h-251v675h251zM281.005 123c29.333 0 57 5.66797 83 17.001s48.833 26.666 68.5 45.999s35.167 42 46.5 68s17 53.667 17 83s-5.66699 57 -17 83s-26.833 48.833 -46.5 68.5s-42.5 35.167 -68.5 46.5s-53.667 17 -83 17h-128v-429h128zM406.005 863.001l-91 -147h-102
l-91 147h102l40 -66l40 66h102zM406.005 863.001l-91 -147h-102l-91 147h102l40 -66l40 66h102zM406.005 863.001l-91 -147h-102l-91 147h102l40 -66l40 66h102zM406.005 863.001l-91 -147h-102l-91 147h102l40 -66l40 66h102z" />
    <glyph glyph-name="dcaron" unicode="&#x10f;" horiz-adv-x="748" 
d="M495 675v-674.999h-123v27c-16.667 -8.66699 -34.167 -15.334 -52.5 -20.001s-37.5 -7 -57.5 -7c-32 0 -62.167 6 -90.5 18s-53 28.5 -74 49.5s-37.5 45.667 -49.5 74s-18 58.5 -18 90.5s6 62.167 18 90.5s28.5 53 49.5 74s45.667 37.667 74 50s58.5 18.5 90.5 18.5
c39.333 0 76 -9.33301 110 -28v238h123zM262 123.001c15.333 0 29.666 2.83301 42.999 8.5s25 13.5 35 23.5s17.833 21.5 23.5 34.5s8.5 27.167 8.5 42.5s-2.83301 29.666 -8.5 42.999s-13.5 25 -23.5 35s-21.667 17.833 -35 23.5s-27.666 8.5 -42.999 8.5
s-29.5 -2.83301 -42.5 -8.5s-24.5 -13.5 -34.5 -23.5s-17.833 -21.667 -23.5 -35s-8.5 -27.666 -8.5 -42.999s2.83301 -29.5 8.5 -42.5s13.5 -24.5 23.5 -34.5s21.5 -17.833 34.5 -23.5s27.167 -8.5 42.5 -8.5zM653 613.001c0 -1.33301 -0.167969 -3.33301 -0.500977 -6
s-1.66602 -8.5 -3.99902 -17.5l-10.5 -40l-19 -73.5h-27v76c-17.333 0 -32 5.83301 -44 17.5s-18 26.167 -18 43.5s6 32 18 44s26.667 18 44 18s31.833 -6 43.5 -18s17.5 -26.667 17.5 -44z" />
    <glyph glyph-name="Dcroat" unicode="&#x110;" horiz-adv-x="761" 
d="M394 675c43.333 -1.33301 85.1709 -10.5 125.504 -27.5s76.166 -40.333 107.499 -70s56.5 -65 75.5 -106s28.5 -85.833 28.5 -134.5c0 -46.667 -8.83301 -90.5 -26.5 -131.5s-41.834 -76.667 -72.501 -107s-66.334 -54.333 -107.001 -72s-84.334 -26.5 -131.001 -26.5
h-251v283h-113v109h113v283h251zM394.005 123c29.333 0 57 5.66797 83 17.001s48.833 26.666 68.5 45.999s35.167 42 46.5 68s17 53.667 17 83s-5.66699 57 -17 83s-26.833 48.833 -46.5 68.5s-42.5 35.167 -68.5 46.5s-53.667 17 -83 17h-128v-160h113v-109h-113v-160h128z
" />
    <glyph glyph-name="dcroat" unicode="&#x111;" horiz-adv-x="608" 
d="M578 492l-83 0.000976562v-492h-123v27c-16.667 -8.66699 -34.167 -15.334 -52.5 -20.001s-37.5 -7 -57.5 -7c-32 0 -62.167 6 -90.5 18s-53 28.5 -74 49.5s-37.5 45.667 -49.5 74s-18 58.5 -18 90.5s6 62 18 90s28.5 52.5 49.5 73.5s45.667 37.667 74 50
s58.5 18.5 90.5 18.5c40 0 76.667 -9 110 -27v55h-84v109h84v73h123v-73h83v-109zM262 123.001c15.333 0 29.666 2.83301 42.999 8.5s25 13.5 35 23.5s17.833 21.5 23.5 34.5s8.5 27.167 8.5 42.5c0 14.667 -2.83301 28.667 -8.5 42s-13.5 25 -23.5 35s-21.667 18 -35 24
s-27.666 9 -42.999 9s-29.5 -3 -42.5 -9s-24.5 -14 -34.5 -24s-17.833 -21.667 -23.5 -35s-8.5 -27.333 -8.5 -42c0 -15.333 2.83301 -29.5 8.5 -42.5s13.5 -24.5 23.5 -34.5s21.5 -17.833 34.5 -23.5s27.167 -8.5 42.5 -8.5z" />
    <glyph glyph-name="Emacron" unicode="&#x112;" horiz-adv-x="574" 
d="M153 552v-128h287v-123h-287v-178h391v-123h-514v674h514v-123zM424 718h-275v84h275v-84z" />
    <glyph glyph-name="emacron" unicode="&#x113;" horiz-adv-x="524" 
d="M262 465c32 0 62 -6.33203 90 -18.999s52.5 -29.5 73.5 -50.5s37.667 -45.667 50 -74s18.5 -57.833 18.5 -88.5c0 -20.667 -3 -41 -9 -61h-313c9.33301 -14.667 21.833 -26.334 37.5 -35.001s33.167 -13 52.5 -13c15.333 0 29.5 2.83301 42.5 8.5s24.5 13.5 34.5 23.5
l87 -87c-21.333 -21.333 -46 -38 -74 -50s-58 -18 -90 -18s-62.167 6 -90.5 18s-53 28.5 -74 49.5s-37.5 45.667 -49.5 74s-18 58.5 -18 90.5s6 62 18 90s28.5 52.5 49.5 73.5s45.667 37.667 74 50s58.5 18.5 90.5 18.5zM262 342.001c-19.333 0 -36.833 -4.33301 -52.5 -13
s-28.167 -20.334 -37.5 -35.001h180c-9.33301 14.667 -22 26.334 -38 35.001s-33.333 13 -52 13zM399 503.001h-275v84h275v-84z" />
    <glyph glyph-name="Edotaccent" unicode="&#x116;" horiz-adv-x="574" 
d="M153 552v-128h287v-123h-287v-178h391v-123h-514v674h514v-123zM348 777c0 -17.333 -6 -31.833 -18 -43.5s-26.333 -17.5 -43 -17.5c-17.333 0 -32 5.83301 -44 17.5s-18 26.167 -18 43.5s6 31.833 18 43.5s26.667 17.5 44 17.5c16.667 0 31 -5.83301 43 -17.5
s18 -26.167 18 -43.5z" />
    <glyph glyph-name="edotaccent" unicode="&#x117;" horiz-adv-x="524" 
d="M262 465c32 0 62 -6.33203 90 -18.999s52.5 -29.5 73.5 -50.5s37.667 -45.667 50 -74s18.5 -57.833 18.5 -88.5c0 -20.667 -3 -41 -9 -61h-313c9.33301 -14.667 21.833 -26.334 37.5 -35.001s33.167 -13 52.5 -13c15.333 0 29.5 2.83301 42.5 8.5s24.5 13.5 34.5 23.5
l87 -87c-21.333 -21.333 -46 -38 -74 -50s-58 -18 -90 -18s-62.167 6 -90.5 18s-53 28.5 -74 49.5s-37.5 45.667 -49.5 74s-18 58.5 -18 90.5s6 62 18 90s28.5 52.5 49.5 73.5s45.667 37.667 74 50s58.5 18.5 90.5 18.5zM262 342.001c-19.333 0 -36.833 -4.33301 -52.5 -13
s-28.167 -20.334 -37.5 -35.001h180c-9.33301 14.667 -22 26.334 -38 35.001s-33.333 13 -52 13zM323 562.001c0 -17.333 -6 -31.833 -18 -43.5s-26.333 -17.5 -43 -17.5c-17.333 0 -32 5.83301 -44 17.5s-18 26.167 -18 43.5s6 31.833 18 43.5s26.667 17.5 44 17.5
c16.667 0 31 -5.83301 43 -17.5s18 -26.167 18 -43.5z" />
    <glyph glyph-name="Eogonek" unicode="&#x118;" horiz-adv-x="734" 
d="M153 552v-128h287v-123h-287v-178h391v-123h-514v674h514v-123zM704 -186c-29.333 -22 -61.1709 -40.3359 -95.5039 -55.0029s-70.166 -22 -107.499 -22c-19.333 0 -37.166 2.33301 -53.499 7s-30.666 11.834 -42.999 21.501s-22 21.834 -29 36.501
s-10.5 32.334 -10.5 53.001c0 26.667 5.5 52.5 16.5 77.5s24.167 47.833 39.5 68.5h123c-10 -7.33301 -20.5 -16.333 -31.5 -27s-21.167 -22.167 -30.5 -34.5s-17.166 -25.333 -23.499 -39s-9.5 -27.167 -9.5 -40.5c0 -16 5.5 -26.167 16.5 -30.5s23.167 -6.5 36.5 -6.5
c25.333 0 50.833 5.5 76.5 16.5s48.5 24.167 68.5 39.5z" />
    <glyph glyph-name="eogonek" unicode="&#x119;" horiz-adv-x="557" 
d="M527 -187c-14 -10 -29.501 -19.834 -46.501 -29.501s-34.667 -18 -53 -25s-36.833 -12.667 -55.5 -17s-36.667 -6.5 -54 -6.5c-18 0 -35 2.83301 -51 8.5s-30 13.667 -42 24s-21.5 23 -28.5 38s-10.5 32.167 -10.5 51.5c0 26.667 5.83301 52.834 17.5 78.501
s25.834 48.5 42.501 68.5l180 65c-10 -9.33301 -23.5 -23.5 -40.5 -42.5s-33.667 -39.5 -50 -61.5s-30.5 -43.667 -42.5 -65s-18 -39 -18 -53c0 -5.33301 1.83301 -9.66602 5.5 -12.999s8.16699 -5.83301 13.5 -7.5s10.833 -2.83398 16.5 -3.50098s10.5 -1 14.5 -1
c25.333 0 50.833 5.5 76.5 16.5s48.5 24.167 68.5 39.5zM261.999 464.999c32 0 62 -6.33203 90 -18.999s52.5 -29.5 73.5 -50.5s37.667 -45.667 50 -74s18.5 -57.833 18.5 -88.5c0 -20.667 -3 -41 -9 -61h-313c9.33301 -14.667 21.833 -26.334 37.5 -35.001
s33.167 -13 52.5 -13c15.333 0 29.5 2.83301 42.5 8.5s24.5 13.5 34.5 23.5l87 -87c-21.333 -21.333 -46 -38 -74 -50s-58 -18 -90 -18s-62.167 6 -90.5 18s-53 28.5 -74 49.5s-37.5 45.667 -49.5 74s-18 58.5 -18 90.5s6 62 18 90s28.5 52.5 49.5 73.5s45.667 37.667 74 50
s58.5 18.5 90.5 18.5zM261.999 342c-19.333 0 -36.833 -4.33301 -52.5 -13s-28.167 -20.334 -37.5 -35.001h180c-9.33301 14.667 -22 26.334 -38 35.001s-33.333 13 -52 13z" />
    <glyph glyph-name="Ecaron" unicode="&#x11a;" horiz-adv-x="574" 
d="M153 552v-128h287v-123h-287v-178h391v-123h-514v674h514v-123zM428 863l-91 -147h-102l-91 147h102l40 -66l40 66h102zM428 863l-91 -147h-102l-91 147h102l40 -66l40 66h102zM428 863l-91 -147h-102l-91 147h102l40 -66l40 66h102zM428 863l-91 -147h-102l-91 147h102
l40 -66l40 66h102z" />
    <glyph glyph-name="ecaron" unicode="&#x11b;" horiz-adv-x="524" 
d="M262 465c32 0 62 -6.33203 90 -18.999s52.5 -29.5 73.5 -50.5s37.667 -45.667 50 -74s18.5 -57.833 18.5 -88.5c0 -20.667 -3 -41 -9 -61h-313c9.33301 -14.667 21.833 -26.334 37.5 -35.001s33.167 -13 52.5 -13c15.333 0 29.5 2.83301 42.5 8.5s24.5 13.5 34.5 23.5
l87 -87c-21.333 -21.333 -46 -38 -74 -50s-58 -18 -90 -18s-62.167 6 -90.5 18s-53 28.5 -74 49.5s-37.5 45.667 -49.5 74s-18 58.5 -18 90.5s6 62 18 90s28.5 52.5 49.5 73.5s45.667 37.667 74 50s58.5 18.5 90.5 18.5zM262 342.001c-19.333 0 -36.833 -4.33301 -52.5 -13
s-28.167 -20.334 -37.5 -35.001h180c-9.33301 14.667 -22 26.334 -38 35.001s-33.333 13 -52 13zM400 648.001l-91 -147h-102l-91 147h102l40 -66l40 66h102zM400 648.001l-91 -147h-102l-91 147h102l40 -66l40 66h102zM400 648.001l-91 -147h-102l-91 147h102l40 -66l40 66
h102zM400 648.001l-91 -147h-102l-91 147h102l40 -66l40 66h102z" />
    <glyph glyph-name="Gbreve" unicode="&#x11e;" horiz-adv-x="672" 
d="M355 399l286.998 -0.00390625v-398h-123v36c-23.333 -11.333 -47.5 -20.166 -72.5 -26.499s-51.5 -9.5 -79.5 -9.5c-46.667 0 -90.5 8.83301 -131.5 26.5s-76.667 41.667 -107 72s-54.333 66 -72 107s-26.5 84.833 -26.5 131.5s8.83301 90.334 26.5 131.001
s41.667 76.334 72 107.001s66 54.834 107 72.501s84.833 26.5 131.5 26.5s90.334 -8.83301 131.001 -26.5s76.334 -41.834 107.001 -72.501l-87 -87c-19.333 19.333 -41.833 34.666 -67.5 45.999s-53.5 17 -83.5 17c-29.333 0 -57 -5.66699 -83 -17
s-48.667 -26.666 -68 -45.999s-34.666 -42 -45.999 -68s-17 -53.667 -17 -83s5.66699 -57 17 -83s26.666 -48.667 45.999 -68s42 -34.666 68 -45.999s53.667 -17 83 -17c30 0 57.833 5.5 83.5 16.5s48.5 25.833 68.5 44.5v92h-164v122zM355.998 789.996
c20 0 37.167 7 51.5 21s21.5 31.333 21.5 52h74c0 -20 -3.83301 -39 -11.5 -57s-18.167 -33.667 -31.5 -47s-29 -23.833 -47 -31.5s-37 -11.5 -57 -11.5s-39 3.83301 -57 11.5s-33.667 18.167 -47 31.5s-23.833 29 -31.5 47s-11.5 37 -11.5 57h74
c0 -20.667 7.16699 -38 21.5 -52s31.5 -21 51.5 -21z" />
    <glyph glyph-name="gbreve" unicode="&#x11f;" horiz-adv-x="524" 
d="M494 465v-550.998c0 -32 -6.16699 -62.167 -18.5 -90.5s-29 -53 -50 -74s-45.5 -37.5 -73.5 -49.5s-58 -18 -90 -18s-62.167 6 -90.5 18s-53 28.5 -74 49.5s-37.5 45.667 -49.5 74s-18 58.5 -18 90.5h123c0 -15.333 2.83301 -29.5 8.5 -42.5s13.5 -24.5 23.5 -34.5
s21.5 -17.833 34.5 -23.5s27.167 -8.5 42.5 -8.5c14.667 0 28.667 2.83301 42 8.5s25 13.5 35 23.5s17.833 21.5 23.5 34.5s8.5 27.167 8.5 42.5v114c-16 -8.66699 -33.167 -15.334 -51.5 -20.001s-37.5 -7 -57.5 -7c-32 0 -62.167 6 -90.5 18s-53 28.5 -74 49.5
s-37.5 45.667 -49.5 74s-18 58.5 -18 90.5s6 62 18 90s28.5 52.5 49.5 73.5s45.667 37.667 74 50s58.5 18.5 90.5 18.5c20 0 39.167 -2.33301 57.5 -7s35.5 -11.334 51.5 -20.001v27h123zM262 124.002c14.667 0 28.667 2.83301 42 8.5s25 13.5 35 23.5
s17.833 21.5 23.5 34.5s8.5 27.167 8.5 42.5c0 14.667 -2.83301 28.667 -8.5 42s-13.5 25 -23.5 35s-21.667 17.833 -35 23.5s-27.333 8.5 -42 8.5c-15.333 0 -29.5 -2.83301 -42.5 -8.5s-24.5 -13.5 -34.5 -23.5s-17.833 -21.667 -23.5 -35s-8.5 -27.333 -8.5 -42
c0 -15.333 2.83301 -29.5 8.5 -42.5s13.5 -24.5 23.5 -34.5s21.5 -17.833 34.5 -23.5s27.167 -8.5 42.5 -8.5zM262 575.002c20 0 37.167 7 51.5 21s21.5 31.333 21.5 52h74c0 -20 -3.83301 -39 -11.5 -57s-18.167 -33.667 -31.5 -47s-29 -23.833 -47 -31.5
s-37 -11.5 -57 -11.5s-39 3.83301 -57 11.5s-33.667 18.167 -47 31.5s-23.833 29 -31.5 47s-11.5 37 -11.5 57h74c0 -20.667 7.16699 -38 21.5 -52s31.5 -21 51.5 -21z" />
    <glyph glyph-name="uni0122" unicode="&#x122;" horiz-adv-x="672" 
d="M642 399l-0.00195312 -398.004h-123v36c-23.333 -11.333 -47.5 -20.166 -72.5 -26.499s-51.5 -9.5 -79.5 -9.5c-46.667 0 -90.5 8.83301 -131.5 26.5s-76.667 41.667 -107 72s-54.333 66 -72 107s-26.5 84.833 -26.5 131.5s8.83301 90.334 26.5 131.001
s41.667 76.334 72 107.001s66 54.834 107 72.501s84.833 26.5 131.5 26.5s90.334 -8.83301 131.001 -26.5s76.334 -41.834 107.001 -72.501l-87 -87c-19.333 19.333 -41.833 34.666 -67.5 45.999s-53.5 17 -83.5 17c-29.333 0 -57 -5.66699 -83 -17
s-48.667 -26.666 -68 -45.999s-34.666 -42 -45.999 -68s-17 -53.667 -17 -83s5.66699 -57 17 -83s26.666 -48.667 45.999 -68s42 -34.666 68 -45.999s53.667 -17 83 -17c30 0 57.833 5.5 83.5 16.5s48.5 25.833 68.5 44.5v92h-164v122h287zM427.998 -88.0039
c0 -1.33301 -0.167969 -3.5 -0.500977 -6.5s-1.66602 -9 -3.99902 -18l-10.5 -40l-20 -73.5h-27v76c-17.333 0 -31.833 6 -43.5 18s-17.5 26.667 -17.5 44s5.83301 31.833 17.5 43.5s26.167 17.5 43.5 17.5s32 -5.83301 44 -17.5s18 -26.167 18 -43.5z" />
    <glyph glyph-name="uni0123" unicode="&#x123;" horiz-adv-x="524" 
d="M494 465v-550.998c0 -32 -6.16699 -62.167 -18.5 -90.5s-29 -53 -50 -74s-45.5 -37.5 -73.5 -49.5s-58 -18 -90 -18s-62.167 6 -90.5 18s-53 28.5 -74 49.5s-37.5 45.667 -49.5 74s-18 58.5 -18 90.5h123c0 -15.333 2.83301 -29.5 8.5 -42.5s13.5 -24.5 23.5 -34.5
s21.5 -17.833 34.5 -23.5s27.167 -8.5 42.5 -8.5c14.667 0 28.667 2.83301 42 8.5s25 13.5 35 23.5s17.833 21.5 23.5 34.5s8.5 27.167 8.5 42.5v114c-16 -8.66699 -33.167 -15.334 -51.5 -20.001s-37.5 -7 -57.5 -7c-32 0 -62.167 6 -90.5 18s-53 28.5 -74 49.5
s-37.5 45.667 -49.5 74s-18 58.5 -18 90.5s6 62 18 90s28.5 52.5 49.5 73.5s45.667 37.667 74 50s58.5 18.5 90.5 18.5c20 0 39.167 -2.33301 57.5 -7s35.5 -11.334 51.5 -20.001v27h123zM262 124.002c14.667 0 28.667 2.83301 42 8.5s25 13.5 35 23.5
s17.833 21.5 23.5 34.5s8.5 27.167 8.5 42.5c0 14.667 -2.83301 28.667 -8.5 42s-13.5 25 -23.5 35s-21.667 17.833 -35 23.5s-27.333 8.5 -42 8.5c-15.333 0 -29.5 -2.83301 -42.5 -8.5s-24.5 -13.5 -34.5 -23.5s-17.833 -21.667 -23.5 -35s-8.5 -27.333 -8.5 -42
c0 -15.333 2.83301 -29.5 8.5 -42.5s13.5 -24.5 23.5 -34.5s21.5 -17.833 34.5 -23.5s27.167 -8.5 42.5 -8.5zM204 563.002c0 1.33301 0.167969 3.33301 0.500977 6s1.66602 8.5 3.99902 17.5l10.5 40.5l19 74h27v-76c17.333 0 32 -6 44 -18s18 -26.667 18 -44
s-6 -31.833 -18 -43.5s-26.667 -17.5 -44 -17.5s-31.833 5.83301 -43.5 17.5s-17.5 26.167 -17.5 43.5z" />
    <glyph glyph-name="Imacron" unicode="&#x12a;" horiz-adv-x="335" 
d="M229 0h-123v675h123v-675zM305 718h-275v84h275v-84z" />
    <glyph glyph-name="imacron" unicode="&#x12b;" horiz-adv-x="335" 
d="M230 0h-123v465h123v-465zM305 503h-275v84h275v-84z" />
    <glyph glyph-name="Iogonek" unicode="&#x12e;" horiz-adv-x="402" 
d="M212 0h-123v675h123v-675zM372 -187c-29.333 -22 -61.1709 -40.3359 -95.5039 -55.0029s-70.166 -22 -107.499 -22c-19.333 0 -37.166 2.33301 -53.499 7s-30.666 11.834 -42.999 21.501s-22 21.834 -29 36.501s-10.5 32.334 -10.5 53.001c0 26.667 5.5 52.5 16.5 77.5
s24.167 47.833 39.5 68.5h123c-10 -7.33301 -20.5 -16.333 -31.5 -27s-21.167 -22.167 -30.5 -34.5s-17.166 -25.333 -23.499 -39s-9.5 -27.167 -9.5 -40.5c0 -16 5.5 -26.167 16.5 -30.5s23.167 -6.5 36.5 -6.5c25.333 0 50.833 5.5 76.5 16.5s48.5 24.167 68.5 39.5z" />
    <glyph glyph-name="iogonek" unicode="&#x12f;" horiz-adv-x="402" 
d="M212 0h-123v465h123v-465zM212 559c0 -17.333 -6 -32 -18 -44s-26.667 -18 -44 -18s-31.833 6 -43.5 18s-17.5 26.667 -17.5 44s5.83301 31.833 17.5 43.5s26.167 17.5 43.5 17.5s32 -5.83301 44 -17.5s18 -26.167 18 -43.5zM372 -187
c-29.333 -22 -61.1709 -40.3359 -95.5039 -55.0029s-70.166 -22 -107.499 -22c-19.333 0 -37.166 2.33301 -53.499 7s-30.666 11.834 -42.999 21.501s-22 21.834 -29 36.501s-10.5 32.334 -10.5 53.001c0 26.667 5.5 52.5 16.5 77.5s24.167 47.833 39.5 68.5h123
c-10 -7.33301 -20.5 -16.333 -31.5 -27s-21.167 -22.167 -30.5 -34.5s-17.166 -25.333 -23.499 -39s-9.5 -27.167 -9.5 -40.5c0 -16 5.5 -26.167 16.5 -30.5s23.167 -6.5 36.5 -6.5c25.333 0 50.833 5.5 76.5 16.5s48.5 24.167 68.5 39.5z" />
    <glyph glyph-name="Idotaccent" unicode="&#x130;" horiz-adv-x="183" 
d="M153 0h-123v675h123v-675zM153 777c0 -17.333 -6 -31.833 -18 -43.5s-26.333 -17.5 -43 -17.5c-17.333 0 -32 5.83301 -44 17.5s-18 26.167 -18 43.5s6 31.833 18 43.5s26.667 17.5 44 17.5c16.667 0 31 -5.83301 43 -17.5s18 -26.167 18 -43.5z" />
    <glyph glyph-name="dotlessi" unicode="&#x131;" horiz-adv-x="341" 
d="M311 464v-464h-124v341h-157v123h281z" />
    <glyph glyph-name="uni0136" unicode="&#x136;" horiz-adv-x="611" 
d="M235 300l-82 -103v-197h-123v674h123v-280l222 280h157l-217 -273l266 -401h-147zM338 -88c0 -1.33301 -0.167969 -3.5 -0.500977 -6.5s-1.66602 -9 -3.99902 -18l-10.5 -40l-20 -73.5h-27v76c-17.333 0 -31.833 6 -43.5 18s-17.5 26.667 -17.5 44
s5.83301 31.833 17.5 43.5s26.167 17.5 43.5 17.5s32 -5.83301 44 -17.5s18 -26.167 18 -43.5z" />
    <glyph glyph-name="uni0137" unicode="&#x137;" horiz-adv-x="516" 
d="M189 198l-36 -36v-162h-123v675h123v-339l130 130h174l-180 -180l209 -286h-152zM298 -88c0 -1.33301 -0.167969 -3.5 -0.500977 -6.5s-1.66602 -9 -3.99902 -18l-10.5 -40l-20 -73.5h-27v76c-17.333 0 -31.833 6 -43.5 18s-17.5 26.667 -17.5 44
s5.83301 31.833 17.5 43.5s26.167 17.5 43.5 17.5s32 -5.83301 44 -17.5s18 -26.167 18 -43.5z" />
    <glyph glyph-name="Lacute" unicode="&#x139;" horiz-adv-x="575" 
d="M545 122v-121h-515v674h123v-553h392zM133 863h102l-91 -147h-102zM133 863h102l-91 -147h-102zM133 863h102l-91 -147h-102zM133 863h102l-91 -147h-102z" />
    <glyph glyph-name="lacute" unicode="&#x13a;" horiz-adv-x="263" 
d="M153 0h-123v675h123v-675zM131 863h102l-91 -147h-102zM131 863h102l-91 -147h-102zM131 863h102l-91 -147h-102zM131 863h102l-91 -147h-102z" />
    <glyph glyph-name="uni013B" unicode="&#x13b;" horiz-adv-x="575" 
d="M545 122v-121h-515v674h123v-553h392zM338 -88c0 -1.33301 -0.167969 -3.5 -0.500977 -6.5s-1.66602 -9 -3.99902 -18l-10.5 -40l-20 -73.5h-27v76c-17.333 0 -31.833 6 -43.5 18s-17.5 26.667 -17.5 44s5.83301 31.833 17.5 43.5s26.167 17.5 43.5 17.5
s32 -5.83301 44 -17.5s18 -26.167 18 -43.5z" />
    <glyph glyph-name="uni013C" unicode="&#x13c;" horiz-adv-x="184" 
d="M153 0h-123v675h123v-675zM154 -88c0 17.333 -5.99902 31.833 -17.999 43.5s-26.667 17.5 -44 17.5s-31.833 -5.83301 -43.5 -17.5s-17.5 -26.167 -17.5 -43.5s5.83301 -32 17.5 -44s26.167 -18 43.5 -18v-76h27l20 73.5l10.5 40c2.33301 9 3.66602 15 3.99902 18
s0.5 5.16699 0.5 6.5z" />
    <glyph glyph-name="Lcaron" unicode="&#x13d;" horiz-adv-x="657" 
d="M627 122v-121h-515v674h123v-553h392zM316 863l-91 -147h-102l-91 147h102l40 -66l40 66h102zM316 863l-91 -147h-102l-91 147h102l40 -66l40 66h102zM316 863l-91 -147h-102l-91 147h102l40 -66l40 66h102zM316 863l-91 -147h-102l-91 147h102l40 -66l40 66h102z" />
    <glyph glyph-name="lcaron" unicode="&#x13e;" horiz-adv-x="406" 
d="M153 0h-123v675h123v-675zM303 613c0 -1.33301 -0.167969 -3.33301 -0.500977 -6s-1.66602 -8.5 -3.99902 -17.5l-10.5 -40l-19 -73.5h-27v76c-17.333 0 -32 5.83301 -44 17.5s-18 26.167 -18 43.5s6 32 18 44s26.667 18 44 18s31.833 -6 43.5 -18s17.5 -26.667 17.5 -44
z" />
    <glyph glyph-name="Lslash" unicode="&#x141;" horiz-adv-x="676" 
d="M646 122v-121h-515v171l-101 -40v133l101 40v370h123v-322l193 76v-132l-193 -76v-99h392z" />
    <glyph glyph-name="lslash" unicode="&#x142;" horiz-adv-x="477" 
d="M447 297l-147 -58v-238h-123v189l-147 -58v133l147 58v352h123v-304l147 58v-132z" />
    <glyph glyph-name="Nacute" unicode="&#x143;" horiz-adv-x="573" 
d="M543 675v-675h-123l-267 438v-438h-123v675h123l267 -438v438h123zM317 863h102l-91 -147h-102zM317 863h102l-91 -147h-102zM317 863h102l-91 -147h-102zM317 863h102l-91 -147h-102z" />
    <glyph glyph-name="nacute" unicode="&#x144;" horiz-adv-x="524" 
d="M262 464c32 0 62 -6.16797 90 -18.501s52.5 -29 73.5 -50s37.667 -45.5 50 -73.5s18.5 -58 18.5 -90v-232h-123v232c0 14.667 -2.83301 28.667 -8.5 42s-13.5 25 -23.5 35s-21.667 17.833 -35 23.5s-27.333 8.5 -42 8.5c-15.333 0 -29.5 -2.83301 -42.5 -8.5
s-24.5 -13.5 -34.5 -23.5s-17.833 -21.667 -23.5 -35s-8.5 -27.333 -8.5 -42v-232h-123v463h123v-26c16 8.66699 33.333 15.334 52 20.001s37.667 7 57 7zM276 647.999h102l-91 -147h-102zM276 647.999h102l-91 -147h-102zM276 647.999h102l-91 -147h-102zM276 647.999h102
l-91 -147h-102z" />
    <glyph glyph-name="uni0145" unicode="&#x145;" horiz-adv-x="573" 
d="M543 675v-675h-123l-267 438v-438h-123v675h123l267 -438v438h123zM338 -88c0 -1.33301 -0.167969 -3.5 -0.500977 -6.5s-1.66602 -9 -3.99902 -18l-10.5 -40l-20 -73.5h-27v76c-17.333 0 -31.833 6 -43.5 18s-17.5 26.667 -17.5 44s5.83301 31.833 17.5 43.5
s26.167 17.5 43.5 17.5s32 -5.83301 44 -17.5s18 -26.167 18 -43.5z" />
    <glyph glyph-name="uni0146" unicode="&#x146;" horiz-adv-x="524" 
d="M262 464c32 0 62 -6.16797 90 -18.501s52.5 -29 73.5 -50s37.667 -45.5 50 -73.5s18.5 -58 18.5 -90v-232h-123v232c0 14.667 -2.83301 28.667 -8.5 42s-13.5 25 -23.5 35s-21.667 17.833 -35 23.5s-27.333 8.5 -42 8.5c-15.333 0 -29.5 -2.83301 -42.5 -8.5
s-24.5 -13.5 -34.5 -23.5s-17.833 -21.667 -23.5 -35s-8.5 -27.333 -8.5 -42v-232h-123v463h123v-26c16 8.66699 33.333 15.334 52 20.001s37.667 7 57 7zM318 -88.001c0 -1.33301 -0.167969 -3.5 -0.500977 -6.5s-1.66602 -9 -3.99902 -18l-10.5 -40l-20 -73.5h-27v76
c-17.333 0 -31.833 6 -43.5 18s-17.5 26.667 -17.5 44s5.83301 31.833 17.5 43.5s26.167 17.5 43.5 17.5s32 -5.83301 44 -17.5s18 -26.167 18 -43.5z" />
    <glyph glyph-name="Ncaron" unicode="&#x147;" horiz-adv-x="573" 
d="M543 675v-675h-123l-267 438v-438h-123v675h123l267 -438v438h123zM428 863l-91 -147h-102l-91 147h102l40 -66l40 66h102zM428 863l-91 -147h-102l-91 147h102l40 -66l40 66h102zM428 863l-91 -147h-102l-91 147h102l40 -66l40 66h102zM428 863l-91 -147h-102l-91 147
h102l40 -66l40 66h102z" />
    <glyph glyph-name="ncaron" unicode="&#x148;" horiz-adv-x="524" 
d="M262 464c32 0 62 -6.16797 90 -18.501s52.5 -29 73.5 -50s37.667 -45.5 50 -73.5s18.5 -58 18.5 -90v-232h-123v232c0 14.667 -2.83301 28.667 -8.5 42s-13.5 25 -23.5 35s-21.667 17.833 -35 23.5s-27.333 8.5 -42 8.5c-15.333 0 -29.5 -2.83301 -42.5 -8.5
s-24.5 -13.5 -34.5 -23.5s-17.833 -21.667 -23.5 -35s-8.5 -27.333 -8.5 -42v-232h-123v463h123v-26c16 8.66699 33.333 15.334 52 20.001s37.667 7 57 7zM404 647.999l-91 -147h-102l-91 147h102l40 -66l40 66h102zM404 647.999l-91 -147h-102l-91 147h102l40 -66l40 66
h102zM404 647.999l-91 -147h-102l-91 147h102l40 -66l40 66h102zM404 647.999l-91 -147h-102l-91 147h102l40 -66l40 66h102z" />
    <glyph glyph-name="Omacron" unicode="&#x14c;" horiz-adv-x="735" 
d="M367 675c46.667 0 90.5 -8.83301 131.5 -26.5s76.833 -41.834 107.5 -72.501s54.834 -66.5 72.501 -107.5s26.5 -84.833 26.5 -131.5s-8.83301 -90.5 -26.5 -131.5s-41.834 -76.667 -72.501 -107s-66.5 -54.333 -107.5 -72s-84.833 -26.5 -131.5 -26.5
s-90.5 8.83301 -131.5 26.5s-76.667 41.667 -107 72s-54.333 66 -72 107s-26.5 84.833 -26.5 131.5s8.83301 90.5 26.5 131.5s41.667 76.833 72 107.5s66 54.834 107 72.501s84.833 26.5 131.5 26.5zM367 123c29.333 0 57 5.66699 83 17s48.833 26.666 68.5 45.999
s35.167 42 46.5 68s17 53.667 17 83s-5.66699 57 -17 83s-26.833 48.833 -46.5 68.5s-42.5 35.167 -68.5 46.5s-53.667 17 -83 17s-57 -5.66699 -83 -17s-48.667 -26.833 -68 -46.5s-34.666 -42.5 -45.999 -68.5s-17 -53.667 -17 -83s5.66699 -57 17 -83
s26.666 -48.667 45.999 -68s42 -34.666 68 -45.999s53.667 -17 83 -17zM505 718h-275v84h275v-84z" />
    <glyph glyph-name="omacron" unicode="&#x14d;" 
d="M262 465c32 0 62.167 -6.16699 90.5 -18.5s53 -29 74 -50s37.667 -45.667 50 -74s18.5 -58.5 18.5 -90.5s-6.16699 -62.167 -18.5 -90.5s-29 -53 -50 -74s-45.667 -37.5 -74 -49.5s-58.5 -18 -90.5 -18s-62.167 6 -90.5 18s-53 28.5 -74 49.5s-37.5 45.667 -49.5 74
s-18 58.5 -18 90.5s6 62.167 18 90.5s28.5 53 49.5 74s45.667 37.667 74 50s58.5 18.5 90.5 18.5zM262 123c15.333 0 29.666 2.83301 42.999 8.5s25 13.5 35 23.5s17.833 21.5 23.5 34.5s8.5 27.167 8.5 42.5s-2.83301 29.666 -8.5 42.999s-13.5 25 -23.5 35
s-21.667 17.833 -35 23.5s-27.666 8.5 -42.999 8.5s-29.5 -2.83301 -42.5 -8.5s-24.5 -13.5 -34.5 -23.5s-17.833 -21.667 -23.5 -35s-8.5 -27.666 -8.5 -42.999s2.83301 -29.5 8.5 -42.5s13.5 -24.5 23.5 -34.5s21.5 -17.833 34.5 -23.5s27.167 -8.5 42.5 -8.5zM400 503
h-275v84h275v-84z" />
    <glyph glyph-name="Ohungarumlaut" unicode="&#x150;" horiz-adv-x="735" 
d="M367 675c46.667 0 90.5 -8.83301 131.5 -26.5s76.833 -41.834 107.5 -72.501s54.834 -66.5 72.501 -107.5s26.5 -84.833 26.5 -131.5s-8.83301 -90.5 -26.5 -131.5s-41.834 -76.667 -72.501 -107s-66.5 -54.333 -107.5 -72s-84.833 -26.5 -131.5 -26.5
s-90.5 8.83301 -131.5 26.5s-76.667 41.667 -107 72s-54.333 66 -72 107s-26.5 84.833 -26.5 131.5s8.83301 90.5 26.5 131.5s41.667 76.833 72 107.5s66 54.834 107 72.501s84.833 26.5 131.5 26.5zM367 123c29.333 0 57 5.66699 83 17s48.833 26.666 68.5 45.999
s35.167 42 46.5 68s17 53.667 17 83s-5.66699 57 -17 83s-26.833 48.833 -46.5 68.5s-42.5 35.167 -68.5 46.5s-53.667 17 -83 17s-57 -5.66699 -83 -17s-48.667 -26.833 -68 -46.5s-34.666 -42.5 -45.999 -68.5s-17 -53.667 -17 -83s5.66699 -57 17 -83
s26.666 -48.667 45.999 -68s42 -34.666 68 -45.999s53.667 -17 83 -17zM337 863h102l-91 -147h-102zM396 716h102l91 147h-102z" />
    <glyph glyph-name="ohungarumlaut" unicode="&#x151;" 
d="M262 465c32 0 62.167 -6.16699 90.5 -18.5s53 -29 74 -50s37.667 -45.667 50 -74s18.5 -58.5 18.5 -90.5s-6.16699 -62.167 -18.5 -90.5s-29 -53 -50 -74s-45.667 -37.5 -74 -49.5s-58.5 -18 -90.5 -18s-62.167 6 -90.5 18s-53 28.5 -74 49.5s-37.5 45.667 -49.5 74
s-18 58.5 -18 90.5s6 62.167 18 90.5s28.5 53 49.5 74s45.667 37.667 74 50s58.5 18.5 90.5 18.5zM262 123c15.333 0 29.666 2.83301 42.999 8.5s25 13.5 35 23.5s17.833 21.5 23.5 34.5s8.5 27.167 8.5 42.5s-2.83301 29.666 -8.5 42.999s-13.5 25 -23.5 35
s-21.667 17.833 -35 23.5s-27.666 8.5 -42.999 8.5s-29.5 -2.83301 -42.5 -8.5s-24.5 -13.5 -34.5 -23.5s-17.833 -21.667 -23.5 -35s-8.5 -27.666 -8.5 -42.999s2.83301 -29.5 8.5 -42.5s13.5 -24.5 23.5 -34.5s21.5 -17.833 34.5 -23.5s27.167 -8.5 42.5 -8.5zM222 648
h102l-91 -147h-102zM281 501h102l91 147h-102z" />
    <glyph glyph-name="OE" unicode="&#x152;" horiz-adv-x="1126" 
d="M367 675c46.667 0 90.5 -8.83301 131.5 -26.5s76.833 -41.834 107.5 -72.501s54.834 -66.5 72.501 -107.5s26.5 -84.833 26.5 -131.5s-8.83301 -90.5 -26.5 -131.5s-41.834 -76.667 -72.501 -107s-66.5 -54.333 -107.5 -72s-84.833 -26.5 -131.5 -26.5
s-90.5 8.83301 -131.5 26.5s-76.667 41.667 -107 72s-54.333 66 -72 107s-26.5 84.833 -26.5 131.5s8.83301 90.5 26.5 131.5s41.667 76.833 72 107.5s66 54.834 107 72.501s84.833 26.5 131.5 26.5zM367 123c29.333 0 57 5.66699 83 17s48.833 26.666 68.5 45.999
s35.167 42 46.5 68s17 53.667 17 83s-5.66699 57 -17 83s-26.833 48.833 -46.5 68.5s-42.5 35.167 -68.5 46.5s-53.667 17 -83 17s-57 -5.66699 -83 -17s-48.667 -26.833 -68 -46.5s-34.666 -42.5 -45.999 -68.5s-17 -53.667 -17 -83s5.66699 -57 17 -83
s26.666 -48.667 45.999 -68s42 -34.666 68 -45.999s53.667 -17 83 -17zM705 552v-128h287v-123h-287v-178h391v-123h-514v674h514v-123z" />
    <glyph glyph-name="oe" unicode="&#x153;" horiz-adv-x="866" 
d="M262 465c32 0 62.167 -6.16699 90.5 -18.5s53 -29 74 -50s37.667 -45.667 50 -74s18.5 -58.5 18.5 -90.5s-6.16699 -62.167 -18.5 -90.5s-29 -53 -50 -74s-45.667 -37.5 -74 -49.5s-58.5 -18 -90.5 -18s-62.167 6 -90.5 18s-53 28.5 -74 49.5s-37.5 45.667 -49.5 74
s-18 58.5 -18 90.5s6 62.167 18 90.5s28.5 53 49.5 74s45.667 37.667 74 50s58.5 18.5 90.5 18.5zM262 123c15.333 0 29.666 2.83301 42.999 8.5s25 13.5 35 23.5s17.833 21.5 23.5 34.5s8.5 27.167 8.5 42.5s-2.83301 29.666 -8.5 42.999s-13.5 25 -23.5 35
s-21.667 17.833 -35 23.5s-27.666 8.5 -42.999 8.5s-29.5 -2.83301 -42.5 -8.5s-24.5 -13.5 -34.5 -23.5s-17.833 -21.667 -23.5 -35s-8.5 -27.666 -8.5 -42.999s2.83301 -29.5 8.5 -42.5s13.5 -24.5 23.5 -34.5s21.5 -17.833 34.5 -23.5s27.167 -8.5 42.5 -8.5zM604 465
c32 0 62 -6.33203 90 -18.999s52.5 -29.5 73.5 -50.5s37.667 -45.667 50 -74s18.5 -57.833 18.5 -88.5c0 -20.667 -3 -41 -9 -61h-313c9.33301 -14.667 21.833 -26.334 37.5 -35.001s33.167 -13 52.5 -13c15.333 0 29.5 2.83301 42.5 8.5s24.5 13.5 34.5 23.5l87 -87
c-21.333 -21.333 -46 -38 -74 -50s-58 -18 -90 -18s-62.167 6 -90.5 18s-53 28.5 -74 49.5s-37.5 45.667 -49.5 74s-18 58.5 -18 90.5s6 62 18 90s28.5 52.5 49.5 73.5s45.667 37.667 74 50s58.5 18.5 90.5 18.5zM604 342.001c-19.333 0 -36.833 -4.33301 -52.5 -13
s-28.167 -20.334 -37.5 -35.001h180c-9.33301 14.667 -22 26.334 -38 35.001s-33.333 13 -52 13z" />
    <glyph glyph-name="Racute" unicode="&#x154;" horiz-adv-x="575" 
d="M545 423c0 -48.667 -12.667 -92.8301 -38 -132.497s-58.333 -69.834 -99 -90.501l137 -200h-149l-118 172h-125v-172h-123v675h264c34.667 0 67.167 -6.66699 97.5 -20s56.833 -31.333 79.5 -54s40.667 -49.334 54 -80.001s20 -63.334 20 -98.001zM422 423.004
c0 18 -3.33301 34.8301 -10 50.4971s-15.834 29.334 -27.501 41.001s-25.167 20.834 -40.5 27.501s-32 10 -50 10h-141v-257h141c18 0 34.667 3.33301 50 10s28.833 15.834 40.5 27.501s20.834 25.167 27.501 40.5s10 32 10 50zM282 863.001h102l-91 -147h-102zM282 863.001
h102l-91 -147h-102zM282 863.001h102l-91 -147h-102zM282 863.001h102l-91 -147h-102z" />
    <glyph glyph-name="racute" unicode="&#x155;" horiz-adv-x="458" 
d="M263 465c32 0 62.167 -6.16797 90.5 -18.501s53.166 -29.166 74.499 -50.499l-88 -87c-20 21.333 -45.667 32 -77 32c-15.333 0 -29.666 -2.83301 -42.999 -8.5s-25 -13.5 -35 -23.5s-17.833 -21.667 -23.5 -35s-8.5 -27.333 -8.5 -42v-232h-123v465h123v-28
c34 18.667 70.667 28 110 28zM243 647.999h102l-91 -147h-102zM243 647.999h102l-91 -147h-102zM243 647.999h102l-91 -147h-102zM243 647.999h102l-91 -147h-102z" />
    <glyph glyph-name="uni0156" unicode="&#x156;" horiz-adv-x="575" 
d="M545 423c0 -48.667 -12.667 -92.8301 -38 -132.497s-58.333 -69.834 -99 -90.501l137 -200h-149l-118 172h-125v-172h-123v675h264c34.667 0 67.167 -6.66699 97.5 -20s56.833 -31.333 79.5 -54s40.667 -49.334 54 -80.001s20 -63.334 20 -98.001zM422 423.004
c0 18 -3.33301 34.8301 -10 50.4971s-15.834 29.334 -27.501 41.001s-25.167 20.834 -40.5 27.501s-32 10 -50 10h-141v-257h141c18 0 34.667 3.33301 50 10s28.833 15.834 40.5 27.501s20.834 25.167 27.501 40.5s10 32 10 50zM318 -87.999
c0 -1.33301 -0.167969 -3.5 -0.500977 -6.5s-1.66602 -9 -3.99902 -18l-10.5 -40l-20 -73.5h-27v76c-17.333 0 -31.833 6 -43.5 18s-17.5 26.667 -17.5 44s5.83301 31.833 17.5 43.5s26.167 17.5 43.5 17.5s32 -5.83301 44 -17.5s18 -26.167 18 -43.5z" />
    <glyph glyph-name="uni0157" unicode="&#x157;" horiz-adv-x="458" 
d="M263 465c32 0 62.167 -6.16797 90.5 -18.501s53.166 -29.166 74.499 -50.499l-88 -87c-20 21.333 -45.667 32 -77 32c-15.333 0 -29.666 -2.83301 -42.999 -8.5s-25 -13.5 -35 -23.5s-17.833 -21.667 -23.5 -35s-8.5 -27.333 -8.5 -42v-232h-123v465h123v-28
c34 18.667 70.667 28 110 28zM154 -88.001c0 -1.33301 -0.167969 -3.5 -0.500977 -6.5s-1.66602 -9 -3.99902 -18l-10.5 -40l-20 -73.5h-27v76c-17.333 0 -31.833 6 -43.5 18s-17.5 26.667 -17.5 44s5.83301 31.833 17.5 43.5s26.167 17.5 43.5 17.5s32 -5.83301 44 -17.5
s18 -26.167 18 -43.5z" />
    <glyph glyph-name="Rcaron" unicode="&#x158;" horiz-adv-x="575" 
d="M545 423c0 -48.667 -12.667 -92.8301 -38 -132.497s-58.333 -69.834 -99 -90.501l137 -200h-149l-118 172h-125v-172h-123v675h264c34.667 0 67.167 -6.66699 97.5 -20s56.833 -31.333 79.5 -54s40.667 -49.334 54 -80.001s20 -63.334 20 -98.001zM422 423.004
c0 18 -3.33301 34.8301 -10 50.4971s-15.834 29.334 -27.501 41.001s-25.167 20.834 -40.5 27.501s-32 10 -50 10h-141v-257h141c18 0 34.667 3.33301 50 10s28.833 15.834 40.5 27.501s20.834 25.167 27.501 40.5s10 32 10 50zM406 863.001l-91 -147h-102l-91 147h102
l40 -66l40 66h102zM406 863.001l-91 -147h-102l-91 147h102l40 -66l40 66h102zM406 863.001l-91 -147h-102l-91 147h102l40 -66l40 66h102zM406 863.001l-91 -147h-102l-91 147h102l40 -66l40 66h102z" />
    <glyph glyph-name="rcaron" unicode="&#x159;" horiz-adv-x="458" 
d="M263 465c32 0 62.167 -6.16797 90.5 -18.501s53.166 -29.166 74.499 -50.499l-88 -87c-20 21.333 -45.667 32 -77 32c-15.333 0 -29.666 -2.83301 -42.999 -8.5s-25 -13.5 -35 -23.5s-17.833 -21.667 -23.5 -35s-8.5 -27.333 -8.5 -42v-232h-123v465h123v-28
c34 18.667 70.667 28 110 28zM371 647.999l-91 -147h-102l-91 147h102l40 -66l40 66h102zM371 647.999l-91 -147h-102l-91 147h102l40 -66l40 66h102zM371 647.999l-91 -147h-102l-91 147h102l40 -66l40 66h102zM371 647.999l-91 -147h-102l-91 147h102l40 -66l40 66h102z
" />
    <glyph glyph-name="Sacute" unicode="&#x15a;" horiz-adv-x="550" 
d="M147 485c0 -14 4.83105 -26.3271 14.498 -36.9941s21.5 -19.834 35.5 -27.501s28.5 -13.5 43.5 -17.5s28.167 -6.66699 39.5 -8c26.667 -3.33301 54.334 -10 83.001 -20s54.5 -23.5 77.5 -40.5s42 -37.5 57 -61.5s22.5 -51.333 22.5 -82c0 -32 -7.5 -60 -22.5 -84
s-34.167 -43.833 -57.5 -59.5s-49.5 -27.5 -78.5 -35.5s-57.5 -12 -85.5 -12c-22.667 0 -45.667 2.33301 -69 7s-45.666 11.667 -66.999 21s-41.333 21.333 -60 36s-34.334 31.667 -47.001 51l117 43c13.333 -15.333 31.5 -25.833 54.5 -31.5s44.167 -8.5 63.5 -8.5
c8.66699 0 20.667 1.16699 36 3.5s30.333 6 45 11s27.334 11.833 38.001 20.5s16 19.334 16 32.001c0 15.333 -4.66699 28.666 -14 39.999s-20.833 20.666 -34.5 27.999s-28.334 13.166 -44.001 17.499s-29.5 7.16602 -41.5 8.49902c-27.333 3.33301 -55 10 -83 20
s-53.667 23.5 -77 40.5s-42.333 37.5 -57 61.5s-22 51.667 -22 83c0 32 7.5 59.833 22.5 83.5s34.167 43.5 57.5 59.5s49.5 27.833 78.5 35.5s57.5 11.5 85.5 11.5c22.667 0 46 -2.33301 70 -7s46.833 -11.834 68.5 -21.501s41.834 -22 60.501 -37s34 -32.833 46 -53.5
l-115 -42c-6.66699 8.66699 -14.834 15.667 -24.501 21s-20 9.66602 -31 12.999s-22.333 5.66602 -34 6.99902s-22.5 2 -32.5 2c-10.667 0 -23.667 -1 -39 -3s-30.166 -5.66699 -44.499 -11s-26.5 -12.666 -36.5 -21.999s-15 -21 -15 -35zM308.998 863.006h102l-91 -147
h-102zM308.998 863.006h102l-91 -147h-102zM308.998 863.006h102l-91 -147h-102zM308.998 863.006h102l-91 -147h-102z" />
    <glyph glyph-name="sacute" unicode="&#x15b;" horiz-adv-x="430" 
d="M154 327c0 -5.33301 3.00293 -9.99805 9.00293 -13.998s13 -7.33301 21 -10s15.833 -4.66699 23.5 -6s13.167 -2.33301 16.5 -3c19.333 -3.33301 39.333 -9.16602 60 -17.499s39.5 -19.166 56.5 -32.499s31 -29 42 -47s16.5 -38.333 16.5 -61
c0 -23.333 -5.66699 -43.5 -17 -60.5s-25.666 -31 -42.999 -42s-36.5 -19.333 -57.5 -25s-41.5 -8.5 -61.5 -8.5c-34.667 0 -69.167 7 -103.5 21s-62.166 35.333 -83.499 64l98 73c4.66699 -7.33301 11.167 -13.333 19.5 -18s17.166 -8.33398 26.499 -11.001
s18.833 -4.66699 28.5 -6s18.5 -2 26.5 -2c2.66699 0 6.33398 0.166992 11.001 0.5s9.5 1.16602 14.5 2.49902s9.33301 3.16602 13 5.49902s5.5 5.5 5.5 9.5c0 5.33301 -3 10 -9 14s-13 7.33301 -21 10s-15.833 4.66699 -23.5 6s-13.167 2.33301 -16.5 3
c-19.333 3.33301 -39.333 9.16602 -60 17.499s-39.5 19.166 -56.5 32.499s-31 29 -42 47s-16.5 38.333 -16.5 61s5.66699 42.667 17 60s25.666 31.5 42.999 42.5s36.5 19.333 57.5 25s41.5 8.5 61.5 8.5c34.667 0 69.167 -7 103.5 -21s62.166 -35.333 83.499 -64l-98 -74
c-10.667 14.667 -26.167 24.5 -46.5 29.5s-38.833 7.5 -55.5 7.5c-2.66699 0 -6.33398 -0.166992 -11.001 -0.5s-9.33398 -1.16602 -14.001 -2.49902s-8.83398 -3 -12.501 -5s-5.5 -5 -5.5 -9zM249.003 648.002h102l-91 -147h-102zM249.003 648.002h102l-91 -147h-102z
M249.003 648.002h102l-91 -147h-102zM249.003 648.002h102l-91 -147h-102z" />
    <glyph glyph-name="Scedilla" unicode="&#x15e;" horiz-adv-x="550" 
d="M327 -24c14.667 -6.66699 29.167 -15 43.5 -25s27.333 -21.167 39 -33.5s21.167 -26.166 28.5 -41.499s11 -31.666 11 -48.999c0 -28.667 -7.83301 -52.667 -23.5 -72s-35.167 -34.666 -58.5 -45.999s-48.5 -19.5 -75.5 -24.5s-51.833 -7.5 -74.5 -7.5
c-10.667 0 -21.167 0.333008 -31.5 1s-20.5 2 -30.5 4l19 84c14.667 -2 30 -3 46 -3c8 0 20 1 36 3s31.833 5.33301 47.5 10s29.5 11 41.5 19s18 18 18 30c0 14 -6.33301 26.667 -19 38s-27.5 21.166 -44.5 29.499s-34.333 15.166 -52 20.499s-31.5 8.66602 -41.5 9.99902
l9 91h130zM147 485c0 -14 4.83105 -26.3271 14.498 -36.9941s21.5 -19.834 35.5 -27.501s28.5 -13.5 43.5 -17.5s28.167 -6.66699 39.5 -8c26.667 -3.33301 54.334 -10 83.001 -20s54.5 -23.5 77.5 -40.5s42 -37.5 57 -61.5s22.5 -51.333 22.5 -82c0 -32 -7.5 -60 -22.5 -84
s-34.167 -43.833 -57.5 -59.5s-49.5 -27.5 -78.5 -35.5s-57.5 -12 -85.5 -12c-22.667 0 -45.667 2.33301 -69 7s-45.666 11.667 -66.999 21s-41.333 21.333 -60 36s-34.334 31.667 -47.001 51l117 43c13.333 -15.333 31.5 -25.833 54.5 -31.5s44.167 -8.5 63.5 -8.5
c8.66699 0 20.667 1.16699 36 3.5s30.333 6 45 11s27.334 11.833 38.001 20.5s16 19.334 16 32.001c0 15.333 -4.66699 28.666 -14 39.999s-20.833 20.666 -34.5 27.999s-28.334 13.166 -44.001 17.499s-29.5 7.16602 -41.5 8.49902c-27.333 3.33301 -55 10 -83 20
s-53.667 23.5 -77 40.5s-42.333 37.5 -57 61.5s-22 51.667 -22 83c0 32 7.5 59.833 22.5 83.5s34.167 43.5 57.5 59.5s49.5 27.833 78.5 35.5s57.5 11.5 85.5 11.5c22.667 0 46 -2.33301 70 -7s46.833 -11.834 68.5 -21.501s41.834 -22 60.501 -37s34 -32.833 46 -53.5
l-115 -42c-6.66699 8.66699 -14.834 15.667 -24.501 21s-20 9.66602 -31 12.999s-22.333 5.66602 -34 6.99902s-22.5 2 -32.5 2c-10.667 0 -23.667 -1 -39 -3s-30.166 -5.66699 -44.499 -11s-26.5 -12.666 -36.5 -21.999s-15 -21 -15 -35z" />
    <glyph glyph-name="scedilla" unicode="&#x15f;" horiz-adv-x="430" 
d="M273 -24c14.667 -6.66699 29.332 -14.998 43.999 -24.998s27.834 -21.333 39.501 -34s21.167 -26.667 28.5 -42s11 -31.666 11 -48.999c0 -27.333 -7.83301 -50.5 -23.5 -69.5s-35 -34.5 -58 -46.5s-47.833 -20.833 -74.5 -26.5s-51 -8.5 -73 -8.5
c-23.333 0 -45.333 2.33301 -66 7l19 84c14.667 -2 30 -3 46 -3c8 0 20 1 36 3s31.833 5.33301 47.5 10s29.5 11 41.5 19s18 18 18 30c0 14 -6.33301 26.667 -19 38s-27.5 21.166 -44.5 29.499s-34.333 15.166 -52 20.499s-31.5 8.66602 -41.5 9.99902l9 92h130z
M153.998 327.002c0 -5.33301 3.00293 -9.99805 9.00293 -13.998s13 -7.33301 21 -10s15.833 -4.66699 23.5 -6s13.167 -2.33301 16.5 -3c19.333 -3.33301 39.333 -9.16602 60 -17.499s39.5 -19.166 56.5 -32.499s31 -29 42 -47s16.5 -38.333 16.5 -61
c0 -23.333 -5.66699 -43.5 -17 -60.5s-25.666 -31 -42.999 -42s-36.5 -19.333 -57.5 -25s-41.5 -8.5 -61.5 -8.5c-34.667 0 -69.167 7 -103.5 21s-62.166 35.333 -83.499 64l98 73c4.66699 -7.33301 11.167 -13.333 19.5 -18s17.166 -8.33398 26.499 -11.001
s18.833 -4.66699 28.5 -6s18.5 -2 26.5 -2c2.66699 0 6.33398 0.166992 11.001 0.5s9.5 1.16602 14.5 2.49902s9.33301 3.16602 13 5.49902s5.5 5.5 5.5 9.5c0 5.33301 -3 10 -9 14s-13 7.33301 -21 10s-15.833 4.66699 -23.5 6s-13.167 2.33301 -16.5 3
c-19.333 3.33301 -39.333 9.16602 -60 17.499s-39.5 19.166 -56.5 32.499s-31 29 -42 47s-16.5 38.333 -16.5 61s5.66699 42.667 17 60s25.666 31.5 42.999 42.5s36.5 19.333 57.5 25s41.5 8.5 61.5 8.5c34.667 0 69.167 -7 103.5 -21s62.166 -35.333 83.499 -64l-98 -74
c-10.667 14.667 -26.167 24.5 -46.5 29.5s-38.833 7.5 -55.5 7.5c-2.66699 0 -6.33398 -0.166992 -11.001 -0.5s-9.33398 -1.16602 -14.001 -2.49902s-8.83398 -3 -12.501 -5s-5.5 -5 -5.5 -9z" />
    <glyph glyph-name="Scaron" unicode="&#x160;" horiz-adv-x="550" 
d="M147 485c0 -14 4.83105 -26.3271 14.498 -36.9941s21.5 -19.834 35.5 -27.501s28.5 -13.5 43.5 -17.5s28.167 -6.66699 39.5 -8c26.667 -3.33301 54.334 -10 83.001 -20s54.5 -23.5 77.5 -40.5s42 -37.5 57 -61.5s22.5 -51.333 22.5 -82c0 -32 -7.5 -60 -22.5 -84
s-34.167 -43.833 -57.5 -59.5s-49.5 -27.5 -78.5 -35.5s-57.5 -12 -85.5 -12c-22.667 0 -45.667 2.33301 -69 7s-45.666 11.667 -66.999 21s-41.333 21.333 -60 36s-34.334 31.667 -47.001 51l117 43c13.333 -15.333 31.5 -25.833 54.5 -31.5s44.167 -8.5 63.5 -8.5
c8.66699 0 20.667 1.16699 36 3.5s30.333 6 45 11s27.334 11.833 38.001 20.5s16 19.334 16 32.001c0 15.333 -4.66699 28.666 -14 39.999s-20.833 20.666 -34.5 27.999s-28.334 13.166 -44.001 17.499s-29.5 7.16602 -41.5 8.49902c-27.333 3.33301 -55 10 -83 20
s-53.667 23.5 -77 40.5s-42.333 37.5 -57 61.5s-22 51.667 -22 83c0 32 7.5 59.833 22.5 83.5s34.167 43.5 57.5 59.5s49.5 27.833 78.5 35.5s57.5 11.5 85.5 11.5c22.667 0 46 -2.33301 70 -7s46.833 -11.834 68.5 -21.501s41.834 -22 60.501 -37s34 -32.833 46 -53.5
l-115 -42c-6.66699 8.66699 -14.834 15.667 -24.501 21s-20 9.66602 -31 12.999s-22.333 5.66602 -34 6.99902s-22.5 2 -32.5 2c-10.667 0 -23.667 -1 -39 -3s-30.166 -5.66699 -44.499 -11s-26.5 -12.666 -36.5 -21.999s-15 -21 -15 -35zM416.998 863.006l-91 -147h-102
l-91 147h102l40 -66l40 66h102zM416.998 863.006l-91 -147h-102l-91 147h102l40 -66l40 66h102zM416.998 863.006l-91 -147h-102l-91 147h102l40 -66l40 66h102zM416.998 863.006l-91 -147h-102l-91 147h102l40 -66l40 66h102z" />
    <glyph glyph-name="scaron" unicode="&#x161;" horiz-adv-x="430" 
d="M154 327c0 -5.33301 3.00293 -9.99805 9.00293 -13.998s13 -7.33301 21 -10s15.833 -4.66699 23.5 -6s13.167 -2.33301 16.5 -3c19.333 -3.33301 39.333 -9.16602 60 -17.499s39.5 -19.166 56.5 -32.499s31 -29 42 -47s16.5 -38.333 16.5 -61
c0 -23.333 -5.66699 -43.5 -17 -60.5s-25.666 -31 -42.999 -42s-36.5 -19.333 -57.5 -25s-41.5 -8.5 -61.5 -8.5c-34.667 0 -69.167 7 -103.5 21s-62.166 35.333 -83.499 64l98 73c4.66699 -7.33301 11.167 -13.333 19.5 -18s17.166 -8.33398 26.499 -11.001
s18.833 -4.66699 28.5 -6s18.5 -2 26.5 -2c2.66699 0 6.33398 0.166992 11.001 0.5s9.5 1.16602 14.5 2.49902s9.33301 3.16602 13 5.49902s5.5 5.5 5.5 9.5c0 5.33301 -3 10 -9 14s-13 7.33301 -21 10s-15.833 4.66699 -23.5 6s-13.167 2.33301 -16.5 3
c-19.333 3.33301 -39.333 9.16602 -60 17.499s-39.5 19.166 -56.5 32.499s-31 29 -42 47s-16.5 38.333 -16.5 61s5.66699 42.667 17 60s25.666 31.5 42.999 42.5s36.5 19.333 57.5 25s41.5 8.5 61.5 8.5c34.667 0 69.167 -7 103.5 -21s62.166 -35.333 83.499 -64l-98 -74
c-10.667 14.667 -26.167 24.5 -46.5 29.5s-38.833 7.5 -55.5 7.5c-2.66699 0 -6.33398 -0.166992 -11.001 -0.5s-9.33398 -1.16602 -14.001 -2.49902s-8.83398 -3 -12.501 -5s-5.5 -5 -5.5 -9zM357.003 648.002l-91 -147h-102l-91 147h102l40 -66l40 66h102z
M357.003 648.002l-91 -147h-102l-91 147h102l40 -66l40 66h102zM357.003 648.002l-91 -147h-102l-91 147h102l40 -66l40 66h102zM357.003 648.002l-91 -147h-102l-91 147h102l40 -66l40 66h102z" />
    <glyph glyph-name="uni0162" unicode="&#x162;" horiz-adv-x="573" 
d="M543 552h-195v-552h-123v552h-195v123h513v-123zM338 -24c14.667 -6.66699 29.167 -15 43.5 -25s27.333 -21.167 39 -33.5s21.167 -26.166 28.5 -41.499s11 -31.666 11 -48.999c0 -28.667 -7.83301 -52.667 -23.5 -72s-35.167 -34.666 -58.5 -45.999
s-48.5 -19.5 -75.5 -24.5s-51.833 -7.5 -74.5 -7.5c-10.667 0 -21.167 0.333008 -31.5 1s-20.5 2 -30.5 4l19 84c14.667 -2 30 -3 46 -3c8 0 20 1 36 3s31.833 5.33301 47.5 10s29.5 11 41.5 19s18 18 18 30c0 14 -6.33301 26.667 -19 38s-27.5 21.166 -44.5 29.499
s-34.333 15.166 -52 20.499s-31.5 8.66602 -41.5 9.99902l8 77h123z" />
    <glyph glyph-name="uni0163" unicode="&#x163;" horiz-adv-x="513" 
d="M262 232c0 -15.333 2.83301 -29.5 8.5 -42.5s13.5 -24.5 23.5 -34.5s21.5 -17.833 34.5 -23.5s27.167 -8.5 42.5 -8.5v-123c-32 0 -62.167 6 -90.5 18s-53 28.5 -74 49.5s-37.5 45.667 -49.5 74s-18 58.5 -18 90.5v161h-109v122h109v160h123v-160h109v-122h-109v-161z
M360 -24c14.667 -6.66699 29.167 -15 43.5 -25s27.333 -21.167 39 -33.5s21.167 -26.166 28.5 -41.499s11 -31.666 11 -48.999c0 -28.667 -7.83301 -52.667 -23.5 -72s-35.167 -34.666 -58.5 -45.999s-48.5 -19.5 -75.5 -24.5s-51.833 -7.5 -74.5 -7.5
c-10.667 0 -21.167 0.333008 -31.5 1s-20.5 2 -30.5 4l19 84c14.667 -2 30 -3 46 -3c8 0 20 1 36 3s31.833 5.33301 47.5 10s29.5 11 41.5 19s18 18 18 30c0 14 -6.33301 26.667 -19 38s-27.5 21.166 -44.5 29.499s-34.333 15.166 -52 20.499s-31.5 8.66602 -41.5 9.99902
l12 113l120 -36z" />
    <glyph glyph-name="Tcaron" unicode="&#x164;" horiz-adv-x="573" 
d="M543 552h-195v-552h-123v552h-195v123h513v-123zM428 863l-91 -147h-102l-91 147h102l40 -66l40 66h102zM428 863l-91 -147h-102l-91 147h102l40 -66l40 66h102zM428 863l-91 -147h-102l-91 147h102l40 -66l40 66h102zM428 863l-91 -147h-102l-91 147h102l40 -66l40 66
h102z" />
    <glyph glyph-name="tcaron" unicode="&#x165;" horiz-adv-x="624" 
d="M262 232c0 -15.333 2.83301 -29.5 8.5 -42.5s13.5 -24.5 23.5 -34.5s21.5 -17.833 34.5 -23.5s27.167 -8.5 42.5 -8.5v-123c-32 0 -62.167 6 -90.5 18s-53 28.5 -74 49.5s-37.5 45.667 -49.5 74s-18 58.5 -18 90.5v161h-109v122h109v160h123v-160h109v-122h-109v-161v0z
M503 613c0 -1.33301 -0.167969 -3.33301 -0.500977 -6s-1.66602 -8.5 -3.99902 -17.5l-10.5 -40l-19 -73.5h-27v76c-17.333 0 -32 5.83301 -44 17.5s-18 26.167 -18 43.5s6 32 18 44s26.667 18 44 18s31.833 -6 43.5 -18s17.5 -26.667 17.5 -44z" />
    <glyph glyph-name="Umacron" unicode="&#x16a;" horiz-adv-x="575" 
d="M545 675l-0.00390625 -417c0 -35.333 -6.66699 -68.666 -20 -99.999s-31.666 -58.666 -54.999 -81.999s-50.666 -41.833 -81.999 -55.5s-65 -20.5 -101 -20.5c-35.333 0 -68.666 6.83301 -99.999 20.5s-58.666 32.167 -81.999 55.5s-41.666 50.666 -54.999 81.999
s-20 64.666 -20 99.999v417h123v-417c0 -18.667 3.5 -36.167 10.5 -52.5s16.5 -30.666 28.5 -42.999s26.167 -22 42.5 -29s33.833 -10.5 52.5 -10.5s36.167 3.5 52.5 10.5s30.666 16.667 42.999 29s22 26.666 29 42.999s10.5 33.833 10.5 52.5v417h123zM424.996 718h-275v84
h275v-84z" />
    <glyph glyph-name="umacron" unicode="&#x16b;" 
d="M495 465l0.000976562 -465h-123v28c-34 -18.667 -70.667 -28 -110 -28c-32 0 -62.167 6.16699 -90.5 18.5s-53 29 -74 50s-37.5 45.667 -49.5 74s-18 58.5 -18 90.5v232h123v-232c0 -15.333 2.83301 -29.666 8.5 -42.999s13.5 -25 23.5 -35s21.5 -17.833 34.5 -23.5
s27.167 -8.5 42.5 -8.5s29.666 2.83301 42.999 8.5s25 13.5 35 23.5s17.833 21.667 23.5 35s8.5 27.666 8.5 42.999v232h123zM400.001 503h-275v84h275v-84z" />
    <glyph glyph-name="Uring" unicode="&#x16e;" horiz-adv-x="575" 
d="M545 675l-0.00390625 -417c0 -35.333 -6.66699 -68.666 -20 -99.999s-31.666 -58.666 -54.999 -81.999s-50.666 -41.833 -81.999 -55.5s-65 -20.5 -101 -20.5c-35.333 0 -68.666 6.83301 -99.999 20.5s-58.666 32.167 -81.999 55.5s-41.666 50.666 -54.999 81.999
s-20 64.666 -20 99.999v417h123v-417c0 -18.667 3.5 -36.167 10.5 -52.5s16.5 -30.666 28.5 -42.999s26.167 -22 42.5 -29s33.833 -10.5 52.5 -10.5s36.167 3.5 52.5 10.5s30.666 16.667 42.999 29s22 26.666 29 42.999s10.5 33.833 10.5 52.5v417h123zM286.996 716
c-16 0 -31.167 3 -45.5 9s-26.666 14.333 -36.999 25s-18.666 23.167 -24.999 37.5s-9.5 29.5 -9.5 45.5s3.16699 31 9.5 45s14.666 26.333 24.999 37s22.666 19 36.999 25s29.5 9 45.5 9s31.167 -3 45.5 -9s26.666 -14.333 36.999 -25s18.666 -23 24.999 -37
s9.5 -29 9.5 -45s-3.16699 -31.167 -9.5 -45.5s-14.666 -26.833 -24.999 -37.5s-22.666 -19 -36.999 -25s-29.5 -9 -45.5 -9zM286.996 883c-13.333 0 -25 -5 -35 -15s-15 -21.667 -15 -35c0 -14 5 -26 15 -36s21.667 -15 35 -15c14 0 25.833 5 35.5 15s14.5 22 14.5 36
c0 13.333 -4.83301 25 -14.5 35s-21.5 15 -35.5 15z" />
    <glyph glyph-name="uring" unicode="&#x16f;" 
d="M495 465l0.000976562 -465h-123v28c-34 -18.667 -70.667 -28 -110 -28c-32 0 -62.167 6.16699 -90.5 18.5s-53 29 -74 50s-37.5 45.667 -49.5 74s-18 58.5 -18 90.5v232h123v-232c0 -15.333 2.83301 -29.666 8.5 -42.999s13.5 -25 23.5 -35s21.5 -17.833 34.5 -23.5
s27.167 -8.5 42.5 -8.5s29.666 2.83301 42.999 8.5s25 13.5 35 23.5s17.833 21.667 23.5 35s8.5 27.666 8.5 42.999v232h123zM262.001 501c-16 0 -31.167 3 -45.5 9s-26.666 14.333 -36.999 25s-18.666 23.167 -24.999 37.5s-9.5 29.5 -9.5 45.5s3.16699 31 9.5 45
s14.666 26.333 24.999 37s22.666 19 36.999 25s29.5 9 45.5 9s31.167 -3 45.5 -9s26.666 -14.333 36.999 -25s18.666 -23 24.999 -37s9.5 -29 9.5 -45s-3.16699 -31.167 -9.5 -45.5s-14.666 -26.833 -24.999 -37.5s-22.666 -19 -36.999 -25s-29.5 -9 -45.5 -9zM262.001 668
c-13.333 0 -25 -5 -35 -15s-15 -21.667 -15 -35c0 -14 5 -26 15 -36s21.667 -15 35 -15c14 0 25.833 5 35.5 15s14.5 22 14.5 36c0 13.333 -4.83301 25 -14.5 35s-21.5 15 -35.5 15z" />
    <glyph glyph-name="Uhungarumlaut" unicode="&#x170;" horiz-adv-x="575" 
d="M545 675l-0.00390625 -417c0 -35.333 -6.66699 -68.666 -20 -99.999s-31.666 -58.666 -54.999 -81.999s-50.666 -41.833 -81.999 -55.5s-65 -20.5 -101 -20.5c-35.333 0 -68.666 6.83301 -99.999 20.5s-58.666 32.167 -81.999 55.5s-41.666 50.666 -54.999 81.999
s-20 64.666 -20 99.999v417h123v-417c0 -18.667 3.5 -36.167 10.5 -52.5s16.5 -30.666 28.5 -42.999s26.167 -22 42.5 -29s33.833 -10.5 52.5 -10.5s36.167 3.5 52.5 10.5s30.666 16.667 42.999 29s22 26.666 29 42.999s10.5 33.833 10.5 52.5v417h123zM236.996 863h102
l-91 -147h-102zM295.996 716h102l91 147h-102z" />
    <glyph glyph-name="uhungarumlaut" unicode="&#x171;" 
d="M495 465l0.000976562 -465h-123v28c-34 -18.667 -70.667 -28 -110 -28c-32 0 -62.167 6.16699 -90.5 18.5s-53 29 -74 50s-37.5 45.667 -49.5 74s-18 58.5 -18 90.5v232h123v-232c0 -15.333 2.83301 -29.666 8.5 -42.999s13.5 -25 23.5 -35s21.5 -17.833 34.5 -23.5
s27.167 -8.5 42.5 -8.5s29.666 2.83301 42.999 8.5s25 13.5 35 23.5s17.833 21.667 23.5 35s8.5 27.666 8.5 42.999v232h123zM212.001 648h102l-91 -147h-102zM271.001 501h102l91 147h-102z" />
    <glyph glyph-name="Uogonek" unicode="&#x172;" horiz-adv-x="575" 
d="M513 -187c-13.333 -10.667 -28.1621 -20.667 -44.4951 -30s-33.333 -17.5 -51 -24.5s-35.834 -12.5 -54.501 -16.5s-36.334 -6 -53.001 -6c-18 0 -35.333 2.5 -52 7.5s-31.334 12.5 -44.001 22.5s-22.834 22.5 -30.501 37.5s-11.5 32.5 -11.5 52.5c0 28 6 54.833 18 80.5
s26.667 49.167 44 70.5l132 6c-10 -8 -21.333 -18 -34 -30s-24.334 -25.333 -35.001 -40s-19.667 -29.5 -27 -44.5s-11 -29.5 -11 -43.5s5.66699 -23 17 -27s22.666 -6 33.999 -6c8.66699 0 20.334 1.66699 35.001 5s29.334 7.66602 44.001 12.999s28.167 11.333 40.5 18
s21.166 13.334 26.499 20.001zM545.004 675l-0.00390625 -417c0 -35.333 -6.66699 -68.666 -20 -99.999s-31.666 -58.666 -54.999 -81.999s-50.666 -41.833 -81.999 -55.5s-65 -20.5 -101 -20.5c-35.333 0 -68.666 6.83301 -99.999 20.5s-58.666 32.167 -81.999 55.5
s-41.666 50.666 -54.999 81.999s-20 64.666 -20 99.999v417h123v-417c0 -18.667 3.5 -36.167 10.5 -52.5s16.5 -30.666 28.5 -42.999s26.167 -22 42.5 -29s33.833 -10.5 52.5 -10.5s36.167 3.5 52.5 10.5s30.666 16.667 42.999 29s22 26.666 29 42.999
s10.5 33.833 10.5 52.5v417h123z" />
    <glyph glyph-name="uogonek" unicode="&#x173;" horiz-adv-x="685" 
d="M495 465l0.000976562 -465h-123v28c-34 -18.667 -70.667 -28 -110 -28c-32 0 -62.167 6.16699 -90.5 18.5s-53 29 -74 50s-37.5 45.667 -49.5 74s-18 58.5 -18 90.5v232h123v-232c0 -15.333 2.83301 -29.666 8.5 -42.999s13.5 -25 23.5 -35s21.5 -17.833 34.5 -23.5
s27.167 -8.5 42.5 -8.5s29.666 2.83301 42.999 8.5s25 13.5 35 23.5s17.833 21.667 23.5 35s8.5 27.666 8.5 42.999v232h123zM655.001 -187c-29.333 -22 -61.1709 -40.3359 -95.5039 -55.0029s-70.166 -22 -107.499 -22c-19.333 0 -37.166 2.33301 -53.499 7
s-30.666 11.834 -42.999 21.501s-22 21.834 -29 36.501s-10.5 32.334 -10.5 53.001c0 26.667 5.5 52.5 16.5 77.5s24.167 47.833 39.5 68.5h123c-10 -7.33301 -20.5 -16.333 -31.5 -27s-21.167 -22.167 -30.5 -34.5s-17.166 -25.333 -23.499 -39s-9.5 -27.167 -9.5 -40.5
c0 -16 5.5 -26.167 16.5 -30.5s23.167 -6.5 36.5 -6.5c25.333 0 50.833 5.5 76.5 16.5s48.5 24.167 68.5 39.5z" />
    <glyph glyph-name="Ydieresis" unicode="&#x178;" horiz-adv-x="645" 
d="M466 675h149l-231 -358v-316h-123v316l-231 358h149l144 -223zM311 777c0 -17.333 -6 -31.833 -18 -43.5s-26.667 -17.5 -44 -17.5s-31.833 5.83301 -43.5 17.5s-17.5 26.167 -17.5 43.5s5.83301 32 17.5 44s26.167 18 43.5 18s32 -6 44 -18s18 -26.667 18 -44zM459 777
c0 -17.333 -5.83301 -31.833 -17.5 -43.5s-26.167 -17.5 -43.5 -17.5s-32 5.83301 -44 17.5s-18 26.167 -18 43.5s6 32 18 44s26.667 18 44 18s31.833 -6 43.5 -18s17.5 -26.667 17.5 -44z" />
    <glyph glyph-name="Zacute" unicode="&#x179;" horiz-adv-x="574" 
d="M544 552l-357 -428h357v-123h-514v123l355 428h-355v123h514v-123zM321 863h102l-91 -147h-102zM321 863h102l-91 -147h-102zM321 863h102l-91 -147h-102zM321 863h102l-91 -147h-102z" />
    <glyph glyph-name="zacute" unicode="&#x17a;" horiz-adv-x="485" 
d="M455 343l-245 -220h242v-122h-422v122l245 220h-241v122h421v-122zM287 648h102l-91 -147h-102zM287 648h102l-91 -147h-102zM287 648h102l-91 -147h-102zM287 648h102l-91 -147h-102z" />
    <glyph glyph-name="Zdotaccent" unicode="&#x17b;" horiz-adv-x="574" 
d="M544 552l-357 -428h357v-123h-514v123l355 428h-355v123h514v-123zM348 777c0 -17.333 -6 -31.833 -18 -43.5s-26.333 -17.5 -43 -17.5c-17.333 0 -32 5.83301 -44 17.5s-18 26.167 -18 43.5s6 31.833 18 43.5s26.667 17.5 44 17.5c16.667 0 31 -5.83301 43 -17.5
s18 -26.167 18 -43.5z" />
    <glyph glyph-name="zdotaccent" unicode="&#x17c;" horiz-adv-x="485" 
d="M455 343l-245 -220h242v-122h-422v122l245 220h-241v122h421v-122zM304 562c0 -17.333 -6 -31.833 -18 -43.5s-26.333 -17.5 -43 -17.5c-17.333 0 -32 5.83301 -44 17.5s-18 26.167 -18 43.5s6 31.833 18 43.5s26.667 17.5 44 17.5c16.667 0 31 -5.83301 43 -17.5
s18 -26.167 18 -43.5z" />
    <glyph glyph-name="Zcaron" unicode="&#x17d;" horiz-adv-x="574" 
d="M544 552l-357 -428h357v-123h-514v123l355 428h-355v123h514v-123zM429 863l-91 -147h-102l-91 147h102l40 -66l40 66h102zM429 863l-91 -147h-102l-91 147h102l40 -66l40 66h102zM429 863l-91 -147h-102l-91 147h102l40 -66l40 66h102zM429 863l-91 -147h-102l-91 147
h102l40 -66l40 66h102z" />
    <glyph glyph-name="zcaron" unicode="&#x17e;" horiz-adv-x="485" 
d="M455 343l-245 -220h242v-122h-422v122l245 220h-241v122h421v-122zM384 648l-91 -147h-102l-91 147h102l40 -66l40 66h102zM384 648l-91 -147h-102l-91 147h102l40 -66l40 66h102zM384 648l-91 -147h-102l-91 147h102l40 -66l40 66h102zM384 648l-91 -147h-102l-91 147
h102l40 -66l40 66h102z" />
    <glyph glyph-name="florin" unicode="&#x192;" horiz-adv-x="401" 
d="M371 552c-30 0 -55.667 -11.6699 -77 -35.0029s-32 -56.666 -32 -99.999h109v-123h-109v-380c0 -32 -6.16699 -62.167 -18.5 -90.5s-29 -53 -50 -74s-45.5 -37.5 -73.5 -49.5s-58 -18 -90 -18v123c14.667 0 28.667 2.83301 42 8.5s25 13.5 35 23.5s17.833 21.5 23.5 34.5
s8.5 27.167 8.5 42.5v380h-109v123h109c0 38.667 6 73.834 18 105.501s28.5 58.834 49.5 81.501s45.667 40.167 74 52.5s58.5 18.5 90.5 18.5v-123v0z" />
    <glyph glyph-name="uni0218" unicode="&#x218;" horiz-adv-x="550" 
d="M147 489c0 -15.333 4.66699 -28.498 14 -39.498s20.833 -20.333 34.5 -28s28.167 -13.667 43.5 -18s29 -7.16602 41 -8.49902c26.667 -3.33301 54.334 -10 83.001 -20s54.5 -23.333 77.5 -40s42 -37 57 -61s22.5 -51.667 22.5 -83c0 -32 -7.33301 -60 -22 -84
s-33.834 -44 -57.501 -60s-50 -27.833 -79 -35.5s-57.5 -11.5 -85.5 -11.5c-22.667 0 -45.667 2.33301 -69 7s-45.833 11.667 -67.5 21s-41.667 21.166 -60 35.499s-33.833 31.5 -46.5 51.5l117 43c13.333 -15.333 31.5 -25.666 54.5 -30.999s44.167 -8 63.5 -8
c10 0 22.667 1 38 3s30.166 5.5 44.499 10.5s26.666 12 36.999 21s15.5 20.5 15.5 34.5c0 14.667 -4.83301 27.334 -14.5 38.001s-21.5 19.834 -35.5 27.501s-28.667 13.667 -44 18s-28.666 7.16602 -39.999 8.49902c-27.333 3.33301 -55 10 -83 20s-53.667 23.333 -77 40
s-42.333 37 -57 61s-22 51.667 -22 83c0 32 7.5 59.833 22.5 83.5s34.167 43.5 57.5 59.5s49.5 27.833 78.5 35.5s57.5 11.5 85.5 11.5c22.667 0 46 -2.33301 70 -7s46.833 -11.834 68.5 -21.501s41.667 -22 60 -37s33.833 -32.833 46.5 -53.5l-115 -42
c-6.66699 8.66699 -14.834 15.667 -24.501 21s-20 9.66602 -31 12.999s-22.333 5.66602 -34 6.99902s-22.5 2 -32.5 2c-9.33301 0 -21.666 -1 -36.999 -3s-30.166 -5.66699 -44.499 -11s-26.833 -12.333 -37.5 -21s-16 -19.334 -16 -32.001zM335 -87.998
c0 -4 -1.66699 -12.667 -5 -26l-11 -42.5l-11.5 -42.5l-7.5 -27h-27v76c-17.333 0 -31.833 6 -43.5 18s-17.5 26.667 -17.5 44s5.83301 31.833 17.5 43.5s26.167 17.5 43.5 17.5s32 -5.83301 44 -17.5s18 -26.167 18 -43.5z" />
    <glyph glyph-name="uni0219" unicode="&#x219;" horiz-adv-x="430" 
d="M154 327c0 -5.33301 3.00293 -10.002 9.00293 -14.002s13 -7.33301 21 -10s15.833 -4.66699 23.5 -6s13.167 -2.33301 16.5 -3c20 -3.33301 40.333 -9.16602 61 -17.499s39.5 -19.166 56.5 -32.499s30.833 -29 41.5 -47s16 -38.333 16 -61
c0 -23.333 -5.66699 -43.5 -17 -60.5s-25.666 -31 -42.999 -42s-36.5 -19.333 -57.5 -25s-41.5 -8.5 -61.5 -8.5c-34.667 0 -69.167 7 -103.5 21s-62.166 35.333 -83.499 64l98 73c4.66699 -7.33301 11.167 -13.166 19.5 -17.499s17 -8 26 -11s18.333 -5 28 -6
s18.5 -1.5 26.5 -1.5c2.66699 0 6.5 0.166992 11.5 0.5s10 1 15 2s9.33301 2.66699 13 5s5.5 5.5 5.5 9.5c0 5.33301 -3 10 -9 14s-13 7.33301 -21 10s-15.833 4.66699 -23.5 6s-13.167 2.33301 -16.5 3c-20 3.33301 -40.333 9.16602 -61 17.499s-39.5 19.166 -56.5 32.499
s-30.833 29 -41.5 47s-16 38.333 -16 61s5.66699 42.667 17 60s25.666 31.5 42.999 42.5s36.5 19.333 57.5 25s41.5 8.5 61.5 8.5c34.667 0 69.167 -7 103.5 -21s62.166 -35.333 83.499 -64l-98 -74c-10.667 14.667 -26.167 24.5 -46.5 29.5s-38.833 7.5 -55.5 7.5
c-2.66699 0 -6.33398 -0.166992 -11.001 -0.5s-9.33398 -1.16602 -14.001 -2.49902s-8.83398 -3 -12.501 -5s-5.5 -5 -5.5 -9zM278.003 -88.002c0 -4 -1.66699 -12.667 -5 -26l-11 -42.5l-11.5 -42.5l-7.5 -27h-27v76c-17.333 0 -31.833 6 -43.5 18s-17.5 26.667 -17.5 44
s5.83301 31.833 17.5 43.5s26.167 17.5 43.5 17.5s32 -5.83301 44 -17.5s18 -26.167 18 -43.5z" />
    <glyph glyph-name="uni021A" unicode="&#x21a;" horiz-adv-x="573" 
d="M345 -88c0 -1.33301 -0.167969 -3.5 -0.500977 -6.5s-1.66602 -9 -3.99902 -18l-10.5 -40l-20 -73.5h-27v76c-17.333 0 -31.833 6 -43.5 18s-17.5 26.667 -17.5 44s5.83301 31.833 17.5 43.5s26.167 17.5 43.5 17.5s32 -5.83301 44 -17.5s18 -26.167 18 -43.5z
M542.999 552h-195v-552h-123v552h-195v123h513v-123z" />
    <glyph glyph-name="uni021B" unicode="&#x21b;" horiz-adv-x="401" 
d="M338 -88c0 -1.33301 -0.167969 -3.5 -0.500977 -6.5s-1.66602 -9 -3.99902 -18l-10.5 -40l-20 -73.5h-27v76c-17.333 0 -31.833 6 -43.5 18s-17.5 26.667 -17.5 44s5.83301 31.833 17.5 43.5s26.167 17.5 43.5 17.5s32 -5.83301 44 -17.5s18 -26.167 18 -43.5z
M261.999 232c0 -15.333 2.83301 -29.5 8.5 -42.5s13.5 -24.5 23.5 -34.5s21.5 -17.833 34.5 -23.5s27.167 -8.5 42.5 -8.5v-123c-32 0 -62.167 6 -90.5 18s-53 28.5 -74 49.5s-37.5 45.667 -49.5 74s-18 58.5 -18 90.5v161h-109v122h109v160h123v-160h109v-122h-109v-161z
" />
    <glyph glyph-name="circumflex" unicode="&#x2c6;" horiz-adv-x="344" 
d="M30 701l91 147h102l91 -147h-102l-40 65l-40 -65h-102zM30 701l91 147h102l91 -147h-102l-40 65l-40 -65h-102zM30 701l91 147h102l91 -147h-102l-40 65l-40 -65h-102zM30 701l91 147h102l91 -147h-102l-40 65l-40 -65h-102z" />
    <glyph glyph-name="caron" unicode="&#x2c7;" horiz-adv-x="344" 
d="M314 848l-91 -147h-102l-91 147h102l40 -66l40 66h102zM314 848l-91 -147h-102l-91 147h102l40 -66l40 66h102zM314 848l-91 -147h-102l-91 147h102l40 -66l40 66h102zM314 848l-91 -147h-102l-91 147h102l40 -66l40 66h102z" />
    <glyph glyph-name="breve" unicode="&#x2d8;" horiz-adv-x="354" 
d="M177 775c20 0 37.167 7 51.5 21s21.5 31.333 21.5 52h74c0 -20 -3.83301 -39 -11.5 -57s-18.167 -33.667 -31.5 -47s-29 -23.833 -47 -31.5s-37 -11.5 -57 -11.5s-39 3.83301 -57 11.5s-33.667 18.167 -47 31.5s-23.833 29 -31.5 47s-11.5 37 -11.5 57h74
c0 -20.667 7.16699 -38 21.5 -52s31.5 -21 51.5 -21z" />
    <glyph glyph-name="dotaccent" unicode="&#x2d9;" horiz-adv-x="183" 
d="M153 762c0 -17.333 -6 -31.833 -18 -43.5s-26.333 -17.5 -43 -17.5c-17.333 0 -32 5.83301 -44 17.5s-18 26.167 -18 43.5s6 31.833 18 43.5s26.667 17.5 44 17.5c16.667 0 31 -5.83301 43 -17.5s18 -26.167 18 -43.5z" />
    <glyph glyph-name="ring" unicode="&#x2da;" horiz-adv-x="294" 
d="M147 701c-16 0 -31.167 3 -45.5 9s-26.666 14.333 -36.999 25s-18.666 23.167 -24.999 37.5s-9.5 29.5 -9.5 45.5s3.16699 31 9.5 45s14.666 26.333 24.999 37s22.666 19 36.999 25s29.5 9 45.5 9s31.167 -3 45.5 -9s26.666 -14.333 36.999 -25s18.666 -23 24.999 -37
s9.5 -29 9.5 -45s-3.16699 -31.167 -9.5 -45.5s-14.666 -26.833 -24.999 -37.5s-22.666 -19 -36.999 -25s-29.5 -9 -45.5 -9zM147 868c-13.333 0 -25 -5 -35 -15s-15 -21.667 -15 -35c0 -14 5 -26 15 -36s21.667 -15 35 -15c14 0 25.833 5 35.5 15s14.5 22 14.5 36
c0 13.333 -4.83301 25 -14.5 35s-21.5 15 -35.5 15z" />
    <glyph glyph-name="ogonek" unicode="&#x2db;" horiz-adv-x="402" 
d="M372 -187c-29.333 -22 -61.1709 -40.3359 -95.5039 -55.0029s-70.166 -22 -107.499 -22c-19.333 0 -37.166 2.33301 -53.499 7s-30.666 11.834 -42.999 21.501s-22 21.834 -29 36.501s-10.5 32.334 -10.5 53.001c0 26.667 5.5 52.5 16.5 77.5s24.167 47.833 39.5 68.5
h123c-10 -7.33301 -20.5 -16.333 -31.5 -27s-21.167 -22.167 -30.5 -34.5s-17.166 -25.333 -23.499 -39s-9.5 -27.167 -9.5 -40.5c0 -16 5.5 -26.167 16.5 -30.5s23.167 -6.5 36.5 -6.5c25.333 0 50.833 5.5 76.5 16.5s48.5 24.167 68.5 39.5z" />
    <glyph glyph-name="tilde" unicode="&#x2dc;" horiz-adv-x="338" 
d="M308 729c-28 -18.667 -58.999 -28 -92.999 -28c-16.667 0 -32.334 3 -47.001 9s-29.667 9 -45 9c-16 0 -31.333 -4.66699 -46 -14l-47 70c28 18.667 59 28 93 28c17.333 0 33.333 -3 48 -9s29.667 -9 45 -9c16.667 0 31.667 4.66699 45 14z" />
    <glyph glyph-name="hungarumlaut" unicode="&#x2dd;" horiz-adv-x="403" 
d="M121 848h102l-91 -147h-102zM180 701h102l91 147h-102z" />
    <glyph glyph-name="uni0401" unicode="&#x401;" horiz-adv-x="574" 
d="M153 552v-128h287v-123h-287v-178h391v-123h-514v674h514v-123zM274 777c0 -17.333 -6 -31.833 -18 -43.5s-26.667 -17.5 -44 -17.5s-31.833 5.83301 -43.5 17.5s-17.5 26.167 -17.5 43.5s5.83301 32 17.5 44s26.167 18 43.5 18s32 -6 44 -18s18 -26.667 18 -44zM422 777
c0 -17.333 -5.83301 -31.833 -17.5 -43.5s-26.167 -17.5 -43.5 -17.5s-32 5.83301 -44 17.5s-18 26.167 -18 43.5s6 32 18 44s26.667 18 44 18s31.833 -6 43.5 -18s17.5 -26.667 17.5 -44z" />
    <glyph glyph-name="uni0402" unicode="&#x402;" horiz-adv-x="630" 
d="M367 465c32 0 62.167 -6.16895 90.5 -18.502s53 -29.166 74 -50.499s37.667 -46.166 50 -74.499s18.5 -58.833 18.5 -91.5c0 -32 -6.16699 -62 -18.5 -90s-29 -52.333 -50 -73s-45.667 -37 -74 -49s-58.5 -18 -90.5 -18v123c14.667 0 28.667 2.83301 42 8.5
s25 13.334 35 23.001s18 21.167 24 34.5s9 27.666 9 42.999c0 14.667 -2.83301 28.667 -8.5 42s-13.5 25 -23.5 35s-21.667 18 -35 24s-27.666 9 -42.999 9s-29.5 -3 -42.5 -9s-24.5 -14 -34.5 -24s-17.833 -21.667 -23.5 -35s-8.5 -27.333 -8.5 -42v-232h-123v552h-105v123
h333v-123h-105v-115c33.333 18.667 69.666 28 108.999 28z" />
    <glyph glyph-name="uni0403" unicode="&#x403;" horiz-adv-x="427" 
d="M397 552h-244v-552h-123v675h367v-123zM246 863h102l-91 -147h-102zM246 863h102l-91 -147h-102zM246 863h102l-91 -147h-102zM246 863h102l-91 -147h-102z" />
    <glyph glyph-name="uni0404" unicode="&#x404;" horiz-adv-x="600" 
d="M346 675c44 0 85.167 -8.83105 123.5 -26.498s71.833 -41.834 100.5 -72.501l-84 -90c-18 20 -38.833 36 -62.5 48s-49.5 18 -77.5 18c-22 0 -42.833 -3.83301 -62.5 -11.5s-37.5 -18.334 -53.5 -32.001s-30 -29.834 -42 -48.501s-21 -39 -27 -61h231v-123h-231
c6 -22 15 -42.5 27 -61.5s26 -35.167 42 -48.5s33.833 -23.833 53.5 -31.5s40.5 -11.5 62.5 -11.5c28 0 53.833 5.83301 77.5 17.5s44.5 27.834 62.5 48.501l84 -90c-28.667 -30.667 -62.167 -54.834 -100.5 -72.501s-79.5 -26.5 -123.5 -26.5
c-43.333 0 -84.166 8.83301 -122.499 26.5s-71.833 41.667 -100.5 72s-51.334 66 -68.001 107s-25 84.833 -25 131.5s8.33301 90.5 25 131.5s39.334 76.833 68.001 107.5s62.167 54.834 100.5 72.501s79.166 26.5 122.499 26.5z" />
    <glyph glyph-name="uni0405" unicode="&#x405;" horiz-adv-x="550" 
d="M147 485c0 -14 4.83105 -26.3271 14.498 -36.9941s21.5 -19.834 35.5 -27.501s28.5 -13.5 43.5 -17.5s28.167 -6.66699 39.5 -8c26.667 -3.33301 54.334 -10 83.001 -20s54.5 -23.5 77.5 -40.5s42 -37.5 57 -61.5s22.5 -51.333 22.5 -82c0 -32 -7.5 -60 -22.5 -84
s-34.167 -43.833 -57.5 -59.5s-49.5 -27.5 -78.5 -35.5s-57.5 -12 -85.5 -12c-22.667 0 -45.667 2.33301 -69 7s-45.666 11.667 -66.999 21s-41.333 21.333 -60 36s-34.334 31.667 -47.001 51l117 43c13.333 -15.333 31.5 -25.833 54.5 -31.5s44.167 -8.5 63.5 -8.5
c8.66699 0 20.667 1.16699 36 3.5s30.333 6 45 11s27.334 11.833 38.001 20.5s16 19.334 16 32.001c0 15.333 -4.66699 28.666 -14 39.999s-20.833 20.666 -34.5 27.999s-28.334 13.166 -44.001 17.499s-29.5 7.16602 -41.5 8.49902c-27.333 3.33301 -55 10 -83 20
s-53.667 23.5 -77 40.5s-42.333 37.5 -57 61.5s-22 51.667 -22 83c0 32 7.5 59.833 22.5 83.5s34.167 43.5 57.5 59.5s49.5 27.833 78.5 35.5s57.5 11.5 85.5 11.5c22.667 0 46 -2.33301 70 -7s46.833 -11.834 68.5 -21.501s41.834 -22 60.501 -37s34 -32.833 46 -53.5
l-115 -42c-6.66699 8.66699 -14.834 15.667 -24.501 21s-20 9.66602 -31 12.999s-22.333 5.66602 -34 6.99902s-22.5 2 -32.5 2c-10.667 0 -23.667 -1 -39 -3s-30.166 -5.66699 -44.499 -11s-26.5 -12.666 -36.5 -21.999s-15 -21 -15 -35z" />
    <glyph glyph-name="uni0406" unicode="&#x406;" horiz-adv-x="183" 
d="M153 0h-123v675h123v-675z" />
    <glyph glyph-name="uni0407" unicode="&#x407;" horiz-adv-x="331" 
d="M227 0h-123v675h123v-675zM153 777c0 -17.333 -6 -31.833 -18 -43.5s-26.667 -17.5 -44 -17.5s-31.833 5.83301 -43.5 17.5s-17.5 26.167 -17.5 43.5s5.83301 32 17.5 44s26.167 18 43.5 18s32 -6 44 -18s18 -26.667 18 -44zM301 777
c0 -17.333 -5.83301 -31.833 -17.5 -43.5s-26.167 -17.5 -43.5 -17.5s-32 5.83301 -44 17.5s-18 26.167 -18 43.5s6 32 18 44s26.667 18 44 18s31.833 -6 43.5 -18s17.5 -26.667 17.5 -44z" />
    <glyph glyph-name="uni0408" unicode="&#x408;" horiz-adv-x="575" 
d="M545 258c0 -36 -6.6709 -69.667 -20.0039 -101s-31.666 -58.666 -54.999 -81.999s-50.666 -41.666 -81.999 -54.999s-64.666 -20 -99.999 -20c-36 0 -69.667 6.66699 -101 20s-58.666 31.666 -81.999 54.999s-41.666 50.666 -54.999 81.999s-20 65 -20 101h123
c0 -18.667 3.5 -36.167 10.5 -52.5s16.667 -30.666 29 -42.999s26.666 -22 42.999 -29s33.833 -10.5 52.5 -10.5s36.167 3.5 52.5 10.5s30.5 16.667 42.5 29s21.5 26.666 28.5 42.999s10.5 33.833 10.5 52.5v294h-133v123h255z" />
    <glyph glyph-name="uni0409" unicode="&#x409;" horiz-adv-x="974" 
d="M744 401c28 0 54.167 -5.33301 78.5 -16s45.5 -25 63.5 -43s32.167 -39.167 42.5 -63.5s15.5 -50.5 15.5 -78.5s-5.16699 -54.167 -15.5 -78.5s-24.5 -45.5 -42.5 -63.5s-39.167 -32.167 -63.5 -42.5s-50.5 -15.5 -78.5 -15.5h-208v551h-247v-296
c0 -36 -6.83301 -69.667 -20.5 -101s-32.167 -58.666 -55.5 -81.999s-50.666 -41.833 -81.999 -55.5s-65 -20.5 -101 -20.5v124c18.667 0 36.167 3.5 52.5 10.5s30.666 16.667 42.999 29s22 26.666 29 42.999s10.5 33.833 10.5 52.5v419h495v-273h84zM744 123
c21.333 0 39.5 7.5 54.5 22.5s22.5 33.167 22.5 54.5s-7.5 39.5 -22.5 54.5s-33.167 22.5 -54.5 22.5h-84v-154h84z" />
    <glyph glyph-name="uni040A" unicode="&#x40a;" horiz-adv-x="858" 
d="M629 398c27.333 0 53.166 -5.16895 77.499 -15.502s45.5 -24.5 63.5 -42.5s32.167 -39.167 42.5 -63.5s15.5 -50.166 15.5 -77.499s-5.16699 -53.166 -15.5 -77.499s-24.5 -45.5 -42.5 -63.5s-39.167 -32.167 -63.5 -42.5s-50.166 -15.5 -77.499 -15.5h-207v277h-269
v-277h-123v675h123v-277h269v277h123v-277h84zM629 122.998c21.333 0 39.333 7.33301 54 22s22 32.667 22 54s-7.33301 39.333 -22 54s-32.667 22 -54 22h-84v-152h84z" />
    <glyph glyph-name="uni040B" unicode="&#x40b;" horiz-adv-x="630" 
d="M367 465c32 0 62.167 -6.16699 90.5 -18.5s53 -29 74 -50s37.667 -45.667 50 -74s18.5 -58.5 18.5 -90.5v-232h-123v232c0 15.333 -2.83301 29.666 -8.5 42.999s-13.5 25 -23.5 35s-21.667 17.833 -35 23.5s-27.666 8.5 -42.999 8.5s-29.5 -2.83301 -42.5 -8.5
s-24.5 -13.5 -34.5 -23.5s-17.833 -21.667 -23.5 -35s-8.5 -27.666 -8.5 -42.999v-232h-123v552h-105v123h333v-123h-105v-115c33.333 18.667 69.666 28 108.999 28z" />
    <glyph glyph-name="uni040C" unicode="&#x40c;" horiz-adv-x="611" 
d="M235 300l-82 -103v-197h-123v674h123v-280l222 280h157l-217 -273l266 -401h-147zM286 863h102l-91 -147h-102zM286 863h102l-91 -147h-102zM286 863h102l-91 -147h-102zM286 863h102l-91 -147h-102z" />
    <glyph glyph-name="uni040E" unicode="&#x40e;" horiz-adv-x="627" 
d="M597 675l-335 -675h-137l120 241l-215 434h137l146 -296l147 296h137zM314 790c20 0 37.167 7 51.5 21s21.5 31.333 21.5 52h74c0 -20 -3.83301 -39 -11.5 -57s-18.167 -33.667 -31.5 -47s-29 -23.833 -47 -31.5s-37 -11.5 -57 -11.5s-39 3.83301 -57 11.5
s-33.667 18.167 -47 31.5s-23.833 29 -31.5 47s-11.5 37 -11.5 57h74c0 -20.667 7.16699 -38 21.5 -52s31.5 -21 51.5 -21z" />
    <glyph glyph-name="uni040F" unicode="&#x40f;" horiz-adv-x="617" 
d="M587 675v-675h-217v-89h-123v89h-217v675h124v-551h309v551h124z" />
    <glyph glyph-name="uni0410" unicode="&#x410;" horiz-adv-x="683" 
d="M482 110h-281l-40 -110h-131l247 675h131l245 -675h-131zM438 233l-96 264l-96 -264h192z" />
    <glyph glyph-name="uni0411" unicode="&#x411;" horiz-adv-x="575" 
d="M333 424c28 0 54.666 -5.5 79.999 -16.5s47.833 -26 67.5 -45s35.334 -41.333 47.001 -67s17.5 -53.5 17.5 -83.5c0 -29.333 -5.5 -56.833 -16.5 -82.5s-26.167 -48.167 -45.5 -67.5s-41.833 -34.5 -67.5 -45.5s-53.167 -16.5 -82.5 -16.5h-303v675h391v-122h-268v-129
h180zM332.999 123c24.667 0 45.667 8.66699 63 26s26 38.333 26 63s-8.66699 45.667 -26 63s-38.333 26 -63 26h-180v-178h180z" />
    <glyph glyph-name="uni0412" unicode="&#x412;" horiz-adv-x="575" 
d="M435 398c33.333 -18 60 -43.5 80 -76.5s30 -69.5 30 -109.5c0 -29.333 -5.5 -56.833 -16.5 -82.5s-26.167 -48.167 -45.5 -67.5s-41.833 -34.5 -67.5 -45.5s-53.167 -16.5 -82.5 -16.5h-303v675h241c26 0 50.333 -4.83301 73 -14.5s42.5 -23 59.5 -40
s30.333 -36.833 40 -59.5s14.5 -47 14.5 -73c0 -32.667 -7.66699 -62.667 -23 -90zM278 424c18.667 2 32.666 9.5 41.999 22.5s14 27.167 14 42.5c0 16 -5.16699 30.667 -15.5 44s-26.166 20 -47.499 20h-118v-129h125zM332.999 123
c14.667 0.666992 27.332 3.66797 37.999 9.00098s19.667 12.166 27 20.499s12.833 17.833 16.5 28.5s5.5 21.667 5.5 33c0 22 -7.16699 42 -21.5 60s-36.166 27 -65.499 27h-180v-178h180z" />
    <glyph glyph-name="uni0413" unicode="&#x413;" horiz-adv-x="427" 
d="M397 552h-244v-552h-123v675h367v-123z" />
    <glyph glyph-name="uni0414" unicode="&#x414;" horiz-adv-x="675" 
d="M584 123h61v-212h-123v89h-369v-89h-123v212h101v552h453v-552zM460 551h-205v-428h205v428z" />
    <glyph glyph-name="uni0415" unicode="&#x415;" horiz-adv-x="574" 
d="M153 553v-128h287v-123h-287v-178h391v-123h-514v674h514v-123z" />
    <glyph glyph-name="uni0416" unicode="&#x416;" horiz-adv-x="798" 
d="M577 337l191 -337h-142l-166 294v-294h-123v294l-166 -294h-141l191 337l-191 338h141l166 -294v293h123v-293l166 294h142z" />
    <glyph glyph-name="uni0417" unicode="&#x417;" horiz-adv-x="436" 
d="M328 389c24 -20.667 43 -45.333 57 -74s21 -60 21 -94c0 -30.667 -5.66699 -59.334 -17 -86.001s-27 -50 -47 -70s-43.333 -35.833 -70 -47.5s-55.334 -17.5 -86.001 -17.5s-59.334 5.83301 -86.001 17.5s-50 27.5 -70 47.5l87 87
c9.33301 -8.66699 19.833 -15.5 31.5 -20.5s24.167 -7.5 37.5 -7.5s25.833 2.5 37.5 7.5s22 11.833 31 20.5s16 19 21 31s7.5 24.667 7.5 38s-2.5 25.833 -7.5 37.5s-12 21.834 -21 30.501s-19.333 15.5 -31 20.5s-24.167 7.5 -37.5 7.5v124c15.333 0 28.333 5.33301 39 16
s16 23.667 16 39s-5.33301 28.333 -16 39s-23.667 16 -39 16s-28.333 -5.33301 -39 -16l-87 87c16 16.667 34.833 29.667 56.5 39s44.834 14 69.501 14s47.834 -4.66699 69.501 -14s40.5 -22.166 56.5 -38.499s28.667 -35.333 38 -57s14 -44.834 14 -69.501
c0 -40 -12 -75.667 -36 -107z" />
    <glyph glyph-name="uni0418" unicode="&#x418;" horiz-adv-x="573" 
d="M153 675v-438l267 438h123v-675h-123v438l-267 -438h-123v675h123z" />
    <glyph glyph-name="uni0419" unicode="&#x419;" horiz-adv-x="573" 
d="M153 675v-438l267 438h123v-675h-123v438l-267 -438h-123v675h123zM291 790c20 0 37.167 7 51.5 21s21.5 31.333 21.5 52h74c0 -20 -3.83301 -39 -11.5 -57s-18.167 -33.667 -31.5 -47s-29 -23.833 -47 -31.5s-37 -11.5 -57 -11.5s-39 3.83301 -57 11.5
s-33.667 18.167 -47 31.5s-23.833 29 -31.5 47s-11.5 37 -11.5 57h74c0 -20.667 7.16699 -38 21.5 -52s31.5 -21 51.5 -21z" />
    <glyph glyph-name="uni041A" unicode="&#x41a;" horiz-adv-x="611" 
d="M235 300l-82 -103v-197h-123v674h123v-280l222 280h157l-217 -273l266 -401h-147z" />
    <glyph glyph-name="uni041B" unicode="&#x41b;" horiz-adv-x="690" 
d="M660 675v-675h-124v551h-247v-296c0 -36 -6.83301 -69.667 -20.5 -101s-32.167 -58.666 -55.5 -81.999s-50.666 -41.833 -81.999 -55.5s-65 -20.5 -101 -20.5v124c18.667 0 36.167 3.5 52.5 10.5s30.666 16.667 42.999 29s22 26.666 29 42.999s10.5 33.833 10.5 52.5v420
h495z" />
    <glyph glyph-name="uni041C" unicode="&#x41c;" horiz-adv-x="738" 
d="M708 675v-675h-123v455l-155 -234h-122l-155 234v-455h-123v675h123l216 -326l216 326h123z" />
    <glyph glyph-name="uni041D" unicode="&#x41d;" horiz-adv-x="575" 
d="M545 675v-675h-123v277h-269v-277h-123v675h123v-277h269v277h123z" />
    <glyph glyph-name="uni041E" unicode="&#x41e;" horiz-adv-x="735" 
d="M367 675c46.667 0 90.5 -8.83301 131.5 -26.5s76.833 -41.834 107.5 -72.501s54.834 -66.5 72.501 -107.5s26.5 -84.833 26.5 -131.5s-8.83301 -90.5 -26.5 -131.5s-41.834 -76.667 -72.501 -107s-66.5 -54.333 -107.5 -72s-84.833 -26.5 -131.5 -26.5
s-90.5 8.83301 -131.5 26.5s-76.667 41.667 -107 72s-54.333 66 -72 107s-26.5 84.833 -26.5 131.5s8.83301 90.5 26.5 131.5s41.667 76.833 72 107.5s66 54.834 107 72.501s84.833 26.5 131.5 26.5zM367 123c29.333 0 57 5.66699 83 17s48.833 26.666 68.5 45.999
s35.167 42 46.5 68s17 53.667 17 83s-5.66699 57 -17 83s-26.833 48.833 -46.5 68.5s-42.5 35.167 -68.5 46.5s-53.667 17 -83 17s-57 -5.66699 -83 -17s-48.667 -26.833 -68 -46.5s-34.666 -42.5 -45.999 -68.5s-17 -53.667 -17 -83s5.66699 -57 17 -83
s26.666 -48.667 45.999 -68s42 -34.666 68 -45.999s53.667 -17 83 -17z" />
    <glyph glyph-name="uni041F" unicode="&#x41f;" horiz-adv-x="616" 
d="M586 675v-675h-123v551h-309v-551h-124v675h556z" />
    <glyph glyph-name="uni0420" unicode="&#x420;" horiz-adv-x="606" 
d="M310 675c36.667 0 71.167 -6.66309 103.5 -19.9961s60.5 -31.333 84.5 -54s43 -49.334 57 -80.001s21 -63.334 21 -98.001s-7 -67.334 -21 -98.001s-33 -57.334 -57 -80.001s-52.167 -40.5 -84.5 -53.5s-66.833 -19.5 -103.5 -19.5h-150v-172h-130v675h280zM310 295.004
c18.667 0 36.334 3.33008 53.001 9.99707s31.167 15.834 43.5 27.501s22 25.167 29 40.5s10.5 32 10.5 50s-3.5 34.833 -10.5 50.5s-16.667 29.334 -29 41.001s-26.833 20.834 -43.5 27.501s-34.334 10 -53.001 10h-150v-257h150z" />
    <glyph glyph-name="uni0421" unicode="&#x421;" horiz-adv-x="636" 
d="M606 99c-30.667 -30.667 -66.5 -54.832 -107.5 -72.499s-84.833 -26.5 -131.5 -26.5s-90.5 8.83301 -131.5 26.5s-76.667 41.667 -107 72s-54.333 66 -72 107s-26.5 84.833 -26.5 131.5s8.83301 90.5 26.5 131.5s41.667 76.833 72 107.5s66 54.834 107 72.501
s84.833 26.5 131.5 26.5s90.5 -8.83301 131.5 -26.5s76.833 -41.834 107.5 -72.501l-87 -87c-19.333 19.333 -42 34.666 -68 45.999s-54 17 -84 17c-29.333 0 -57 -5.66699 -83 -17s-48.667 -26.833 -68 -46.5s-34.666 -42.5 -45.999 -68.5s-17 -53.667 -17 -83
s5.66699 -57 17 -83s26.666 -48.667 45.999 -68s42 -34.666 68 -45.999s53.667 -17 83 -17c30 0 58 5.66699 84 17s48.667 26.666 68 45.999z" />
    <glyph glyph-name="uni0422" unicode="&#x422;" horiz-adv-x="573" 
d="M543 552h-195v-552h-123v552h-195v123h513v-123z" />
    <glyph glyph-name="uni0423" unicode="&#x423;" horiz-adv-x="627" 
d="M597 675l-335 -675h-137l120 241l-215 434h137l146 -296l147 296h137z" />
    <glyph glyph-name="uni0424" unicode="&#x424;" horiz-adv-x="614" 
d="M584 337c0 -32.667 -5.5 -63.834 -16.5 -93.501s-26 -56.334 -45 -80.001s-41.833 -44 -68.5 -61s-55.334 -28.833 -86.001 -35.5v-67h-122v67c-31.333 6.66699 -60.166 18.5 -86.499 35.5s-49 37.333 -68 61s-34 50.334 -45 80.001s-16.5 60.834 -16.5 93.501
s5.5 63.834 16.5 93.501s26 56.5 45 80.5s41.667 44.167 68 60.5s55.166 28.166 86.499 35.499v68h122v-68c30.667 -7.33301 59.334 -19.166 86.001 -35.499s49.5 -36.5 68.5 -60.5s34 -50.833 45 -80.5s16.5 -60.834 16.5 -93.501zM153 337c0 -32 8.5 -60.5 25.5 -85.5
s39.5 -43.5 67.5 -55.5v283c-28 -12 -50.5 -30.667 -67.5 -56s-25.5 -54 -25.5 -86zM368 196c28 12 50.5 30.5 67.5 55.5s25.5 53.5 25.5 85.5s-8.5 60.667 -25.5 86s-39.5 44 -67.5 56v-283z" />
    <glyph glyph-name="uni0425" unicode="&#x425;" horiz-adv-x="630" 
d="M387 337l213 -337h-145l-140 222l-140 -222h-145l212 337l-212 338h145l140 -223l140 223h145z" />
    <glyph glyph-name="uni0426" unicode="&#x426;" horiz-adv-x="679" 
d="M649 124v-213h-124v88h-495v676h124v-551h309v551h124v-551h62z" />
    <glyph glyph-name="uni0427" unicode="&#x427;" horiz-adv-x="552" 
d="M522 675l-0.000976562 -674.999h-123v235c-13.333 -2 -26.333 -3 -39 -3c-45.333 0 -88 8.66699 -128 26s-75 41 -105 71s-53.667 65 -71 105s-26 82.667 -26 128v113h124v-113c0 -28.667 5.33301 -55.5 16 -80.5s25.334 -46.833 44.001 -65.5s40.5 -33.334 65.5 -44.001
s51.833 -16 80.5 -16c14.667 0 27.667 1.33301 39 4v315h123z" />
    <glyph glyph-name="uni0428" unicode="&#x428;" horiz-adv-x="663" 
d="M633 675v-675h-603v675h124v-551h116v551h123v-551h116v551h124z" />
    <glyph glyph-name="uni0429" unicode="&#x429;" horiz-adv-x="725" 
d="M695 124v-213h-124v88h-541v676h124v-552h116v552h123v-552h116v552h124v-551h62z" />
    <glyph glyph-name="uni042A" unicode="&#x42a;" horiz-adv-x="694" 
d="M553 398c33.333 -18 60.166 -43.5 80.499 -76.5s30.5 -69.5 30.5 -109.5c0 -29.333 -5.5 -56.833 -16.5 -82.5s-26.167 -48.167 -45.5 -67.5s-41.833 -34.5 -67.5 -45.5s-53.167 -16.5 -82.5 -16.5h-304v553h-118v122h241v-251h181c36.667 0 70.334 -8.66699 101.001 -26
zM452 123c24.667 0 45.667 8.66699 63 26s26 38.333 26 63s-8.66699 45.667 -26 63s-38.333 26 -63 26h-181v-178h181z" />
    <glyph glyph-name="uni042B" unicode="&#x42b;" horiz-adv-x="748" 
d="M718 675v-675h-123v675h123zM333 424c28 0 54.8301 -5.5 80.4971 -16.5s48.334 -26 68.001 -45s35.334 -41.333 47.001 -67s17.5 -53.5 17.5 -83.5c0 -29.333 -5.66699 -56.833 -17 -82.5s-26.666 -48.167 -45.999 -67.5s-41.833 -34.5 -67.5 -45.5
s-53.167 -16.5 -82.5 -16.5h-303v675h123v-251h180zM332.997 123c25.333 0 46.666 8.66699 63.999 26s26 38.333 26 63s-8.66699 45.667 -26 63s-38.666 26 -63.999 26h-180v-178h180z" />
    <glyph glyph-name="uni042C" unicode="&#x42c;" horiz-adv-x="576" 
d="M435 398c33.333 -18 60.166 -43.5 80.499 -76.5s30.5 -69.5 30.5 -109.5c0 -29.333 -5.5 -56.833 -16.5 -82.5s-26.167 -48.167 -45.5 -67.5s-41.833 -34.5 -67.5 -45.5s-53.167 -16.5 -82.5 -16.5h-304v675h123v-251h181c36.667 0 70.334 -8.66699 101.001 -26zM334 123
c24.667 0 45.667 8.66699 63 26s26 38.333 26 63s-8.66699 45.667 -26 63s-38.333 26 -63 26h-181v-178h181z" />
    <glyph glyph-name="uni042D" unicode="&#x42d;" horiz-adv-x="600" 
d="M254 675c43.333 0 84.166 -8.83496 122.499 -26.502s71.833 -41.834 100.5 -72.501s51.334 -66.5 68.001 -107.5s25 -84.833 25 -131.5s-8.33301 -90.5 -25 -131.5s-39.334 -76.667 -68.001 -107s-62.167 -54.333 -100.5 -72s-79.166 -26.5 -122.499 -26.5
c-44 0 -85.167 8.83301 -123.5 26.5s-71.833 41.834 -100.5 72.501l84 90c18 -20.667 38.833 -36.834 62.5 -48.501s49.5 -17.5 77.5 -17.5c22 0 42.833 3.83301 62.5 11.5s37.5 18.167 53.5 31.5s30 29.5 42 48.5s21 39.5 27 61.5h-231v123h231c-6 22 -15 42.333 -27 61
s-26 34.834 -42 48.501s-33.833 24.334 -53.5 32.001s-40.5 11.5 -62.5 11.5c-28 0 -53.833 -6 -77.5 -18s-44.5 -28 -62.5 -48l-84 90c28.667 30.667 62.167 54.834 100.5 72.501s79.5 26.5 123.5 26.5z" />
    <glyph glyph-name="uni042E" unicode="&#x42e;" horiz-adv-x="732" 
d="M474 675c32 0 61.833 -8.66797 89.5 -26.001s51.834 -41.333 72.501 -72s36.834 -66.5 48.501 -107.5s17.5 -85.167 17.5 -132.5s-5.83301 -91.5 -17.5 -132.5s-27.834 -76.667 -48.501 -107s-44.834 -54.166 -72.501 -71.499s-57.5 -26 -89.5 -26
c-28 0 -54.667 7 -80 21s-47.833 33.167 -67.5 57.5s-36.167 53.333 -49.5 87s-22.333 70.5 -27 110.5h-97v-275h-123v673h123v-275h97c4.66699 40 13.667 76.833 27 110.5s29.833 62.667 49.5 87s42.167 43.5 67.5 57.5s52 21 80 21zM474 122.999
c12.667 0 25.167 5.5 37.5 16.5s23.5 26 33.5 45s18.167 41.5 24.5 67.5s9.5 54.333 9.5 85s-3.16699 59.167 -9.5 85.5s-14.5 49 -24.5 68s-21.167 33.833 -33.5 44.5s-24.833 16 -37.5 16c-12 0 -24.167 -5.33301 -36.5 -16s-23.5 -25.5 -33.5 -44.5
s-18.167 -41.667 -24.5 -68s-9.5 -54.833 -9.5 -85.5s3.16699 -59 9.5 -85s14.5 -48.5 24.5 -67.5s21.167 -34 33.5 -45s24.5 -16.5 36.5 -16.5z" />
    <glyph glyph-name="uni042F" unicode="&#x42f;" horiz-adv-x="575" 
d="M167 200c-40.667 20.667 -73.667 50.8301 -99 90.4971s-38 83.834 -38 132.501c0 34.667 6.66699 67.334 20 98.001s31.333 57.334 54 80.001s49.167 40.667 79.5 54s62.833 20 97.5 20h264v-675h-123v172h-125l-118 -172h-149zM281 551.996
c-17.333 0 -33.833 -3.33008 -49.5 -9.99707s-29.334 -15.834 -41.001 -27.501s-20.834 -25.334 -27.501 -41.001s-10 -32.5 -10 -50.5s3.33301 -34.667 10 -50s15.834 -28.833 27.501 -40.5s25.334 -20.834 41.001 -27.501s32.167 -10 49.5 -10h141v257h-141z" />
    <glyph glyph-name="uni0430" unicode="&#x430;" 
d="M495 465v-464.999h-123v27c-16.667 -8.66699 -34.167 -15.334 -52.5 -20.001s-37.5 -7 -57.5 -7c-32 0 -62.167 6 -90.5 18s-53 28.5 -74 49.5s-37.5 45.667 -49.5 74s-18 58.5 -18 90.5s6 62.167 18 90.5s28.5 53 49.5 74s45.667 37.667 74 50s58.5 18.5 90.5 18.5
c39.333 0 76 -9.33301 110 -28v28h123zM262 123.001c15.333 0 29.666 2.83301 42.999 8.5s25 13.5 35 23.5s17.833 21.5 23.5 34.5s8.5 27.167 8.5 42.5s-2.83301 29.666 -8.5 42.999s-13.5 25 -23.5 35s-21.667 17.833 -35 23.5s-27.666 8.5 -42.999 8.5
s-29.5 -2.83301 -42.5 -8.5s-24.5 -13.5 -34.5 -23.5s-17.833 -21.667 -23.5 -35s-8.5 -27.666 -8.5 -42.999s2.83301 -29.5 8.5 -42.5s13.5 -24.5 23.5 -34.5s21.5 -17.833 34.5 -23.5s27.167 -8.5 42.5 -8.5z" />
    <glyph glyph-name="uni0431" unicode="&#x431;" horiz-adv-x="541" 
d="M167 456c30.667 15.333 63.3359 23.001 98.0029 23.001c32.667 0 63.667 -6.33301 93 -19s55.333 -29.667 78 -51s40.667 -46.666 54 -75.999s20 -60.333 20 -93c0 -33.333 -6.33301 -64.5 -19 -93.5s-29.834 -54.333 -51.501 -76s-47.167 -38.834 -76.5 -51.501
s-60.333 -19 -93 -19c-33.333 0 -64.5 6.33301 -93.5 19s-54.333 29.834 -76 51.501s-38.667 47.167 -51 76.5s-18.5 60.666 -18.5 93.999c0 13.333 -0.333008 31.333 -1 54s-1 45.667 -1 69c0 17.333 0.333008 33.666 1 48.999s2 27.666 4 36.999c6 32 16.667 60.333 32 85
s34.166 45.334 56.499 62.001s47.666 29.334 75.999 38.001s58.5 13 90.5 13c18.667 0 35.167 1.16699 49.5 3.5s29.166 10.166 44.499 23.499l90 -90c-12.667 -18 -27.5 -31 -44.5 -39s-35 -13.5 -54 -16.5s-38.667 -4.83301 -59 -5.5s-39.666 -2.66699 -57.999 -6
s-35.5 -9.5 -51.5 -18.5s-29 -23.5 -39 -43.5zM270.002 126.001c15.333 0 30.001 3 44.001 9s26.167 14.167 36.5 24.5s18.5 22.333 24.5 36s9 28.167 9 43.5c0 16 -3 30.833 -9 44.5s-14.333 25.667 -25 36s-22.834 18.5 -36.501 24.5s-28.5 9 -44.5 9
c-15.333 0 -29.833 -3 -43.5 -9s-25.5 -14.167 -35.5 -24.5s-18 -22.5 -24 -36.5s-9 -28.667 -9 -44s3 -29.833 9 -43.5s14.167 -25.667 24.5 -36s22.333 -18.5 36 -24.5s28.167 -9 43.5 -9z" />
    <glyph glyph-name="uni0432" unicode="&#x432;" horiz-adv-x="420" 
d="M322 276c21.333 -13.333 38 -31.334 50 -54.001s18 -46.667 18 -72c0 -41.333 -14.667 -76.666 -44 -105.999c-14.667 -14 -31 -24.833 -49 -32.5s-37 -11.5 -57 -11.5h-210v464h169c18.667 0 36.167 -3.5 52.5 -10.5s30.5 -16.5 42.5 -28.5s21.5 -26.167 28.5 -42.5
s10.5 -33.5 10.5 -51.5c0 -18.667 -3.66699 -37 -11 -55zM203 300.999c7.33301 0.666992 13.667 3.83301 19 9.5s8 12.5 8 20.5s-3 15 -9 21s-13.333 9 -22 9h-65v-60h69zM286.001 149.998c0 13.333 -4.5 24.5 -13.5 33.5s-19.833 13.5 -32.5 13.5h-106v-93h106
c12.667 0 23.5 4.5 32.5 13.5s13.5 19.833 13.5 32.5z" />
    <glyph glyph-name="uni0433" unicode="&#x433;" horiz-adv-x="384" 
d="M354 341h-200v-341h-124v465h324v-124z" />
    <glyph glyph-name="uni0434" unicode="&#x434;" horiz-adv-x="548" 
d="M457 121h61v-210h-122v88h-244v-88h-122v210h91v344h336v-344zM243 343v-222h92v222h-92z" />
    <glyph glyph-name="uni0435" unicode="&#x435;" horiz-adv-x="524" 
d="M262 465c32 0 62 -6.33203 90 -18.999s52.5 -29.5 73.5 -50.5s37.667 -45.667 50 -74s18.5 -57.833 18.5 -88.5c0 -20.667 -3 -41 -9 -61h-313c9.33301 -14.667 21.833 -26.334 37.5 -35.001s33.167 -13 52.5 -13c15.333 0 29.5 2.83301 42.5 8.5s24.5 13.5 34.5 23.5
l87 -87c-21.333 -21.333 -46 -38 -74 -50s-58 -18 -90 -18s-62.167 6 -90.5 18s-53 28.5 -74 49.5s-37.5 45.667 -49.5 74s-18 58.5 -18 90.5s6 62 18 90s28.5 52.5 49.5 73.5s45.667 37.667 74 50s58.5 18.5 90.5 18.5zM262 342.001c-19.333 0 -36.833 -4.33301 -52.5 -13
s-28.167 -20.334 -37.5 -35.001h180c-9.33301 14.667 -22 26.334 -38 35.001s-33.333 13 -52 13z" />
    <glyph glyph-name="uni0436" unicode="&#x436;" horiz-adv-x="680" 
d="M518 232l131 -232h-141l-107 188v-188h-123v188l-106 -188h-141l131 232l-132 233h141l107 -190v190h123v-190l108 190h141z" />
    <glyph glyph-name="uni0437" unicode="&#x437;" horiz-adv-x="342" 
d="M267 268c14 -15.333 24.998 -32.334 32.998 -51.001s12 -38.334 12 -59.001c0 -22 -4.16699 -42.5 -12.5 -61.5s-19.666 -35.667 -33.999 -50s-31 -25.666 -50 -33.999s-39.5 -12.5 -61.5 -12.5c-21.333 0 -42 4.33301 -62 13s-40.667 23.667 -62 45l80 80
c10.667 -10 19.167 -16.667 25.5 -20s12.5 -5 18.5 -5c12 0 22.333 4.33301 31 13s13 19.334 13 32.001c0 12 -5 22.333 -15 31s-25.333 13 -46 13v114c13.333 0 22.333 1.66699 27 5s7 7.66602 7 12.999c0 4.66699 -1.66699 8.66699 -5 12s-7.33301 5 -12 5
c-2.66699 0 -5.66699 -0.833008 -9 -2.5s-8.66602 -6.5 -15.999 -14.5l-80 80c18.667 18.667 36.5 31.834 53.5 39.501s34.167 11.5 51.5 11.5c18 0 35 -3.5 51 -10.5s29.833 -16.333 41.5 -28s21 -25.5 28 -41.5s10.5 -33 10.5 -51c0 -24 -6 -46 -18 -66z" />
    <glyph glyph-name="uni0438" unicode="&#x438;" horiz-adv-x="462" 
d="M432 464v-464h-123v244l-146 -244h-133v464h123v-243l146 243h133z" />
    <glyph glyph-name="uni0439" unicode="&#x439;" horiz-adv-x="462" 
d="M432 464v-464h-123v244l-146 -244h-133v464h123v-243l146 243h133zM231 575c20 0 37.167 7 51.5 21s21.5 31.333 21.5 52h74c0 -20 -3.83301 -39 -11.5 -57s-18.167 -33.667 -31.5 -47s-29 -23.833 -47 -31.5s-37 -11.5 -57 -11.5s-39 3.83301 -57 11.5
s-33.667 18.167 -47 31.5s-23.833 29 -31.5 47s-11.5 37 -11.5 57h74c0 -20.667 7.16699 -38 21.5 -52s31.5 -21 51.5 -21z" />
    <glyph glyph-name="uni043A" unicode="&#x43a;" horiz-adv-x="516" 
d="M189 198l-36 -36v-162h-123v675h123v-339l130 130h174l-180 -180l209 -286h-152z" />
    <glyph glyph-name="uni043B" unicode="&#x43b;" horiz-adv-x="633" 
d="M603 465l0.000976562 -464.999h-125v340h-187v-83c0 -36 -6.83301 -69.833 -20.5 -101.5s-32.334 -59.334 -56.001 -83.001s-51.334 -42.334 -83.001 -56.001s-65.5 -20.5 -101.5 -20.5v125c18.667 0 36.334 3.5 53.001 10.5s31.167 16.667 43.5 29s22 26.833 29 43.5
s10.5 34.334 10.5 53.001v208h437z" />
    <glyph glyph-name="uni043C" unicode="&#x43c;" horiz-adv-x="685" 
d="M655 465v-465h-123v237l-139 -237h-101l-138 237v-237h-124v465h133l180 -307l179 307h133z" />
    <glyph glyph-name="uni043D" unicode="&#x43d;" 
d="M495 465v-465h-126v166h-214v-166h-125v465h125v-173h214v173h126z" />
    <glyph glyph-name="uni043E" unicode="&#x43e;" 
d="M262 465c32 0 62.167 -6.16699 90.5 -18.5s53 -29 74 -50s37.667 -45.667 50 -74s18.5 -58.5 18.5 -90.5s-6.16699 -62.167 -18.5 -90.5s-29 -53 -50 -74s-45.667 -37.5 -74 -49.5s-58.5 -18 -90.5 -18s-62.167 6 -90.5 18s-53 28.5 -74 49.5s-37.5 45.667 -49.5 74
s-18 58.5 -18 90.5s6 62.167 18 90.5s28.5 53 49.5 74s45.667 37.667 74 50s58.5 18.5 90.5 18.5zM262 123c15.333 0 29.666 2.83301 42.999 8.5s25 13.5 35 23.5s17.833 21.5 23.5 34.5s8.5 27.167 8.5 42.5s-2.83301 29.666 -8.5 42.999s-13.5 25 -23.5 35
s-21.667 17.833 -35 23.5s-27.666 8.5 -42.999 8.5s-29.5 -2.83301 -42.5 -8.5s-24.5 -13.5 -34.5 -23.5s-17.833 -21.667 -23.5 -35s-8.5 -27.666 -8.5 -42.999s2.83301 -29.5 8.5 -42.5s13.5 -24.5 23.5 -34.5s21.5 -17.833 34.5 -23.5s27.167 -8.5 42.5 -8.5z" />
    <glyph glyph-name="uni043F" unicode="&#x43f;" horiz-adv-x="516" 
d="M486 465v-465h-123v341h-210v-341h-123v465h456z" />
    <glyph glyph-name="uni0440" unicode="&#x440;" horiz-adv-x="552" 
d="M276 465c34 0 65.998 -6.16797 95.998 -18.501s56 -29 78 -50s39.5 -45.667 52.5 -74s19.5 -58.5 19.5 -90.5s-6.5 -62.167 -19.5 -90.5s-30.5 -53 -52.5 -74s-48 -37.5 -78 -49.5s-62 -18 -96 -18c-21.333 0 -41.666 2.33301 -60.999 7s-37.666 11.334 -54.999 20.001
v-237h-130v675h130v-28c36 18.667 74.667 28 116 28zM275.998 122.999c16 0 31 2.83301 45 8.5s26.333 13.5 37 23.5s19 21.5 25 34.5s9 27.167 9 42.5s-3 29.666 -9 42.999s-14.333 25 -25 35s-23 17.833 -37 23.5s-29 8.5 -45 8.5s-31 -2.83301 -45 -8.5
s-26.333 -13.5 -37 -23.5s-19 -21.667 -25 -35s-9 -27.666 -9 -42.999s3 -29.5 9 -42.5s14.333 -24.5 25 -34.5s23 -17.833 37 -23.5s29 -8.5 45 -8.5z" />
    <glyph glyph-name="uni0441" unicode="&#x441;" horiz-adv-x="457" 
d="M262 465c32 0 62.167 -6.00098 90.5 -18.001s53.166 -28.667 74.499 -50l-87 -87c-10 9.33301 -21.667 17 -35 23s-27.666 9 -42.999 9s-29.5 -2.83301 -42.5 -8.5s-24.5 -13.5 -34.5 -23.5s-17.833 -21.667 -23.5 -35s-8.5 -27.666 -8.5 -42.999
s2.83301 -29.5 8.5 -42.5s13.5 -24.5 23.5 -34.5s21.5 -17.833 34.5 -23.5s27.167 -8.5 42.5 -8.5s29.666 2.83301 42.999 8.5s25 13.5 35 23.5l87 -87c-21.333 -21.333 -46.166 -38 -74.499 -50s-58.5 -18 -90.5 -18s-62.167 6 -90.5 18s-53 28.5 -74 49.5
s-37.5 45.667 -49.5 74s-18 58.5 -18 90.5s6 62.167 18 90.5s28.5 53 49.5 74s45.667 37.667 74 50s58.5 18.5 90.5 18.5z" />
    <glyph glyph-name="uni0442" unicode="&#x442;" horiz-adv-x="516" 
d="M486 465v-124h-166v-341h-123v341h-167v124h456z" />
    <glyph glyph-name="uni0443" unicode="&#x443;" horiz-adv-x="523" 
d="M493 465l-0.000976562 -550c0 -32 -6.16699 -62.167 -18.5 -90.5s-29 -53 -50 -74s-45.5 -37.5 -73.5 -49.5s-58 -18 -90 -18s-62 6 -90 18s-52.5 28.5 -73.5 49.5s-37.5 45.667 -49.5 74s-18 58.5 -18 90.5h122c0 -15.333 2.83301 -29.5 8.5 -42.5
s13.5 -24.5 23.5 -34.5s21.5 -17.833 34.5 -23.5s27.167 -8.5 42.5 -8.5c14.667 0 28.667 2.83301 42 8.5s25 13.5 35 23.5s17.833 21.5 23.5 34.5s8.5 27.167 8.5 42.5v114c-33.333 -18.667 -69.666 -28 -108.999 -28c-32 0 -62 6 -90 18s-52.5 28.5 -73.5 49.5
s-37.5 45.667 -49.5 74s-18 58.5 -18 90.5v232h122v-232c0 -15.333 2.83301 -29.5 8.5 -42.5s13.5 -24.5 23.5 -34.5s21.5 -17.833 34.5 -23.5s27.167 -8.5 42.5 -8.5c14.667 0 28.667 2.83301 42 8.5s25 13.5 35 23.5s17.833 21.5 23.5 34.5s8.5 27.167 8.5 42.5v232h123z
" />
    <glyph glyph-name="uni0444" unicode="&#x444;" horiz-adv-x="662" 
d="M451 553c24.667 0 48.001 -5.66699 70.001 -17s41.333 -26.833 58 -46.5s29.667 -42.5 39 -68.5s14 -54 14 -84s-4.66699 -58 -14 -84s-22.333 -48.833 -39 -68.5s-36 -35.167 -58 -46.5s-45.333 -17 -70 -17c-20.667 0 -40.334 4 -59.001 12v-133h-122v133
c-19.333 -8 -39 -12 -59 -12c-25.333 0 -48.833 5.66699 -70.5 17s-40.834 26.833 -57.501 46.5s-29.667 42.5 -39 68.5s-14 54 -14 84s4.66699 58 14 84s22.333 48.833 39 68.5s35.834 35.167 57.501 46.5s45.167 17 70.5 17c19.333 0 39 -3.66699 59 -11v133h122v-133
c20 7.33301 39.667 11 59 11zM211.001 244c14 0 27.333 8.5 40 25.5s19 39.5 19 67.5s-6.33301 50.667 -19 68s-26 26 -40 26s-27.167 -8.66699 -39.5 -26s-18.5 -40 -18.5 -68s6.16699 -50.5 18.5 -67.5s25.5 -25.5 39.5 -25.5zM451.001 244
c13.333 0 26.333 8.66895 39 26.002s19 39.666 19 66.999c0 14 -1.83301 26.667 -5.5 38s-8.16699 21.166 -13.5 29.499s-11.5 14.833 -18.5 19.5s-13.833 7 -20.5 7c-14 0 -27.333 -8.66699 -40 -26s-19 -40 -19 -68s6.33301 -50.5 19 -67.5s26 -25.5 40 -25.5z" />
    <glyph glyph-name="uni0445" unicode="&#x445;" horiz-adv-x="515" 
d="M331 232l154 -232h-148l-80 120l-79 -120h-148l153 232l-153 233h148l79 -121l80 121h148z" />
    <glyph glyph-name="uni0446" unicode="&#x446;" horiz-adv-x="578" 
d="M548 123v-212h-123v89h-395v464h123v-341h210v342h124v-342h61z" />
    <glyph glyph-name="uni0447" unicode="&#x447;" horiz-adv-x="451" 
d="M421 465l0.000976562 -465.001h-123v160c-7.33301 -1.33301 -14.333 -2.33301 -21 -3s-13.667 -1 -21 -1c-31.333 0 -60.666 5.83301 -87.999 17.5s-51.333 27.834 -72 48.501s-36.834 44.667 -48.501 72s-17.5 56.666 -17.5 87.999v83h123v-83
c0 -14 2.66699 -27.333 8 -40s12.666 -23.667 21.999 -33s20.333 -16.666 33 -21.999s26 -8 40 -8c14.667 0 28.667 3 42 9v177h123z" />
    <glyph glyph-name="uni0448" unicode="&#x448;" horiz-adv-x="635" 
d="M605 465v-464h-575v464h123v-341h103v341h123v-341h103v341h123z" />
    <glyph glyph-name="uni0449" unicode="&#x449;" horiz-adv-x="696" 
d="M666 123v-212h-123v90h-513v464h123v-341h103v341h123v-341h103v341h123v-342h61z" />
    <glyph glyph-name="uni044A" unicode="&#x44a;" horiz-adv-x="551" 
d="M335 372c26 0 50.167 -4.83301 72.5 -14.5s42 -23 59 -40s30.333 -36.667 40 -59s14.5 -46.5 14.5 -72.5s-4.83301 -50.167 -14.5 -72.5s-23 -42 -40 -59s-36.667 -30.333 -59 -40s-46.5 -14.5 -72.5 -14.5h-186v342h-119v123h242v-93h63zM335 123
c17.333 0 32.166 6.16895 44.499 18.502s18.5 27.166 18.5 44.499s-6.16699 32.166 -18.5 44.499s-27.166 18.5 -44.499 18.5h-63v-126h63z" />
    <glyph glyph-name="uni044B" unicode="&#x44b;" horiz-adv-x="599" 
d="M569 465v-465h-123v465h123zM216 372c25.333 0 49.333 -4.83301 72 -14.5s42.5 -23 59.5 -40s30.333 -36.667 40 -59s14.5 -46.5 14.5 -72.5s-4.83301 -50.167 -14.5 -72.5s-23 -42 -40 -59s-36.833 -30.333 -59.5 -40s-46.667 -14.5 -72 -14.5h-186v465h123v-93h63z
M216 123c17.333 0 32.166 6.16895 44.499 18.502s18.5 27.166 18.5 44.499s-6.16699 32.166 -18.5 44.499s-27.166 18.5 -44.499 18.5h-63v-126h63z" />
    <glyph glyph-name="uni044C" unicode="&#x44c;" horiz-adv-x="432" 
d="M216 372c26 0 50.167 -4.83301 72.5 -14.5s42 -23 59 -40s30.333 -36.667 40 -59s14.5 -46.5 14.5 -72.5s-4.83301 -50.167 -14.5 -72.5s-23 -42 -40 -59s-36.667 -30.333 -59 -40s-46.5 -14.5 -72.5 -14.5h-186v465h123v-93h63zM216 123
c17.333 0 32.166 6.16895 44.499 18.502s18.5 27.166 18.5 44.499s-6.16699 32.166 -18.5 44.499s-27.166 18.5 -44.499 18.5h-63v-126h63z" />
    <glyph glyph-name="uni044D" unicode="&#x44d;" horiz-adv-x="457" 
d="M194 465c32 0 62.168 -6.16602 90.501 -18.499s53 -29 74 -50s37.667 -45.667 50 -74s18.5 -58.5 18.5 -90.5s-6.16699 -62.167 -18.5 -90.5s-29 -53 -50 -74s-45.667 -37.5 -74 -49.5s-58.5 -18 -90.5 -18s-62 6 -90 18s-52.667 28.667 -74 50l86 86
c10 -10 21.667 -18 35 -24s27.666 -9 42.999 -9c19.333 0 37.333 4.66699 54 14s30 21.666 40 36.999h-89v124h86c-10 14.667 -22.833 26.167 -38.5 34.5s-33.167 12.5 -52.5 12.5c-30.667 0 -56.667 -10.667 -78 -32l-86 86c21.333 21.333 46 38 74 50s58 18 90 18z" />
    <glyph glyph-name="uni044E" unicode="&#x44e;" horiz-adv-x="606" 
d="M396 461c25.333 0 48.999 -6 70.999 -18s41 -28.333 57 -49s28.667 -45 38 -73s14 -58 14 -90c0 -32.667 -4.66699 -63 -14 -91s-22 -52.333 -38 -73s-35 -37 -57 -49s-45.667 -18 -71 -18c-21.333 -0 -41.5 4.33301 -60.5 13s-36 20.5 -51 35.5s-28 33 -39 54
s-18.833 44.167 -23.5 69.5h-69v-170h-123v463h123v-171h70c5.33301 24.667 13.5 47.167 24.5 67.5s24 37.833 39 52.5s31.833 26.167 50.5 34.5s38.334 12.5 59.001 12.5zM395.999 121c6.66699 0 13.5 2.83301 20.5 8.5s13.333 13.5 19 23.5s10.334 21.667 14.001 35
s5.5 27.666 5.5 42.999s-1.83301 29.666 -5.5 42.999s-8.33398 24.833 -14.001 34.5s-12 17.334 -19 23.001s-13.833 8.5 -20.5 8.5s-13.5 -2.83301 -20.5 -8.5s-13.333 -13.334 -19 -23.001s-10.334 -21.167 -14.001 -34.5s-5.5 -27.666 -5.5 -42.999
s1.83301 -29.666 5.5 -42.999s8.33398 -25 14.001 -35s12 -17.833 19 -23.5s13.833 -8.5 20.5 -8.5z" />
    </font>
</defs>
</svg>
